0
SECTION
2
HEADER
9
$INSUNITS
70
4
9
$ACADVER
1
AC1014
9
$HANDSEED
5
FFFF
0
ENDSEC
0
SECTION
2
TABLES
0
TABLE
2
VPORT
5
8
100
AcDbSymbolTable
0
ENDTAB
0
TABLE
2
LTYPE
5
5
100
AcDbSymbolTable
0
LTYPE
5
14
100
AcDbSymbolTableRecord
100
AcDbLinetypeTableRecord
2
BYBLOCK
70
0
0
LTYPE
5
15
100
AcDbSymbolTableRecord
100
AcDbLinetypeTableRecord
2
BYLAYER
70
0
0
ENDTAB
0
TABLE
2
LAYER
5
2
100
AcDbSymbolTable
70
2
0
LAYER
5
50
100
AcDbSymbolTableRecord
100
AcDbLayerTableRecord
2
0
70
0
6
CONTINUOUS
0
ENDTAB
0
TABLE
2
STYLE
5
3
100
AcDbSymbolTable
70
1
0
STYLE
5
11
100
AcDbSymbolTableRecord
100
AcDbTextStyleTableRecord
2
STANDARD
70
0
0
ENDTAB
0
TABLE
2
VIEW
5
6
100
AcDbSymbolTable
70
0
0
ENDTAB
0
TABLE
2
UCS
5
7
100
AcDbSymbolTable
70
0
0
ENDTAB
0
TABLE
2
APPID
5
9
100
AcDbSymbolTable
70
2
0
APPID
5
12
100
AcDbSymbolTableRecord
100
AcDbRegAppTableRecord
2
ACAD
70
0
0
ENDTAB
0
TABLE
2
DIMSTYLE
5
A
100
AcDbSymbolTable
70
1
0
ENDTAB
0
TABLE
2
BLOCK_RECORD
5
1
100
AcDbSymbolTable
70
1
0
BLOCK_RECORD
5
1F
100
AcDbSymbolTableRecord
100
AcDbBlockTableRecord
2
*MODEL_SPACE
0
BLOCK_RECORD
5
1B
100
AcDbSymbolTableRecord
100
AcDbBlockTableRecord
2
*PAPER_SPACE
0
ENDTAB
0
ENDSEC
0
SECTION
2
BLOCKS
0
BLOCK
5
20
100
AcDbEntity
100
AcDbBlockBegin
2
*MODEL_SPACE
0
ENDBLK
5
21
100
AcDbEntity
100
AcDbBlockEnd
0
BLOCK
5
1C
100
AcDbEntity
100
AcDbBlockBegin
2
*PAPER_SPACE
0
ENDBLK
5
1D
100
AcDbEntity
100
AcDbBlockEnd
0
ENDSEC
0
SECTION
2
ENTITIES
0
LWPOLYLINE
5
100
100
AcDbEntity
8
0
100
AcDbPolyline
90
39
70
1
43
0.0
10
-152.39999999999785
20
52.387500000000003
42
0.41419527559099678
10
-149.22499999999999
20
49.212499999992133
10
-31.750000000000007
20
49.212500000000006
42
0.41421354330791615
10
-28.575000000000003
20
52.387500000000003
10
-28.574999999999889
20
66.762500000000003
42
-0.41421333333207278
10
-27.074999999999999
20
68.262499999992883
10
-26.25
20
68.262500000000003
42
0.16680097496612128
10
-24.607552999999033
20
68.826103999998764
42
0.64280560661512043
10
-24.81753700000008
20
69.711254999999596
42
-0.82158377811904904
10
-24.81753700000008
20
72.163745000000404
42
0.64281467054519514
10
-24.607553000000777
20
73.048895999999004
42
0.16680077561496851
10
-26.25
20
73.612499999999756
10
-27.074999999999999
20
73.612499999997127
42
-0.4142133333340256
10
-28.574999999999889
20
75.112500000000011
10
-28.574999999999889
20
137.61250000000001
42
-0.41421333333206933
10
-27.074999999999999
20
139.11249999999288
10
-26.25
20
139.11250000000001
42
0.16680097496612162
10
-24.607552999999029
20
139.67610399999876
42
0.64280560660325647
10
-24.81753700000008
20
140.56125499999962
42
-0.82158377811904826
10
-24.81753700000008
20
143.0137450000004
42
0.64281467054520403
10
-24.607553000000788
20
143.89889599999901
42
0.16680077561496623
10
-26.25
20
144.46249999991974
10
-273.78750000000002
20
144.46250000000001
42
0.16680097496008123
10
-275.42994699994989
20
143.89889599993555
42
0.64265441854829963
10
-275.21996299999984
20
143.01374500000077
42
-0.82158377812367112
10
-275.21996299999989
20
140.56125499999925
42
0.64294326818468761
10
-275.4299470000343
20
139.67610399995596
42
0.16680077562072387
10
-273.78750000000002
20
139.11249999999808
10
-272.96249999999998
20
139.11249999999291
42
-0.41421333333264682
10
-271.46249999999714
20
137.61250000000001
10
-271.46249999999714
20
75.112500000000011
42
-0.41421333333460308
10
-272.96249999999998
20
73.612499999997127
10
-273.78750000000002
20
73.612499999999997
42
0.16680097496539004
10
-275.42994699999349
20
73.048895999991601
42
0.64282594462809528
10
-275.21996299999984
20
72.163745000000745
42
-0.82158377812366856
10
-275.21996299999989
20
69.711254999999255
42
0.64286452051715448
10
-275.42994699999747
20
68.826104000003284
42
0.16680077561541667
10
-273.78750000000002
20
68.262499999998084
10
-152.40000000000003
20
68.262500000000003
0
LWPOLYLINE
5
101
100
AcDbEntity
8
0
100
AcDbPolyline
90
8
70
1
43
0.0
10
-33.181250000000006
20
140.9375
10
-33.181250000000006
20
128.9375
10
-34.181249999999999
20
127.93750000000001
10
-46.781250000000007
20
127.93750000000001
10
-47.78125
20
128.9375
10
-47.78125
20
140.9375
10
-46.781250000000007
20
141.9375
10
-34.181249999999999
20
141.9375
0
LWPOLYLINE
5
102
100
AcDbEntity
8
0
100
AcDbPolyline
90
8
70
1
43
0.0
10
-54.612499999999997
20
140.9375
10
-54.612499999999997
20
128.9375
10
-55.612500000000004
20
127.93750000000001
10
-68.212500000000006
20
127.93750000000001
10
-69.212500000000006
20
128.9375
10
-69.212500000000006
20
140.9375
10
-68.212500000000006
20
141.9375
10
-55.612500000000004
20
141.9375
0
LWPOLYLINE
5
103
100
AcDbEntity
8
0
100
AcDbPolyline
90
8
70
1
43
0.0
10
-76.043750000000017
20
140.9375
10
-76.043750000000017
20
128.9375
10
-77.043750000000003
20
127.93750000000001
10
-89.643750000000011
20
127.93750000000001
10
-90.643749999999997
20
128.9375
10
-90.643749999999997
20
140.9375
10
-89.643750000000011
20
141.9375
10
-77.043750000000003
20
141.9375
0
LWPOLYLINE
5
104
100
AcDbEntity
8
0
100
AcDbPolyline
90
8
70
1
43
0.0
10
-195.10625000000002
20
140.9375
10
-195.10625000000002
20
128.9375
10
-196.10624999999999
20
127.93750000000001
10
-208.70625000000004
20
127.93750000000001
10
-209.70625000000001
20
128.9375
10
-209.70625000000001
20
140.9375
10
-208.70625000000004
20
141.9375
10
-196.10624999999999
20
141.9375
0
LWPOLYLINE
5
105
100
AcDbEntity
8
0
100
AcDbPolyline
90
8
70
1
43
0.0
10
-216.53750000000002
20
140.9375
10
-216.53750000000002
20
128.9375
10
-217.53749999999999
20
127.93750000000001
10
-230.13750000000002
20
127.93750000000001
10
-231.13749999999999
20
128.9375
10
-231.13749999999999
20
140.9375
10
-230.13750000000002
20
141.9375
10
-217.53749999999999
20
141.9375
0
LWPOLYLINE
5
106
100
AcDbEntity
8
0
100
AcDbPolyline
90
8
70
1
43
0.0
10
-235.58750000000003
20
140.9375
10
-235.58750000000003
20
128.9375
10
-236.58750000000001
20
127.93750000000001
10
-249.18750000000003
20
127.93750000000001
10
-250.1875
20
128.9375
10
-250.1875
20
140.9375
10
-249.18750000000003
20
141.9375
10
-236.58750000000001
20
141.9375
0
LWPOLYLINE
5
107
100
AcDbEntity
8
0
100
AcDbPolyline
90
8
70
1
43
0.0
10
-254.63750000000002
20
140.9375
10
-254.63750000000002
20
128.9375
10
-255.63749999999999
20
127.93750000000001
10
-268.23750000000007
20
127.93750000000001
10
-269.23750000000001
20
128.9375
10
-269.23750000000001
20
140.9375
10
-268.23750000000007
20
141.9375
10
-255.63749999999999
20
141.9375
0
LWPOLYLINE
5
108
100
AcDbEntity
8
0
100
AcDbPolyline
90
8
70
1
43
0.0
10
-105.94374999999999
20
127.96249999992679
42
0.41421200004468278
10
-105.44374999999681
20
128.46250000000001
10
-105.44375000000001
20
140.18049999999999
10
-108.44374999999999
20
141.91249999999999
10
-134.44375000000002
20
141.91249999999999
10
-137.44374999999999
20
140.18049999999999
10
-137.44374999999323
20
128.46250000000001
42
0.41421200003883468
10
-136.94375000000002
20
127.96250000000001
0
LWPOLYLINE
5
109
100
AcDbEntity
8
0
100
AcDbPolyline
90
8
70
1
43
0.0
10
-153.56874999999999
20
127.96249999992679
42
0.41421200004469316
10
-153.06874999999681
20
128.46250000000001
10
-153.06874999999999
20
140.18049999999999
10
-156.06874999999999
20
141.91249999999999
10
-182.06874999999999
20
141.91249999999999
10
-185.06875000000002
20
140.18049999999999
10
-185.06874999999323
20
128.46250000000001
42
0.41421200003883468
10
-184.56874999999999
20
127.96250000000001
0
LWPOLYLINE
5
110
100
AcDbEntity
8
0
100
AcDbPolyline
90
4
70
1
43
0.0
10
-190.71519699999999
20
138.01207400000004
10
-187.12365299999999
20
138.01207400000004
10
-187.12365299999999
20
131.867762
10
-190.71519699999999
20
131.867762
0
LWPOLYLINE
5
111
100
AcDbEntity
8
0
100
AcDbPolyline
90
8
70
1
43
0.0
10
-37.943750000000009
20
121.8875
10
-37.943750000000009
20
109.88750000000002
10
-38.943750000000001
20
108.88750000000002
10
-51.54375000000001
20
108.88750000000002
10
-52.543750000000003
20
109.88750000000002
10
-52.543750000000003
20
121.8875
10
-51.54375000000001
20
122.8875
10
-38.943750000000001
20
122.8875
0
LWPOLYLINE
5
112
100
AcDbEntity
8
0
100
AcDbPolyline
90
8
70
1
43
0.0
10
-64.137500000000003
20
121.8875
10
-64.137500000000003
20
109.88750000000002
10
-65.137500000000003
20
108.88750000000002
10
-77.737499999999997
20
108.88750000000002
10
-78.737499999999997
20
109.88750000000002
10
-78.737499999999997
20
121.8875
10
-77.737499999999997
20
122.8875
10
-65.137500000000003
20
122.8875
0
LWPOLYLINE
5
113
100
AcDbEntity
8
0
100
AcDbPolyline
90
8
70
1
43
0.0
10
-83.1875
20
121.8875
10
-83.1875
20
109.88750000000002
10
-84.187500000000014
20
108.88750000000002
10
-96.787500000000009
20
108.88750000000002
10
-97.787500000000009
20
109.88750000000002
10
-97.787500000000009
20
121.8875
10
-96.787500000000009
20
122.8875
10
-84.187500000000014
20
122.8875
0
LWPOLYLINE
5
114
100
AcDbEntity
8
0
100
AcDbPolyline
90
8
70
1
43
0.0
10
-102.23750000000001
20
121.8875
10
-102.23750000000001
20
109.88750000000002
10
-103.23750000000001
20
108.88750000000002
10
-115.83750000000002
20
108.88750000000002
10
-116.83750000000002
20
109.88750000000002
10
-116.83750000000002
20
121.8875
10
-115.83750000000002
20
122.8875
10
-103.23750000000001
20
122.8875
0
LWPOLYLINE
5
115
100
AcDbEntity
8
0
100
AcDbPolyline
90
8
70
1
43
0.0
10
-121.28749999999999
20
121.8875
10
-121.28749999999999
20
109.88750000000002
10
-122.28749999999999
20
108.88750000000002
10
-134.88749999999999
20
108.88750000000002
10
-135.88749999999999
20
109.88750000000002
10
-135.88749999999999
20
121.8875
10
-134.88749999999999
20
122.8875
10
-122.28749999999999
20
122.8875
0
LWPOLYLINE
5
116
100
AcDbEntity
8
0
100
AcDbPolyline
90
8
70
1
43
0.0
10
-140.33750000000001
20
121.8875
10
-140.33750000000001
20
109.88750000000002
10
-141.33750000000001
20
108.88750000000002
10
-153.9375
20
108.88750000000002
10
-154.9375
20
109.88750000000002
10
-154.9375
20
121.8875
10
-153.9375
20
122.8875
10
-141.33750000000001
20
122.8875
0
LWPOLYLINE
5
117
100
AcDbEntity
8
0
100
AcDbPolyline
90
8
70
1
43
0.0
10
-159.38749999999999
20
121.8875
10
-159.38749999999999
20
109.88750000000002
10
-160.38749999999999
20
108.88750000000002
10
-172.98750000000001
20
108.88750000000002
10
-173.98750000000004
20
109.88750000000002
10
-173.98750000000004
20
121.8875
10
-172.98750000000001
20
122.8875
10
-160.38749999999999
20
122.8875
0
LWPOLYLINE
5
118
100
AcDbEntity
8
0
100
AcDbPolyline
90
8
70
1
43
0.0
10
-178.4375
20
121.8875
10
-178.4375
20
109.88750000000002
10
-179.4375
20
108.88750000000002
10
-192.03749999999999
20
108.88750000000002
10
-193.03750000000002
20
109.88750000000002
10
-193.03750000000002
20
121.8875
10
-192.03749999999999
20
122.8875
10
-179.4375
20
122.8875
0
LWPOLYLINE
5
119
100
AcDbEntity
8
0
100
AcDbPolyline
90
8
70
1
43
0.0
10
-197.48750000000001
20
121.8875
10
-197.48750000000001
20
109.88750000000002
10
-198.48750000000001
20
108.88750000000002
10
-211.08750000000001
20
108.88750000000002
10
-212.08750000000003
20
109.88750000000002
10
-212.08750000000003
20
121.8875
10
-211.08750000000001
20
122.8875
10
-198.48750000000001
20
122.8875
0
LWPOLYLINE
5
120
100
AcDbEntity
8
0
100
AcDbPolyline
90
8
70
1
43
0.0
10
-216.53750000000002
20
121.8875
10
-216.53750000000002
20
109.88750000000002
10
-217.53749999999999
20
108.88750000000002
10
-230.13750000000002
20
108.88750000000002
10
-231.13749999999999
20
109.88750000000002
10
-231.13749999999999
20
121.8875
10
-230.13750000000002
20
122.8875
10
-217.53749999999999
20
122.8875
0
LWPOLYLINE
5
121
100
AcDbEntity
8
0
100
AcDbPolyline
90
8
70
1
43
0.0
10
-235.58750000000003
20
121.8875
10
-235.58750000000003
20
109.88750000000002
10
-236.58750000000001
20
108.88750000000002
10
-249.18750000000003
20
108.88750000000002
10
-250.1875
20
109.88750000000002
10
-250.1875
20
121.8875
10
-249.18750000000003
20
122.8875
10
-236.58750000000001
20
122.8875
0
LWPOLYLINE
5
122
100
AcDbEntity
8
0
100
AcDbPolyline
90
8
70
1
43
0.0
10
-254.63750000000002
20
121.8875
10
-254.63750000000002
20
109.88750000000002
10
-255.63749999999999
20
108.88750000000002
10
-268.23750000000007
20
108.88750000000002
10
-269.23750000000001
20
109.88750000000002
10
-269.23750000000001
20
121.8875
10
-268.23750000000007
20
122.8875
10
-255.63749999999999
20
122.8875
0
LWPOLYLINE
5
123
100
AcDbEntity
8
0
100
AcDbPolyline
90
8
70
1
43
0.0
10
-33.181250000000006
20
102.83750000000001
10
-33.181250000000006
20
90.837500000000006
10
-34.181249999999999
20
89.837500000000006
10
-46.781250000000007
20
89.837500000000006
10
-47.78125
20
90.837500000000006
10
-47.78125
20
102.83750000000001
10
-46.781250000000007
20
103.83750000000001
10
-34.181249999999999
20
103.83750000000001
0
LWPOLYLINE
5
124
100
AcDbEntity
8
0
100
AcDbPolyline
90
8
70
1
43
0.0
10
-54.612499999999997
20
102.83750000000001
10
-54.612499999999997
20
90.837500000000006
10
-55.612500000000004
20
89.837500000000006
10
-68.212500000000006
20
89.837500000000006
10
-69.212500000000006
20
90.837500000000006
10
-69.212500000000006
20
102.83750000000001
10
-68.212500000000006
20
103.83750000000001
10
-55.612500000000004
20
103.83750000000001
0
LWPOLYLINE
5
125
100
AcDbEntity
8
0
100
AcDbPolyline
90
8
70
1
43
0.0
10
-73.662499999999994
20
102.83750000000001
10
-73.662499999999994
20
90.837500000000006
10
-74.662499999999994
20
89.837500000000006
10
-87.262500000000003
20
89.837500000000006
10
-88.262500000000003
20
90.837500000000006
10
-88.262500000000003
20
102.83750000000001
10
-87.262500000000003
20
103.83750000000001
10
-74.662499999999994
20
103.83750000000001
0
LWPOLYLINE
5
126
100
AcDbEntity
8
0
100
AcDbPolyline
90
8
70
1
43
0.0
10
-92.712500000000006
20
102.83750000000001
10
-92.712500000000006
20
90.837500000000006
10
-93.71250000000002
20
89.837500000000006
10
-106.31250000000001
20
89.837500000000006
10
-107.31250000000001
20
90.837500000000006
10
-107.31250000000001
20
102.83750000000001
10
-106.31250000000001
20
103.83750000000001
10
-93.71250000000002
20
103.83750000000001
0
LWPOLYLINE
5
127
100
AcDbEntity
8
0
100
AcDbPolyline
90
8
70
1
43
0.0
10
-111.76250000000002
20
102.83750000000001
10
-111.76250000000002
20
90.837500000000006
10
-112.76250000000002
20
89.837500000000006
10
-125.36250000000001
20
89.837500000000006
10
-126.36250000000001
20
90.837500000000006
10
-126.36250000000001
20
102.83750000000001
10
-125.36250000000001
20
103.83750000000001
10
-112.76250000000002
20
103.83750000000001
0
LWPOLYLINE
5
128
100
AcDbEntity
8
0
100
AcDbPolyline
90
8
70
1
43
0.0
10
-130.8125
20
102.83750000000001
10
-130.8125
20
90.837500000000006
10
-131.8125
20
89.837500000000006
10
-144.41249999999999
20
89.837500000000006
10
-145.41249999999999
20
90.837500000000006
10
-145.41249999999999
20
102.83750000000001
10
-144.41249999999999
20
103.83750000000001
10
-131.8125
20
103.83750000000001
0
LWPOLYLINE
5
129
100
AcDbEntity
8
0
100
AcDbPolyline
90
8
70
1
43
0.0
10
-149.86250000000001
20
102.83750000000001
10
-149.86250000000001
20
90.837500000000006
10
-150.86250000000001
20
89.837500000000006
10
-163.46250000000001
20
89.837500000000006
10
-164.46250000000003
20
90.837500000000006
10
-164.46250000000003
20
102.83750000000001
10
-163.46250000000001
20
103.83750000000001
10
-150.86250000000001
20
103.83750000000001
0
LWPOLYLINE
5
130
100
AcDbEntity
8
0
100
AcDbPolyline
90
8
70
1
43
0.0
10
-168.91249999999999
20
102.83750000000001
10
-168.91249999999999
20
90.837500000000006
10
-169.91250000000002
20
89.837500000000006
10
-182.51249999999999
20
89.837500000000006
10
-183.51249999999999
20
90.837500000000006
10
-183.51249999999999
20
102.83750000000001
10
-182.51249999999999
20
103.83750000000001
10
-169.91250000000002
20
103.83750000000001
0
LWPOLYLINE
5
131
100
AcDbEntity
8
0
100
AcDbPolyline
90
8
70
1
43
0.0
10
-187.96250000000001
20
102.83750000000001
10
-187.96250000000001
20
90.837500000000006
10
-188.96250000000003
20
89.837500000000006
10
-201.5625
20
89.837500000000006
10
-202.5625
20
90.837500000000006
10
-202.5625
20
102.83750000000001
10
-201.5625
20
103.83750000000001
10
-188.96250000000003
20
103.83750000000001
0
LWPOLYLINE
5
132
100
AcDbEntity
8
0
100
AcDbPolyline
90
8
70
1
43
0.0
10
-207.01250000000002
20
102.83750000000001
10
-207.01250000000002
20
90.837500000000006
10
-208.01249999999999
20
89.837500000000006
10
-220.61250000000001
20
89.837500000000006
10
-221.61250000000001
20
90.837500000000006
10
-221.61250000000001
20
102.83750000000001
10
-220.61250000000001
20
103.83750000000001
10
-208.01249999999999
20
103.83750000000001
0
LWPOLYLINE
5
133
100
AcDbEntity
8
0
100
AcDbPolyline
90
8
70
1
43
0.0
10
-226.06250000000003
20
102.83750000000001
10
-226.06250000000003
20
90.837500000000006
10
-227.0625
20
89.837500000000006
10
-239.66250000000002
20
89.837500000000006
10
-240.66249999999999
20
90.837500000000006
10
-240.66249999999999
20
102.83750000000001
10
-239.66250000000002
20
103.83750000000001
10
-227.0625
20
103.83750000000001
0
LWPOLYLINE
5
134
100
AcDbEntity
8
0
100
AcDbPolyline
90
8
70
1
43
0.0
10
-249.875
20
102.83750000000001
10
-249.875
20
90.837500000000006
10
-250.87500000000003
20
89.837500000000006
10
-263.47500000000002
20
89.837500000000006
10
-264.47500000000002
20
90.837500000000006
10
-264.47500000000002
20
102.83750000000001
10
-263.47500000000002
20
103.83750000000001
10
-250.87500000000003
20
103.83750000000001
0
LWPOLYLINE
5
135
100
AcDbEntity
8
0
100
AcDbPolyline
90
8
70
1
43
0.0
10
-30.800000000000001
20
83.787499999999994
10
-30.800000000000001
20
71.787499999999994
10
-31.800000000000001
20
70.787499999999994
10
-44.400000000000006
20
70.787499999999994
10
-45.399999999999999
20
71.787499999999994
10
-45.399999999999999
20
83.787499999999994
10
-44.400000000000006
20
84.787499999999994
10
-31.800000000000001
20
84.787499999999994
0
LWPOLYLINE
5
136
100
AcDbEntity
8
0
100
AcDbPolyline
90
8
70
1
43
0.0
10
-49.850000000000001
20
83.787499999999994
10
-49.850000000000001
20
71.787499999999994
10
-50.850000000000009
20
70.787499999999994
10
-63.450000000000003
20
70.787499999999994
10
-64.450000000000003
20
71.787499999999994
10
-64.450000000000003
20
83.787499999999994
10
-63.450000000000003
20
84.787499999999994
10
-50.850000000000009
20
84.787499999999994
0
LWPOLYLINE
5
137
100
AcDbEntity
8
0
100
AcDbPolyline
90
8
70
1
43
0.0
10
-68.900000000000006
20
83.787499999999994
10
-68.900000000000006
20
71.787499999999994
10
-69.900000000000006
20
70.787499999999994
10
-82.5
20
70.787499999999994
10
-83.5
20
71.787499999999994
10
-83.5
20
83.787499999999994
10
-82.5
20
84.787499999999994
10
-69.900000000000006
20
84.787499999999994
0
LWPOLYLINE
5
138
100
AcDbEntity
8
0
100
AcDbPolyline
90
8
70
1
43
0.0
10
-87.950000000000003
20
83.787499999999994
10
-87.950000000000003
20
71.787499999999994
10
-88.950000000000017
20
70.787499999999994
10
-101.55000000000001
20
70.787499999999994
10
-102.55000000000001
20
71.787499999999994
10
-102.55000000000001
20
83.787499999999994
10
-101.55000000000001
20
84.787499999999994
10
-88.950000000000017
20
84.787499999999994
0
LWPOLYLINE
5
139
100
AcDbEntity
8
0
100
AcDbPolyline
90
8
70
1
43
0.0
10
-107.00000000000001
20
83.787499999999994
10
-107.00000000000001
20
71.787499999999994
10
-108
20
70.787499999999994
10
-120.60000000000001
20
70.787499999999994
10
-121.59999999999999
20
71.787499999999994
10
-121.59999999999999
20
83.787499999999994
10
-120.60000000000001
20
84.787499999999994
10
-108
20
84.787499999999994
0
LWPOLYLINE
5
140
100
AcDbEntity
8
0
100
AcDbPolyline
90
8
70
1
43
0.0
10
-126.05000000000001
20
83.787499999999994
10
-126.05000000000001
20
71.787499999999994
10
-127.05
20
70.787499999999994
10
-139.65000000000001
20
70.787499999999994
10
-140.65000000000001
20
71.787499999999994
10
-140.65000000000001
20
83.787499999999994
10
-139.65000000000001
20
84.787499999999994
10
-127.05
20
84.787499999999994
0
LWPOLYLINE
5
141
100
AcDbEntity
8
0
100
AcDbPolyline
90
8
70
1
43
0.0
10
-145.09999999999999
20
83.787499999999994
10
-145.09999999999999
20
71.787499999999994
10
-146.09999999999999
20
70.787499999999994
10
-158.69999999999999
20
70.787499999999994
10
-159.69999999999999
20
71.787499999999994
10
-159.69999999999999
20
83.787499999999994
10
-158.69999999999999
20
84.787499999999994
10
-146.09999999999999
20
84.787499999999994
0
LWPOLYLINE
5
142
100
AcDbEntity
8
0
100
AcDbPolyline
90
8
70
1
43
0.0
10
-164.15000000000003
20
83.787499999999994
10
-164.15000000000003
20
71.787499999999994
10
-165.15000000000001
20
70.787499999999994
10
-177.75000000000003
20
70.787499999999994
10
-178.75
20
71.787499999999994
10
-178.75
20
83.787499999999994
10
-177.75000000000003
20
84.787499999999994
10
-165.15000000000001
20
84.787499999999994
0
LWPOLYLINE
5
143
100
AcDbEntity
8
0
100
AcDbPolyline
90
8
70
1
43
0.0
10
-183.19999999999999
20
83.787499999999994
10
-183.19999999999999
20
71.787499999999994
10
-184.19999999999999
20
70.787499999999994
10
-196.80000000000004
20
70.787499999999994
10
-197.80000000000001
20
71.787499999999994
10
-197.80000000000001
20
83.787499999999994
10
-196.80000000000004
20
84.787499999999994
10
-184.19999999999999
20
84.787499999999994
0
LWPOLYLINE
5
144
100
AcDbEntity
8
0
100
AcDbPolyline
90
8
70
1
43
0.0
10
-202.25
20
83.787499999999994
10
-202.25
20
71.787499999999994
10
-203.25000000000003
20
70.787499999999994
10
-215.85000000000002
20
70.787499999999994
10
-216.85000000000002
20
71.787499999999994
10
-216.85000000000002
20
83.787499999999994
10
-215.85000000000002
20
84.787499999999994
10
-203.25000000000003
20
84.787499999999994
0
LWPOLYLINE
5
145
100
AcDbEntity
8
0
100
AcDbPolyline
90
8
70
1
43
0.0
10
-221.30000000000001
20
83.787499999999994
10
-221.30000000000001
20
71.787499999999994
10
-222.30000000000004
20
70.787499999999994
10
-234.90000000000003
20
70.787499999999994
10
-235.90000000000003
20
71.787499999999994
10
-235.90000000000003
20
83.787499999999994
10
-234.90000000000003
20
84.787499999999994
10
-222.30000000000004
20
84.787499999999994
0
LWPOLYLINE
5
146
100
AcDbEntity
8
0
100
AcDbPolyline
90
8
70
1
43
0.0
10
-247.49375000000001
20
83.787499999999994
10
-247.49375000000001
20
71.787499999999994
10
-248.49375000000003
20
70.787499999999994
10
-261.09375
20
70.787499999999994
10
-262.09375
20
71.787499999999994
10
-262.09375
20
83.787499999999994
10
-261.09375
20
84.787499999999994
10
-248.49375000000003
20
84.787499999999994
0
LWPOLYLINE
5
147
100
AcDbEntity
8
0
100
AcDbPolyline
90
8
70
1
43
0.0
10
-40.325000000000003
20
64.737499999999997
10
-40.325000000000003
20
52.737499999999997
10
-41.325000000000003
20
51.737499999999997
10
-53.924999999999997
20
51.737499999999997
10
-54.924999999999997
20
52.737499999999997
10
-54.924999999999997
20
64.737499999999997
10
-53.924999999999997
20
65.737500000000011
10
-41.325000000000003
20
65.737500000000011
0
LWPOLYLINE
5
148
100
AcDbEntity
8
0
100
AcDbPolyline
90
8
70
1
43
0.0
10
-59.375
20
64.737499999999997
10
-59.375
20
52.737499999999997
10
-60.375000000000007
20
51.737499999999997
10
-72.974999999999994
20
51.737499999999997
10
-73.974999999999994
20
52.737499999999997
10
-73.974999999999994
20
64.737499999999997
10
-72.974999999999994
20
65.737500000000011
10
-60.375000000000007
20
65.737500000000011
0
LWPOLYLINE
5
149
100
AcDbEntity
8
0
100
AcDbPolyline
90
8
70
1
43
0.0
10
-78.424999999999997
20
64.737499999999997
10
-78.424999999999997
20
52.737499999999997
10
-79.424999999999997
20
51.737499999999997
10
-92.025000000000006
20
51.737499999999997
10
-93.025000000000006
20
52.737499999999997
10
-93.025000000000006
20
64.737499999999997
10
-92.025000000000006
20
65.737500000000011
10
-79.424999999999997
20
65.737500000000011
0
LWPOLYLINE
5
150
100
AcDbEntity
8
0
100
AcDbPolyline
90
8
70
1
43
0.0
10
-97.475000000000009
20
64.737499999999997
10
-97.475000000000009
20
52.737499999999997
10
-98.474999999999994
20
51.737499999999997
10
-111.07500000000002
20
51.737499999999997
10
-112.07500000000002
20
52.737499999999997
10
-112.07500000000002
20
64.737499999999997
10
-111.07500000000002
20
65.737500000000011
10
-98.474999999999994
20
65.737500000000011
0
LWPOLYLINE
5
151
100
AcDbEntity
8
0
100
AcDbPolyline
90
8
70
1
43
0.0
10
-116.52500000000002
20
64.737499999999997
10
-116.52500000000002
20
52.737499999999997
10
-117.52500000000001
20
51.737499999999997
10
-130.125
20
51.737499999999997
10
-131.125
20
52.737499999999997
10
-131.125
20
64.737499999999997
10
-130.125
20
65.737500000000011
10
-117.52500000000001
20
65.737500000000011
0
LWPOLYLINE
5
152
100
AcDbEntity
8
0
100
AcDbPolyline
90
8
70
1
43
0.0
10
-135.57499999999999
20
64.737499999999997
10
-135.57499999999999
20
52.737499999999997
10
-136.57499999999999
20
51.737499999999997
10
-149.17500000000001
20
51.737499999999997
10
-150.17500000000001
20
52.737499999999997
10
-150.17500000000001
20
64.737499999999997
10
-149.17500000000001
20
65.737500000000011
10
-136.57499999999999
20
65.737500000000011
0
LWPOLYLINE
5
153
100
AcDbEntity
8
0
100
AcDbPolyline
90
4
70
1
43
0.0
10
-34.299999
20
65.405000999999999
10
-30.900001000000003
20
65.405000999999999
10
-30.900001000000003
20
62.204601000000004
10
-34.299999
20
62.204601000000004
0
LWPOLYLINE
5
154
100
AcDbEntity
8
0
100
AcDbPolyline
90
4
70
1
43
0.0
10
-34.298999000000009
20
59.785201000000008
10
-30.899000999999998
20
59.785201000000008
10
-30.899000999999998
20
56.584800999999999
10
-34.298999000000009
20
56.584800999999999
0
LWPOLYLINE
5
155
100
AcDbEntity
8
0
100
AcDbPolyline
90
4
70
1
43
0.0
10
-34.298999000000009
20
54.152701000000008
10
-30.899000999999998
20
54.152701000000008
10
-30.899000999999998
20
50.952301000000006
10
-34.298999000000009
20
50.952301000000006
0
CIRCLE
5
156
100
AcDbEntity
8
0
100
AcDbCircle
10
-50.006250000000001
20
134.9375
30
0
40
0.80000000000000016
210
0
220
0
230
1
0
CIRCLE
5
157
100
AcDbEntity
8
0
100
AcDbCircle
10
-73.818749999999994
20
134.9375
30
0
40
0.80000000000000016
210
0
220
0
230
1
0
CIRCLE
5
158
100
AcDbEntity
8
0
100
AcDbCircle
10
-95.25
20
134.9375
30
0
40
0.80000000000000016
210
0
220
0
230
1
0
CIRCLE
5
159
100
AcDbEntity
8
0
100
AcDbCircle
10
-192.88125000000002
20
134.9375
30
0
40
0.80000000000000016
210
0
220
0
230
1
0
CIRCLE
5
160
100
AcDbEntity
8
0
100
AcDbCircle
10
-214.31250000000003
20
134.9375
30
0
40
0.80000000000000016
210
0
220
0
230
1
0
CIRCLE
5
161
100
AcDbEntity
8
0
100
AcDbCircle
10
-252.41250000000002
20
134.9375
30
0
40
0.80000000000000016
210
0
220
0
230
1
0
CIRCLE
5
162
100
AcDbEntity
8
0
100
AcDbCircle
10
-35.71875
20
115.88750000000002
30
0
40
0.80000000000000016
210
0
220
0
230
1
0
CIRCLE
5
163
100
AcDbEntity
8
0
100
AcDbCircle
10
-100.0125
20
115.88750000000002
30
0
40
0.80000000000000016
210
0
220
0
230
1
0
CIRCLE
5
164
100
AcDbEntity
8
0
100
AcDbCircle
10
-157.16249999999999
20
115.88750000000002
30
0
40
0.80000000000000016
210
0
220
0
230
1
0
CIRCLE
5
165
100
AcDbEntity
8
0
100
AcDbCircle
10
-214.31250000000003
20
115.88750000000002
30
0
40
0.80000000000000016
210
0
220
0
230
1
0
CIRCLE
5
166
100
AcDbEntity
8
0
100
AcDbCircle
10
-252.41250000000002
20
115.88750000000002
30
0
40
0.80000000000000016
210
0
220
0
230
1
0
CIRCLE
5
167
100
AcDbEntity
8
0
100
AcDbCircle
10
-30.956250000000001
20
96.83750000000002
30
0
40
0.80000000000000016
210
0
220
0
230
1
0
CIRCLE
5
168
100
AcDbEntity
8
0
100
AcDbCircle
10
-71.4375
20
96.83750000000002
30
0
40
0.80000000000000016
210
0
220
0
230
1
0
CIRCLE
5
169
100
AcDbEntity
8
0
100
AcDbCircle
10
-109.53749999999999
20
96.83750000000002
30
0
40
0.80000000000000016
210
0
220
0
230
1
0
CIRCLE
5
170
100
AcDbEntity
8
0
100
AcDbCircle
10
-147.63749999999999
20
96.83750000000002
30
0
40
0.80000000000000016
210
0
220
0
230
1
0
CIRCLE
5
171
100
AcDbEntity
8
0
100
AcDbCircle
10
-204.78750000000002
20
96.83750000000002
30
0
40
0.80000000000000016
210
0
220
0
230
1
0
CIRCLE
5
172
100
AcDbEntity
8
0
100
AcDbCircle
10
-247.65000000000001
20
96.83750000000002
30
0
40
0.80000000000000016
210
0
220
0
230
1
0
CIRCLE
5
173
100
AcDbEntity
8
0
100
AcDbCircle
10
-47.625
20
77.787499999999994
30
0
40
0.80000000000000016
210
0
220
0
230
1
0
CIRCLE
5
174
100
AcDbEntity
8
0
100
AcDbCircle
10
-104.77500000000001
20
77.787499999999994
30
0
40
0.80000000000000016
210
0
220
0
230
1
0
CIRCLE
5
175
100
AcDbEntity
8
0
100
AcDbCircle
10
-161.92500000000001
20
77.787499999999994
30
0
40
0.80000000000000016
210
0
220
0
230
1
0
CIRCLE
5
176
100
AcDbEntity
8
0
100
AcDbCircle
10
-219.07499999999999
20
77.787499999999994
30
0
40
0.80000000000000016
210
0
220
0
230
1
0
CIRCLE
5
177
100
AcDbEntity
8
0
100
AcDbCircle
10
-264.31875000000002
20
77.787499999999994
30
0
40
0.80000000000000016
210
0
220
0
230
1
0
CIRCLE
5
178
100
AcDbEntity
8
0
100
AcDbCircle
10
-38.100000000000009
20
58.737500000000004
30
0
40
0.80000000000000016
210
0
220
0
230
1
0
CIRCLE
5
179
100
AcDbEntity
8
0
100
AcDbCircle
10
-76.200000000000017
20
58.737500000000004
30
0
40
0.80000000000000016
210
0
220
0
230
1
0
CIRCLE
5
180
100
AcDbEntity
8
0
100
AcDbCircle
10
-114.3
20
58.737500000000004
30
0
40
0.80000000000000016
210
0
220
0
230
1
0
CIRCLE
5
181
100
AcDbEntity
8
0
100
AcDbCircle
10
-133.35000000000002
20
58.737500000000004
30
0
40
0.80000000000000016
210
0
220
0
230
1
0
ENDSEC
0
SECTION
2
OBJECTS
0
DICTIONARY
5
C
100
AcDbDictionary
3
ACAD_GROUP
350
D
3
ACAD_MLINESTYLE
350
17
0
DICTIONARY
5
D
100
AcDbDictionary
0
DICTIONARY
5
1A
330
C
100
AcDbDictionary
0
DICTIONARY
5
17
100
AcDbDictionary
0
ENDSEC
0
EOF
