0
SECTION
2
HEADER
9
$INSUNITS
70
4
9
$ACADVER
1
AC1014
9
$HANDSEED
5
FFFF
0
ENDSEC
0
SECTION
2
TABLES
0
TABLE
2
VPORT
5
8
100
AcDbSymbolTable
0
ENDTAB
0
TABLE
2
LTYPE
5
5
100
AcDbSymbolTable
0
LTYPE
5
14
100
AcDbSymbolTableRecord
100
AcDbLinetypeTableRecord
2
BYBLOCK
70
0
0
LTYPE
5
15
100
AcDbSymbolTableRecord
100
AcDbLinetypeTableRecord
2
BYLAYER
70
0
0
ENDTAB
0
TABLE
2
LAYER
5
2
100
AcDbSymbolTable
70
2
0
LAYER
5
50
100
AcDbSymbolTableRecord
100
AcDbLayerTableRecord
2
0
70
0
6
CONTINUOUS
0
ENDTAB
0
TABLE
2
STYLE
5
3
100
AcDbSymbolTable
70
1
0
STYLE
5
11
100
AcDbSymbolTableRecord
100
AcDbTextStyleTableRecord
2
STANDARD
70
0
0
ENDTAB
0
TABLE
2
VIEW
5
6
100
AcDbSymbolTable
70
0
0
ENDTAB
0
TABLE
2
UCS
5
7
100
AcDbSymbolTable
70
0
0
ENDTAB
0
TABLE
2
APPID
5
9
100
AcDbSymbolTable
70
2
0
APPID
5
12
100
AcDbSymbolTableRecord
100
AcDbRegAppTableRecord
2
ACAD
70
0
0
ENDTAB
0
TABLE
2
DIMSTYLE
5
A
100
AcDbSymbolTable
70
1
0
ENDTAB
0
TABLE
2
BLOCK_RECORD
5
1
100
AcDbSymbolTable
70
1
0
BLOCK_RECORD
5
1F
100
AcDbSymbolTableRecord
100
AcDbBlockTableRecord
2
*MODEL_SPACE
0
BLOCK_RECORD
5
1B
100
AcDbSymbolTableRecord
100
AcDbBlockTableRecord
2
*PAPER_SPACE
0
ENDTAB
0
ENDSEC
0
SECTION
2
BLOCKS
0
BLOCK
5
20
100
AcDbEntity
100
AcDbBlockBegin
2
*MODEL_SPACE
0
ENDBLK
5
21
100
AcDbEntity
100
AcDbBlockEnd
0
BLOCK
5
1C
100
AcDbEntity
100
AcDbBlockBegin
2
*PAPER_SPACE
0
ENDBLK
5
1D
100
AcDbEntity
100
AcDbBlockEnd
0
ENDSEC
0
SECTION
2
ENTITIES
0
LWPOLYLINE
5
100
100
AcDbEntity
8
0
100
AcDbPolyline
90
332
70
1
43
0.0
10
-218.51974799999999
20
35.667529999999999
10
-218.00512499999999
20
35.608474000000001
10
-217.48750000000001
20
35.588749999999997
10
-216.96987500000003
20
35.608474000000001
10
-216.45525200000003
20
35.667529999999999
10
-215.94661600000001
20
35.765576000000003
10
-215.44691499999999
20
35.902043999999997
10
-214.95904800000002
20
36.076143000000002
10
-214.48584400000001
20
36.286861999999999
10
-214.03004800000002
20
36.532978999999997
10
-213.59430200000003
20
36.813068000000001
10
-213.18113299999999
20
37.125503999999999
10
-212.79293899999999
20
37.468474999999998
10
-212.43196800000004
20
37.839992000000002
10
-212.10031700000002
20
38.237901000000001
10
-211.79990599999999
20
38.659892999999997
10
-211.532479
20
39.103523000000003
10
-211.29958700000003
20
39.566217000000002
10
-211.10258000000002
20
40.045292000000003
10
-210.94260000000003
20
40.537969000000004
10
-210.82057599999999
20
41.041391000000004
10
-210.73721500000002
20
41.552639999999997
10
-210.69300000000001
20
42.068750000000001
10
-90.932000000000016
20
42.068750000000001
10
-90.887785000000008
20
41.552639999999997
10
-90.804424000000012
20
41.041391000000004
10
-90.682400000000015
20
40.537969000000004
10
-90.522419999999997
20
40.045292000000003
10
-90.325412999999998
20
39.566217000000002
10
-90.092521000000005
20
39.103523000000003
10
-89.825094000000007
20
38.659892999999997
10
-89.524682999999996
20
38.237901000000001
10
-89.193032000000002
20
37.839992000000002
10
-88.83206100000001
20
37.468474999999998
10
-88.443866999999997
20
37.125503999999999
10
-88.030698000000015
20
36.813068000000001
10
-87.594952000000021
20
36.532978999999997
10
-87.139156
20
36.286861999999999
10
-86.665952000000019
20
36.076143000000002
10
-86.17808500000001
20
35.902043999999997
10
-85.678383999999994
20
35.765576000000003
10
-85.169747999999998
20
35.667529999999999
10
-84.655125000000012
20
35.608474000000001
10
-84.137500000000003
20
35.588749999999997
10
-83.619874999999993
20
35.608474000000001
10
-83.105251999999993
20
35.667529999999999
10
-82.596615999999997
20
35.765576000000003
10
-82.096914999999996
20
35.902043999999997
10
-81.609048000000001
20
36.076143000000002
10
-81.135844000000006
20
36.286861999999999
10
-80.680047999999999
20
36.532978999999997
10
-80.244302000000005
20
36.813068000000001
10
-79.831132999999994
20
37.125503999999999
10
-79.442938999999996
20
37.468474999999998
10
-79.081968000000003
20
37.839992000000002
10
-78.750316999999995
20
38.237901000000001
10
-78.449905999999999
20
38.659892999999997
10
-78.182479000000001
20
39.103523000000003
10
-77.949586999999994
20
39.566217000000002
10
-77.752579999999995
20
40.045292000000003
10
-77.592600000000004
20
40.537969000000004
10
-77.470575999999994
20
41.041391000000004
10
-77.387214999999998
20
41.552639999999997
10
-77.343000000000018
20
42.068750000000001
10
-18.962500000000002
20
42.068750000000001
10
-18.727848000000002
20
42.08721700000001
10
-18.498975000000002
20
42.142164999999999
10
-18.281514000000001
20
42.232240000000004
10
-18.080822000000005
20
42.355225000000004
10
-17.90184
20
42.508090000000003
10
-17.748975000000002
20
42.687072000000008
10
-17.625990000000002
20
42.887763999999997
10
-17.535914999999999
20
43.105225000000004
10
-17.480967
20
43.334097999999997
10
-17.462499999999999
20
43.568750000000009
10
-17.462499999999999
20
71.139049999999997
10
-16.862660000000002
20
71.182941
10
-16.267068999999999
20
71.266634999999994
10
-15.678362999999999
20
71.389760999999993
10
-15.099151000000003
20
71.551773999999995
10
-14.531999000000003
20
71.751954999999995
10
-13.979419000000002
20
71.989418999999998
10
-13.443858000000002
20
72.263114000000002
10
-12.927689000000003
20
72.571826000000001
10
-12.433198000000001
20
72.914188999999993
10
-11.962574999999999
20
73.288686999999996
10
-11.517905000000003
20
73.693659999999994
10
-11.101158
20
74.127313999999998
10
-10.714180000000002
20
74.587728999999996
10
-10.358684
20
75.072864999999993
10
-10.036246
20
75.580573000000001
10
-9.7482939999999996
20
76.108604999999997
10
-9.4961029999999997
20
76.654622000000003
10
-9.2807899999999997
20
77.216204000000005
10
-9.1033089999999994
20
77.790863999999999
10
-8.9644469999999998
20
78.376058
10
-8.8648179999999996
20
78.969192000000007
10
-8.8048629999999992
20
79.567639999999997
10
-8.7848489999999995
20
80.168750000000003
10
-8.8048629999999992
20
80.769859999999994
10
-8.8648179999999996
20
81.368307999999999
10
-8.9644469999999998
20
81.961442000000005
10
-9.1033089999999994
20
82.546636000000007
10
-9.2807899999999997
20
83.121296000000001
10
-9.4961029999999997
20
83.682878000000017
10
-9.7482939999999996
20
84.228894999999994
10
-10.036246
20
84.756927000000019
10
-10.358684
20
85.264634999999998
10
-10.714180000000002
20
85.749770999999996
10
-11.101158
20
86.210185999999993
10
-11.517905000000003
20
86.643839999999997
10
-11.962574999999999
20
87.048812999999996
10
-12.433198000000001
20
87.423310999999998
10
-12.927689000000003
20
87.765674000000018
10
-13.443858000000002
20
88.074386000000004
10
-13.979419000000002
20
88.348081000000008
10
-14.531999000000003
20
88.585544999999996
10
-15.099151000000003
20
88.785725999999997
10
-15.678362999999999
20
88.947739000000013
10
-16.267068999999999
20
89.070864999999998
10
-16.862660000000002
20
89.154559000000006
10
-17.462499999999999
20
89.198450000000008
10
-17.462499999999999
20
116.76875000000001
10
-17.480924999999999
20
117.00340400000002
10
-17.535879999999999
20
117.23227900000001
10
-17.625962000000001
20
117.44974000000001
10
-17.748951999999999
20
117.65043200000001
10
-17.901821999999999
20
117.82941300000002
10
-18.080808999999999
20
117.98227799999999
10
-18.281504999999999
20
118.10526100000001
10
-18.498969000000002
20
118.195335
10
-18.727844999999999
20
118.250283
10
-18.962499999999999
20
118.26875000000001
10
-77.343000000000018
20
118.26875000000001
10
-77.387214999999998
20
118.78486000000001
10
-77.470575999999994
20
119.296109
10
-77.592600000000004
20
119.79953100000002
10
-77.752579999999995
20
120.29220800000002
10
-77.949586999999994
20
120.771283
10
-78.182479000000001
20
121.233977
10
-78.449905999999999
20
121.67760700000001
10
-78.750316999999995
20
122.09959900000001
10
-79.081968000000003
20
122.49750800000001
10
-79.442938999999996
20
122.86902499999999
10
-79.831132999999994
20
123.211996
10
-80.244302000000005
20
123.52443200000002
10
-80.680047999999999
20
123.80452099999999
10
-81.135844000000006
20
124.05063800000001
10
-81.609048000000001
20
124.26135700000002
10
-82.096914999999996
20
124.435456
10
-82.596615999999997
20
124.571924
10
-83.105251999999993
20
124.66997000000001
10
-83.619874999999993
20
124.729026
10
-84.137500000000003
20
124.74875
10
-84.655125000000012
20
124.729026
10
-85.169747999999998
20
124.66997000000001
10
-85.678383999999994
20
124.571924
10
-86.17808500000001
20
124.435456
10
-86.665952000000019
20
124.26135700000002
10
-87.139156
20
124.05063800000001
10
-87.594952000000021
20
123.80452099999999
10
-88.030698000000015
20
123.52443200000002
10
-88.443866999999997
20
123.211996
10
-88.83206100000001
20
122.86902499999999
10
-89.193032000000002
20
122.49750800000001
10
-89.524682999999996
20
122.09959900000001
10
-89.825094000000007
20
121.67760700000001
10
-90.092521000000005
20
121.233977
10
-90.325412999999998
20
120.771283
10
-90.522419999999997
20
120.29220800000002
10
-90.682400000000015
20
119.79953100000002
10
-90.804424000000012
20
119.296109
10
-90.887785000000008
20
118.78486000000001
10
-90.932000000000016
20
118.26875000000001
10
-210.69300000000001
20
118.26875000000001
10
-210.73721500000002
20
118.78486000000001
10
-210.82057599999999
20
119.296109
10
-210.94260000000003
20
119.79953100000002
10
-211.10258000000002
20
120.29220800000002
10
-211.29958700000003
20
120.771283
10
-211.532479
20
121.233977
10
-211.79990599999999
20
121.67760700000001
10
-212.10031700000002
20
122.09959900000001
10
-212.43196800000004
20
122.49750800000001
10
-212.79293899999999
20
122.86902499999999
10
-213.18113299999999
20
123.211996
10
-213.59430200000003
20
123.52443200000002
10
-214.03004800000002
20
123.80452099999999
10
-214.48584400000001
20
124.05063800000001
10
-214.95904800000002
20
124.26135700000002
10
-215.44691499999999
20
124.435456
10
-215.94661600000001
20
124.571924
10
-216.45525200000003
20
124.66997000000001
10
-216.96987500000003
20
124.729026
10
-217.48750000000001
20
124.74875
10
-218.00512499999999
20
124.729026
10
-218.51974799999999
20
124.66997000000001
10
-219.02838400000002
20
124.571924
10
-219.52808500000003
20
124.435456
10
-220.015952
20
124.26135700000002
10
-220.48915600000001
20
124.05063800000001
10
-220.944952
20
123.80452099999999
10
-221.380698
20
123.52443200000002
10
-221.79386700000003
20
123.211996
10
-222.18206100000003
20
122.86902499999999
10
-222.54303200000004
20
122.49750800000001
10
-222.874683
20
122.09959900000001
10
-223.17509400000003
20
121.67760700000001
10
-223.44252100000003
20
121.233977
10
-223.67541299999999
20
120.771283
10
-223.87242000000001
20
120.29220800000002
10
-224.0324
20
119.79953100000002
10
-224.15442400000003
20
119.296109
10
-224.237785
20
118.78486000000001
10
-224.28200000000004
20
118.26875000000001
10
-277.89999999999998
20
118.26875000000001
10
-278.13464699999997
20
118.25023299999999
10
-278.363516
20
118.19528800000001
10
-278.58097199999997
20
118.10521700000001
10
-278.78166199999998
20
117.98223700000001
10
-278.96064200000001
20
117.82937800000001
10
-279.11350800000002
20
117.65040200000001
10
-279.23649399999999
20
117.44971700000001
10
-279.326572
20
117.23226400000001
10
-279.38152500000001
20
117.003396
10
-279.39999999999998
20
116.76875000000001
10
-279.39999999999998
20
89.198450000000008
10
-279.997793
20
89.154776999999996
10
-280.59137600000003
20
89.071572000000003
10
-281.17813699999999
20
88.949202
10
-281.75549599999999
20
88.788204000000007
10
-282.32091200000002
20
88.589286000000001
10
-282.87189899999998
20
88.353324999999998
10
-283.40603099999998
20
88.081356999999997
10
-283.92095900000004
20
87.774580000000014
10
-284.41441900000001
20
87.434342000000015
10
-284.88423799999998
20
87.062141999999994
10
-285.328351
20
86.659615000000002
10
-285.74480299999999
20
86.228533999999996
10
-286.13176299999998
20
85.770794000000009
10
-286.487527
20
85.288409000000001
10
-286.81053200000002
20
84.783501000000001
10
-287.099355
20
84.258292000000012
10
-287.35272700000002
20
83.715091999999999
10
-287.56953199999998
20
83.156289999999998
10
-287.74881800000003
20
82.584345999999996
10
-287.88979400000005
20
82.001773999999997
10
-287.99184200000002
20
81.411139000000006
10
-288.05451099999999
20
80.815038000000001
10
-288.07752699999998
20
80.216094000000012
10
-288.060788
20
79.616941999999995
10
-288.004368
20
79.020217000000002
10
-287.90851500000002
20
78.428545
10
-287.77364999999998
20
77.844528999999994
10
-287.60036700000001
20
77.270736999999997
10
-287.38942900000001
20
76.709694999999996
10
-287.14176300000008
20
76.163870000000003
10
-286.85845799999998
20
75.635662999999994
10
-286.54076199999997
20
75.127398999999997
10
-286.19007099999999
20
74.641312999999997
10
-285.807929
20
74.179542999999995
10
-285.39601699999997
20
73.744122000000004
10
-284.95614599999999
20
73.336963999999995
10
-284.490252
20
72.959861000000004
10
-284.00038499999999
20
72.614472000000006
10
-283.488699
20
72.302316000000005
10
-282.957446
20
72.024766999999997
10
-282.40896199999997
20
71.783045000000001
10
-281.84566100000001
20
71.578214000000003
10
-281.27002099999999
20
71.411175
10
-281.02554700000002
20
71.370063000000002
10
-280.77763900000002
20
71.369799
10
-280.533074
20
71.41037
10
-280.29853100000003
20
71.490668999999997
10
-280.08041700000001
20
71.608502000000001
10
-279.88468999999998
20
71.760650999999996
10
-279.71669500000007
20
71.942959000000002
10
-279.58102300000002
20
72.150447999999997
10
-279.48137800000001
20
72.377448000000001
10
-279.42048299999999
20
72.617761000000002
10
-279.39999999999998
20
72.864821000000006
10
-279.39999999999998
20
78.668750000000003
10
-279.381575
20
78.903403999999995
10
-279.32661999999999
20
79.132278999999997
10
-279.236538
20
79.349739999999997
10
-279.11354799999998
20
79.550432000000001
10
-278.96067799999997
20
79.729412999999994
10
-278.78169100000002
20
79.882278000000014
10
-278.58099499999997
20
80.005261000000004
10
-278.36353100000002
20
80.09533500000002
10
-278.13465500000001
20
80.150283000000002
10
-277.89999999999998
20
80.168750000000003
10
-261.85000000000002
20
80.168750000000003
10
-261.61535300000003
20
80.150233000000014
10
-261.386484
20
80.095287999999996
10
-261.16902800000003
20
80.005217000000002
10
-260.96833800000002
20
79.882237000000003
10
-260.78935799999999
20
79.729377999999997
10
-260.63649199999998
20
79.550402000000005
10
-260.51350600000001
20
79.349716999999998
10
-260.423428
20
79.132264000000006
10
-260.36847499999999
20
78.903396000000015
10
-260.35000000000002
20
78.668750000000003
10
-260.35000000000002
20
43.568750000000009
10
-260.33157500000004
20
43.334096000000002
10
-260.27661999999998
20
43.105221
10
-260.18653799999998
20
42.88776
10
-260.06354800000003
20
42.687067999999996
10
-259.91067800000002
20
42.508087000000003
10
-259.73169100000001
20
42.355221999999998
10
-259.53099500000002
20
42.232239
10
-259.31353100000001
20
42.142164999999999
10
-259.084655
20
42.08721700000001
10
-258.85000000000002
20
42.068750000000001
10
-224.28200000000004
20
42.068750000000001
10
-224.237785
20
41.552639999999997
10
-224.15442400000003
20
41.041391000000004
10
-224.0324
20
40.537969000000004
10
-223.87242000000001
20
40.045292000000003
10
-223.67541299999999
20
39.566217000000002
10
-223.44252100000003
20
39.103523000000003
10
-223.17509400000003
20
38.659892999999997
10
-222.874683
20
38.237901000000001
10
-222.54303200000004
20
37.839992000000002
10
-222.18206100000003
20
37.468474999999998
10
-221.79386700000003
20
37.125503999999999
10
-221.380698
20
36.813068000000001
10
-220.944952
20
36.532978999999997
10
-220.48915600000001
20
36.286861999999999
10
-220.015952
20
36.076143000000002
10
-219.52808500000003
20
35.902043999999997
10
-219.02838400000002
20
35.765576000000003
0
LWPOLYLINE
5
101
100
AcDbEntity
8
0
100
AcDbPolyline
90
38
70
1
43
0.0
10
-218.81699
20
122.17817500000001
10
-218.75608500000001
20
122.405477
10
-218.65663400000003
20
122.61875000000002
10
-218.52166
20
122.81151300000002
10
-218.35526300000001
20
122.97791000000001
10
-218.16249999999999
20
123.11288400000001
10
-217.94922700000001
20
123.212335
10
-217.72192500000003
20
123.27324000000002
10
-217.48750000000001
20
123.29375
10
-217.253075
20
123.27324000000002
10
-217.02577300000002
20
123.212335
10
-216.81250000000003
20
123.11288400000001
10
-216.61973700000001
20
122.97791000000001
10
-216.45334000000003
20
122.81151300000002
10
-216.318366
20
122.61875000000002
10
-216.21891500000004
20
122.405477
10
-216.15801000000002
20
122.17817500000001
10
-216.13749999999999
20
121.94375000000001
10
-216.13749999999999
20
120.94374999999999
10
-216.15801000000002
20
120.70932500000001
10
-216.21891500000004
20
120.482023
10
-216.318366
20
120.26875000000001
10
-216.45334000000003
20
120.07598700000001
10
-216.61973700000001
20
119.90959000000001
10
-216.81250000000003
20
119.77461599999999
10
-217.02577300000002
20
119.67516500000002
10
-217.253075
20
119.61426000000002
10
-217.48750000000001
20
119.59375000000001
10
-217.72192500000003
20
119.61426000000002
10
-217.94922700000001
20
119.67516500000002
10
-218.16249999999999
20
119.77461599999999
10
-218.35526300000001
20
119.90959000000001
10
-218.52166
20
120.07598700000001
10
-218.65663400000003
20
120.26875000000001
10
-218.75608500000001
20
120.482023
10
-218.81699
20
120.70932500000001
10
-218.83750000000003
20
120.94374999999999
10
-218.83750000000003
20
121.94375000000001
0
LWPOLYLINE
5
102
100
AcDbEntity
8
0
100
AcDbPolyline
90
8
70
1
43
0.0
10
-262.57499999999999
20
102.74375000000001
10
-263.57500000000005
20
101.74375000000001
10
-276.17500000000001
20
101.74375000000001
10
-277.17500000000001
20
102.74375000000001
10
-277.17500000000001
20
114.74375000000002
10
-276.17500000000001
20
115.74375000000002
10
-263.57500000000005
20
115.74375000000002
10
-262.57499999999999
20
114.74375000000002
0
LWPOLYLINE
5
103
100
AcDbEntity
8
0
100
AcDbPolyline
90
28
70
1
43
0.0
10
-260.17198300000007
20
107.96380800000001
10
-260.35000000000002
20
107.94375000000001
10
-260.52801699999998
20
107.96380800000001
10
-260.69710700000002
20
108.02297500000002
10
-260.848792
20
108.11828500000001
10
-260.97546499999999
20
108.24495800000001
10
-261.07077500000003
20
108.39664300000001
10
-261.12994200000003
20
108.56573300000001
10
-261.14999999999998
20
108.74375000000001
10
-261.12994200000003
20
108.921767
10
-261.07077500000003
20
109.090857
10
-260.97546499999999
20
109.242542
10
-260.848792
20
109.369215
10
-260.69710700000002
20
109.46452499999999
10
-260.52801699999998
20
109.523692
10
-260.35000000000002
20
109.54375
10
-260.17198300000007
20
109.523692
10
-260.00289299999997
20
109.46452499999999
10
-259.85120799999999
20
109.369215
10
-259.724535
20
109.242542
10
-259.62922500000002
20
109.090857
10
-259.57005800000002
20
108.921767
10
-259.55000000000001
20
108.74375000000001
10
-259.57005800000002
20
108.56573300000001
10
-259.62922500000002
20
108.39664300000001
10
-259.724535
20
108.24495800000001
10
-259.85120799999999
20
108.11828500000001
10
-260.00289299999997
20
108.02297500000002
0
LWPOLYLINE
5
104
100
AcDbEntity
8
0
100
AcDbPolyline
90
8
70
1
43
0.0
10
-243.52500000000003
20
102.74375000000001
10
-244.52500000000001
20
101.74375000000001
10
-257.125
20
101.74375000000001
10
-258.125
20
102.74375000000001
10
-258.125
20
114.74375000000002
10
-257.125
20
115.74375000000002
10
-244.52500000000001
20
115.74375000000002
10
-243.52500000000003
20
114.74375000000002
0
LWPOLYLINE
5
105
100
AcDbEntity
8
0
100
AcDbPolyline
90
8
70
1
43
0.0
10
-224.47500000000002
20
102.74375000000001
10
-225.47499999999999
20
101.74375000000001
10
-238.07500000000002
20
101.74375000000001
10
-239.07499999999999
20
102.74375000000001
10
-239.07499999999999
20
114.74375000000002
10
-238.07500000000002
20
115.74375000000002
10
-225.47499999999999
20
115.74375000000002
10
-224.47500000000002
20
114.74375000000002
0
LWPOLYLINE
5
106
100
AcDbEntity
8
0
100
AcDbPolyline
90
8
70
1
43
0.0
10
-195.90000000000003
20
102.74375000000001
10
-196.90000000000001
20
101.74375000000001
10
-209.50000000000003
20
101.74375000000001
10
-210.5
20
102.74375000000001
10
-210.5
20
114.74375000000002
10
-209.50000000000003
20
115.74375000000002
10
-196.90000000000001
20
115.74375000000002
10
-195.90000000000003
20
114.74375000000002
0
LWPOLYLINE
5
107
100
AcDbEntity
8
0
100
AcDbPolyline
90
28
70
1
43
0.0
10
-193.496983
20
107.96380800000001
10
-193.67500000000004
20
107.94375000000001
10
-193.85301699999999
20
107.96380800000001
10
-194.02210700000001
20
108.02297500000002
10
-194.17379199999999
20
108.11828500000001
10
-194.30046500000003
20
108.24495800000001
10
-194.39577499999999
20
108.39664300000001
10
-194.45494199999999
20
108.56573300000001
10
-194.47500000000002
20
108.74375000000001
10
-194.45494199999999
20
108.921767
10
-194.39577499999999
20
109.090857
10
-194.30046500000003
20
109.242542
10
-194.17379199999999
20
109.369215
10
-194.02210700000001
20
109.46452499999999
10
-193.85301699999999
20
109.523692
10
-193.67500000000004
20
109.54375
10
-193.496983
20
109.523692
10
-193.32789300000002
20
109.46452499999999
10
-193.176208
20
109.369215
10
-193.04953499999999
20
109.242542
10
-192.95422500000001
20
109.090857
10
-192.89505800000001
20
108.921767
10
-192.875
20
108.74375000000001
10
-192.89505800000001
20
108.56573300000001
10
-192.95422500000001
20
108.39664300000001
10
-193.04953499999999
20
108.24495800000001
10
-193.176208
20
108.11828500000001
10
-193.32789300000002
20
108.02297500000002
0
LWPOLYLINE
5
108
100
AcDbEntity
8
0
100
AcDbPolyline
90
8
70
1
43
0.0
10
-177.41925000000003
20
102.38025
10
-177.91925000000003
20
101.87325000000001
10
-190.38125000000002
20
101.87325000000001
10
-190.88125000000002
20
102.38025
10
-190.88125000000002
20
115.10725000000001
10
-190.37424999999999
20
115.61425
10
-177.92625000000001
20
115.61425
10
-177.41925000000003
20
115.10725000000001
0
LWPOLYLINE
5
109
100
AcDbEntity
8
0
100
AcDbPolyline
90
28
70
1
43
0.0
10
-263.245586
20
82.71078700000001
10
-263.375
20
82.693749999999994
10
-276.375
20
82.693749999999994
10
-276.50440099999997
20
82.710835000000017
10
-276.62498599999998
20
82.760779000000014
10
-276.72853600000002
20
82.840228999999994
10
-276.807996
20
82.943770999999998
10
-276.85795200000001
20
83.064350000000005
10
-276.875
20
83.193749999999994
10
-276.875
20
96.193749999999994
10
-276.858
20
96.323162999999994
10
-276.80803900000001
20
96.443754000000013
10
-276.72857099999999
20
96.547306000000006
10
-276.62501099999997
20
96.626764000000009
10
-276.504414
20
96.676713000000021
10
-276.375
20
96.693750000000009
10
-263.375
20
96.693750000000009
10
-263.24559900000003
20
96.676665000000014
10
-263.12501400000002
20
96.626721000000018
10
-263.02146399999998
20
96.547271000000009
10
-262.942004
20
96.443729000000005
10
-262.89204799999999
20
96.323149999999998
10
-262.875
20
96.193749999999994
10
-262.875
20
83.193749999999994
10
-262.892
20
83.064336999999995
10
-262.94196099999999
20
82.943746000000004
10
-263.02142900000001
20
82.840193999999997
10
-263.12498900000003
20
82.760736000000009
0
LWPOLYLINE
5
110
100
AcDbEntity
8
0
100
AcDbPolyline
90
8
70
1
43
0.0
10
-243.52500000000003
20
83.693749999999994
10
-244.52500000000001
20
82.693749999999994
10
-257.125
20
82.693749999999994
10
-258.125
20
83.693749999999994
10
-258.125
20
95.693749999999994
10
-257.125
20
96.693750000000009
10
-244.52500000000001
20
96.693750000000009
10
-243.52500000000003
20
95.693749999999994
0
LWPOLYLINE
5
111
100
AcDbEntity
8
0
100
AcDbPolyline
90
8
70
1
43
0.0
10
-224.47500000000002
20
83.693749999999994
10
-225.47499999999999
20
82.693749999999994
10
-238.07500000000002
20
82.693749999999994
10
-239.07499999999999
20
83.693749999999994
10
-239.07499999999999
20
95.693749999999994
10
-238.07500000000002
20
96.693750000000009
10
-225.47499999999999
20
96.693750000000009
10
-224.47500000000002
20
95.693749999999994
0
LWPOLYLINE
5
112
100
AcDbEntity
8
0
100
AcDbPolyline
90
8
70
1
43
0.0
10
-205.42500000000004
20
83.693749999999994
10
-206.42500000000001
20
82.693749999999994
10
-219.02500000000003
20
82.693749999999994
10
-220.02500000000001
20
83.693749999999994
10
-220.02500000000001
20
95.693749999999994
10
-219.02500000000003
20
96.693750000000009
10
-206.42500000000001
20
96.693750000000009
10
-205.42500000000004
20
95.693749999999994
0
LWPOLYLINE
5
113
100
AcDbEntity
8
0
100
AcDbPolyline
90
28
70
1
43
0.0
10
-203.02198300000001
20
88.913808000000003
10
-203.19999999999999
20
88.893749999999997
10
-203.378017
20
88.913808000000003
10
-203.54710700000001
20
88.972975000000005
10
-203.698792
20
89.068285000000017
10
-203.82546500000004
20
89.194958
10
-203.92077499999999
20
89.346643
10
-203.97994199999999
20
89.515732999999997
10
-204.00000000000003
20
89.693749999999994
10
-203.97994199999999
20
89.871767000000006
10
-203.92077499999999
20
90.040857000000017
10
-203.82546500000004
20
90.192542000000003
10
-203.698792
20
90.319215000000014
10
-203.54710700000001
20
90.414524999999998
10
-203.378017
20
90.473692
10
-203.19999999999999
20
90.493750000000006
10
-203.02198300000001
20
90.473692
10
-202.85289300000002
20
90.414524999999998
10
-202.70120800000001
20
90.319215000000014
10
-202.574535
20
90.192542000000003
10
-202.47922500000001
20
90.040857000000017
10
-202.42005800000001
20
89.871767000000006
10
-202.40000000000003
20
89.693749999999994
10
-202.42005800000001
20
89.515732999999997
10
-202.47922500000001
20
89.346643
10
-202.574535
20
89.194958
10
-202.70120800000001
20
89.068285000000017
10
-202.85289300000002
20
88.972975000000005
0
LWPOLYLINE
5
114
100
AcDbEntity
8
0
100
AcDbPolyline
90
8
70
1
43
0.0
10
-186.375
20
83.693749999999994
10
-187.375
20
82.693749999999994
10
-199.97500000000002
20
82.693749999999994
10
-200.97499999999999
20
83.693749999999994
10
-200.97499999999999
20
95.693749999999994
10
-199.97500000000002
20
96.693750000000009
10
-187.375
20
96.693750000000009
10
-186.375
20
95.693749999999994
0
LWPOLYLINE
5
115
100
AcDbEntity
8
0
100
AcDbPolyline
90
8
70
1
43
0.0
10
-167.32499999999999
20
83.693749999999994
10
-168.32499999999999
20
82.693749999999994
10
-180.92500000000001
20
82.693749999999994
10
-181.92500000000001
20
83.693749999999994
10
-181.92500000000001
20
95.693749999999994
10
-180.92500000000001
20
96.693750000000009
10
-168.32499999999999
20
96.693750000000009
10
-167.32499999999999
20
95.693749999999994
0
LWPOLYLINE
5
116
100
AcDbEntity
8
0
100
AcDbPolyline
90
28
70
1
43
0.0
10
-164.92198300000001
20
88.913808000000003
10
-165.10000000000002
20
88.893749999999997
10
-165.27801700000001
20
88.913808000000003
10
-165.44710699999999
20
88.972975000000005
10
-165.598792
20
89.068285000000017
10
-165.72546500000001
20
89.194958
10
-165.820775
20
89.346643
10
-165.879942
20
89.515732999999997
10
-165.90000000000001
20
89.693749999999994
10
-165.879942
20
89.871767000000006
10
-165.820775
20
90.040857000000017
10
-165.72546500000001
20
90.192542000000003
10
-165.598792
20
90.319215000000014
10
-165.44710699999999
20
90.414524999999998
10
-165.27801700000001
20
90.473692
10
-165.10000000000002
20
90.493750000000006
10
-164.92198300000001
20
90.473692
10
-164.752893
20
90.414524999999998
10
-164.60120800000001
20
90.319215000000014
10
-164.474535
20
90.192542000000003
10
-164.37922499999999
20
90.040857000000017
10
-164.32005799999999
20
89.871767000000006
10
-164.30000000000004
20
89.693749999999994
10
-164.32005799999999
20
89.515732999999997
10
-164.37922499999999
20
89.346643
10
-164.474535
20
89.194958
10
-164.60120800000001
20
89.068285000000017
10
-164.752893
20
88.972975000000005
0
LWPOLYLINE
5
117
100
AcDbEntity
8
0
100
AcDbPolyline
90
8
70
1
43
0.0
10
-148.27500000000001
20
83.693749999999994
10
-149.27500000000003
20
82.693749999999994
10
-161.875
20
82.693749999999994
10
-162.875
20
83.693749999999994
10
-162.875
20
95.693749999999994
10
-161.875
20
96.693750000000009
10
-149.27500000000003
20
96.693750000000009
10
-148.27500000000001
20
95.693749999999994
0
LWPOLYLINE
5
118
100
AcDbEntity
8
0
100
AcDbPolyline
90
38
70
1
43
0.0
10
-85.466989000000012
20
122.17817500000001
10
-85.406084000000021
20
122.405477
10
-85.306633000000005
20
122.61875000000002
10
-85.171659000000005
20
122.81151300000002
10
-85.005262000000016
20
122.97791000000001
10
-84.812499000000003
20
123.11288400000001
10
-84.599226000000002
20
123.212335
10
-84.371924000000007
20
123.27324000000002
10
-84.137499000000005
20
123.29375
10
-83.903074000000004
20
123.27324000000002
10
-83.675771999999995
20
123.212335
10
-83.462499000000008
20
123.11288400000001
10
-83.269736000000009
20
122.97791000000001
10
-83.10333900000002
20
122.81151300000002
10
-82.968365000000006
20
122.61875000000002
10
-82.868914000000004
20
122.405477
10
-82.808009000000013
20
122.17817500000001
10
-82.787498999999997
20
121.94375000000001
10
-82.787498999999997
20
120.94374999999999
10
-82.808009000000013
20
120.70932500000001
10
-82.868914000000004
20
120.482023
10
-82.968365000000006
20
120.26875000000001
10
-83.10333900000002
20
120.07598700000001
10
-83.269736000000009
20
119.90959000000001
10
-83.462499000000008
20
119.77461599999999
10
-83.675771999999995
20
119.67516500000002
10
-83.903074000000004
20
119.61426000000002
10
-84.137499000000005
20
119.59375000000001
10
-84.371924000000007
20
119.61426000000002
10
-84.599226000000002
20
119.67516500000002
10
-84.812499000000003
20
119.77461599999999
10
-85.005262000000016
20
119.90959000000001
10
-85.171659000000005
20
120.07598700000001
10
-85.306633000000005
20
120.26875000000001
10
-85.406084000000021
20
120.482023
10
-85.466989000000012
20
120.70932500000001
10
-85.487499000000014
20
120.94374999999999
10
-85.487499000000014
20
121.94375000000001
0
LWPOLYLINE
5
119
100
AcDbEntity
8
0
100
AcDbPolyline
90
8
70
1
43
0.0
10
-126.84375000000001
20
102.74375000000001
10
-127.84375
20
101.74375000000001
10
-140.44374999999999
20
101.74375000000001
10
-141.44374999999999
20
102.74375000000001
10
-141.44374999999999
20
114.74375000000002
10
-140.44374999999999
20
115.74375000000002
10
-127.84375
20
115.74375000000002
10
-126.84375000000001
20
114.74375000000002
0
LWPOLYLINE
5
120
100
AcDbEntity
8
0
100
AcDbPolyline
90
28
70
1
43
0.0
10
-95.865733000000006
20
107.96380800000001
10
-96.043750000000017
20
107.94375000000001
10
-96.221767
20
107.96380800000001
10
-96.390857000000011
20
108.02297500000002
10
-96.542541999999997
20
108.11828500000001
10
-96.669215000000008
20
108.24495800000001
10
-96.76452500000002
20
108.39664300000001
10
-96.823691999999994
20
108.56573300000001
10
-96.843750000000014
20
108.74375000000001
10
-96.823691999999994
20
108.921767
10
-96.76452500000002
20
109.090857
10
-96.669215000000008
20
109.242542
10
-96.542541999999997
20
109.369215
10
-96.390857000000011
20
109.46452499999999
10
-96.221767
20
109.523692
10
-96.043750000000017
20
109.54375
10
-95.865733000000006
20
109.523692
10
-95.696642999999995
20
109.46452499999999
10
-95.544957999999994
20
109.369215
10
-95.418284999999997
20
109.242542
10
-95.322975
20
109.090857
10
-95.263807999999997
20
108.921767
10
-95.243750000000006
20
108.74375000000001
10
-95.263807999999997
20
108.56573300000001
10
-95.322975
20
108.39664300000001
10
-95.418284999999997
20
108.24495800000001
10
-95.544957999999994
20
108.11828500000001
10
-95.696642999999995
20
108.02297500000002
0
LWPOLYLINE
5
121
100
AcDbEntity
8
0
100
AcDbPolyline
90
8
70
1
43
0.0
10
-77.40625
20
102.38025
10
-77.913250000000005
20
101.87325000000001
10
-90.361249999999998
20
101.87325000000001
10
-90.868250000000018
20
102.38025
10
-90.868250000000018
20
115.10725000000001
10
-90.361249999999998
20
115.61425
10
-77.913250000000005
20
115.61425
10
-77.40625
20
115.10725000000001
0
LWPOLYLINE
5
122
100
AcDbEntity
8
0
100
AcDbPolyline
90
28
70
1
43
0.0
10
-74.434483
20
107.96380800000001
10
-74.612499999999997
20
107.94375000000001
10
-74.790516999999994
20
107.96380800000001
10
-74.959607000000005
20
108.02297500000002
10
-75.111292000000006
20
108.11828500000001
10
-75.237965000000003
20
108.24495800000001
10
-75.333275
20
108.39664300000001
10
-75.392442000000003
20
108.56573300000001
10
-75.412499999999994
20
108.74375000000001
10
-75.392442000000003
20
108.921767
10
-75.333275
20
109.090857
10
-75.237965000000003
20
109.242542
10
-75.111292000000006
20
109.369215
10
-74.959607000000005
20
109.46452499999999
10
-74.790516999999994
20
109.523692
10
-74.612499999999997
20
109.54375
10
-74.434483
20
109.523692
10
-74.265393000000003
20
109.46452499999999
10
-74.113708000000003
20
109.369215
10
-73.987035000000006
20
109.242542
10
-73.891724999999994
20
109.090857
10
-73.832558000000006
20
108.921767
10
-73.8125
20
108.74375000000001
10
-73.832558000000006
20
108.56573300000001
10
-73.891724999999994
20
108.39664300000001
10
-73.987035000000006
20
108.24495800000001
10
-74.113708000000003
20
108.11828500000001
10
-74.265393000000003
20
108.02297500000002
0
LWPOLYLINE
5
123
100
AcDbEntity
8
0
100
AcDbPolyline
90
8
70
1
43
0.0
10
-57.787500000000009
20
102.74375000000001
10
-58.787500000000001
20
101.74375000000001
10
-71.387500000000003
20
101.74375000000001
10
-72.387500000000003
20
102.74375000000001
10
-72.387500000000003
20
114.74375000000002
10
-71.387500000000003
20
115.74375000000002
10
-58.787500000000001
20
115.74375000000002
10
-57.787500000000009
20
114.74375000000002
0
LWPOLYLINE
5
124
100
AcDbEntity
8
0
100
AcDbPolyline
90
8
70
1
43
0.0
10
-38.737499999999997
20
102.74375000000001
10
-39.737499999999997
20
101.74375000000001
10
-52.337500000000006
20
101.74375000000001
10
-53.337500000000006
20
102.74375000000001
10
-53.337500000000006
20
114.74375000000002
10
-52.337500000000006
20
115.74375000000002
10
-39.737499999999997
20
115.74375000000002
10
-38.737499999999997
20
114.74375000000002
0
LWPOLYLINE
5
125
100
AcDbEntity
8
0
100
AcDbPolyline
90
28
70
1
43
0.0
10
-36.334482999999999
20
107.96380800000001
10
-36.512500000000003
20
107.94375000000001
10
-36.690517
20
107.96380800000001
10
-36.859606999999997
20
108.02297500000002
10
-37.011291999999997
20
108.11828500000001
10
-37.137965000000001
20
108.24495800000001
10
-37.233274999999999
20
108.39664300000001
10
-37.292442000000001
20
108.56573300000001
10
-37.3125
20
108.74375000000001
10
-37.292442000000001
20
108.921767
10
-37.233274999999999
20
109.090857
10
-37.137965000000001
20
109.242542
10
-37.011291999999997
20
109.369215
10
-36.859606999999997
20
109.46452499999999
10
-36.690517
20
109.523692
10
-36.512500000000003
20
109.54375
10
-36.334482999999999
20
109.523692
10
-36.165393000000002
20
109.46452499999999
10
-36.013708000000001
20
109.369215
10
-35.887034999999997
20
109.242542
10
-35.791725
20
109.090857
10
-35.732557999999997
20
108.921767
10
-35.712499999999999
20
108.74375000000001
10
-35.732557999999997
20
108.56573300000001
10
-35.791725
20
108.39664300000001
10
-35.887034999999997
20
108.24495800000001
10
-36.013708000000001
20
108.11828500000001
10
-36.165393000000002
20
108.02297500000002
0
LWPOLYLINE
5
126
100
AcDbEntity
8
0
100
AcDbPolyline
90
8
70
1
43
0.0
10
-19.6875
20
102.74375000000001
10
-20.6875
20
101.74375000000001
10
-33.287500000000001
20
101.74375000000001
10
-34.287500000000001
20
102.74375000000001
10
-34.287500000000001
20
114.74375000000002
10
-33.287500000000001
20
115.74375000000002
10
-20.6875
20
115.74375000000002
10
-19.6875
20
114.74375000000002
0
LWPOLYLINE
5
127
100
AcDbEntity
8
0
100
AcDbPolyline
90
8
70
1
43
0.0
10
-129.22499999999999
20
83.693749999999994
10
-130.22500000000002
20
82.693749999999994
10
-142.82499999999999
20
82.693749999999994
10
-143.82499999999999
20
83.693749999999994
10
-143.82499999999999
20
95.693749999999994
10
-142.82499999999999
20
96.693750000000009
10
-130.22500000000002
20
96.693750000000009
10
-129.22499999999999
20
95.693749999999994
0
LWPOLYLINE
5
128
100
AcDbEntity
8
0
100
AcDbPolyline
90
28
70
1
43
0.0
10
-126.82198300000002
20
88.913808000000003
10
-127.00000000000001
20
88.893749999999997
10
-127.17801700000001
20
88.913808000000003
10
-127.34710700000001
20
88.972975000000005
10
-127.49879200000001
20
89.068285000000017
10
-127.62546500000001
20
89.194958
10
-127.72077500000002
20
89.346643
10
-127.77994200000002
20
89.515732999999997
10
-127.80000000000001
20
89.693749999999994
10
-127.77994200000002
20
89.871767000000006
10
-127.72077500000002
20
90.040857000000017
10
-127.62546500000001
20
90.192542000000003
10
-127.49879200000001
20
90.319215000000014
10
-127.34710700000001
20
90.414524999999998
10
-127.17801700000001
20
90.473692
10
-127.00000000000001
20
90.493750000000006
10
-126.82198300000002
20
90.473692
10
-126.65289300000001
20
90.414524999999998
10
-126.50120800000002
20
90.319215000000014
10
-126.37453499999999
20
90.192542000000003
10
-126.279225
20
90.040857000000017
10
-126.22005799999999
20
89.871767000000006
10
-126.20000000000002
20
89.693749999999994
10
-126.22005799999999
20
89.515732999999997
10
-126.279225
20
89.346643
10
-126.37453499999999
20
89.194958
10
-126.50120800000002
20
89.068285000000017
10
-126.65289300000001
20
88.972975000000005
0
LWPOLYLINE
5
129
100
AcDbEntity
8
0
100
AcDbPolyline
90
8
70
1
43
0.0
10
-110.175
20
83.693749999999994
10
-111.175
20
82.693749999999994
10
-123.77500000000001
20
82.693749999999994
10
-124.77500000000001
20
83.693749999999994
10
-124.77500000000001
20
95.693749999999994
10
-123.77500000000001
20
96.693750000000009
10
-111.175
20
96.693750000000009
10
-110.175
20
95.693749999999994
0
LWPOLYLINE
5
130
100
AcDbEntity
8
0
100
AcDbPolyline
90
8
70
1
43
0.0
10
-91.125
20
83.693749999999994
10
-92.125
20
82.693749999999994
10
-104.72499999999999
20
82.693749999999994
10
-105.72499999999999
20
83.693749999999994
10
-105.72499999999999
20
95.693749999999994
10
-104.72499999999999
20
96.693750000000009
10
-92.125
20
96.693750000000009
10
-91.125
20
95.693749999999994
0
LWPOLYLINE
5
131
100
AcDbEntity
8
0
100
AcDbPolyline
90
28
70
1
43
0.0
10
-88.721982999999994
20
88.913808000000003
10
-88.900000000000006
20
88.893749999999997
10
-89.078017000000003
20
88.913808000000003
10
-89.247107
20
88.972975000000005
10
-89.398792
20
89.068285000000017
10
-89.525464999999997
20
89.194958
10
-89.620774999999995
20
89.346643
10
-89.679941999999997
20
89.515732999999997
10
-89.700000000000003
20
89.693749999999994
10
-89.679941999999997
20
89.871767000000006
10
-89.620774999999995
20
90.040857000000017
10
-89.525464999999997
20
90.192542000000003
10
-89.398792
20
90.319215000000014
10
-89.247107
20
90.414524999999998
10
-89.078017000000003
20
90.473692
10
-88.900000000000006
20
90.493750000000006
10
-88.721982999999994
20
90.473692
10
-88.552893000000012
20
90.414524999999998
10
-88.401207999999997
20
90.319215000000014
10
-88.274535000000014
20
90.192542000000003
10
-88.179225000000002
20
90.040857000000017
10
-88.120058
20
89.871767000000006
10
-88.100000000000009
20
89.693749999999994
10
-88.120058
20
89.515732999999997
10
-88.179225000000002
20
89.346643
10
-88.274535000000014
20
89.194958
10
-88.401207999999997
20
89.068285000000017
10
-88.552893000000012
20
88.972975000000005
0
LWPOLYLINE
5
132
100
AcDbEntity
8
0
100
AcDbPolyline
90
8
70
1
43
0.0
10
-72.075000000000003
20
83.693749999999994
10
-73.075000000000017
20
82.693749999999994
10
-85.675000000000011
20
82.693749999999994
10
-86.675000000000011
20
83.693749999999994
10
-86.675000000000011
20
95.693749999999994
10
-85.675000000000011
20
96.693750000000009
10
-73.075000000000017
20
96.693750000000009
10
-72.075000000000003
20
95.693749999999994
0
LWPOLYLINE
5
133
100
AcDbEntity
8
0
100
AcDbPolyline
90
8
70
1
43
0.0
10
-53.025000000000006
20
83.693749999999994
10
-54.024999999999999
20
82.693749999999994
10
-66.625
20
82.693749999999994
10
-67.625
20
83.693749999999994
10
-67.625
20
95.693749999999994
10
-66.625
20
96.693750000000009
10
-54.024999999999999
20
96.693750000000009
10
-53.025000000000006
20
95.693749999999994
0
LWPOLYLINE
5
134
100
AcDbEntity
8
0
100
AcDbPolyline
90
28
70
1
43
0.0
10
-43.47823300000001
20
88.913808000000003
10
-43.656250000000007
20
88.893749999999997
10
-43.834267000000004
20
88.913808000000003
10
-44.003357000000001
20
88.972975000000005
10
-44.155042000000002
20
89.068285000000017
10
-44.281715000000005
20
89.194958
10
-44.377025000000003
20
89.346643
10
-44.436191999999998
20
89.515732999999997
10
-44.456249999999997
20
89.693749999999994
10
-44.436191999999998
20
89.871767000000006
10
-44.377025000000003
20
90.040857000000017
10
-44.281715000000005
20
90.192542000000003
10
-44.155042000000002
20
90.319215000000014
10
-44.003357000000001
20
90.414524999999998
10
-43.834267000000004
20
90.473692
10
-43.656250000000007
20
90.493750000000006
10
-43.47823300000001
20
90.473692
10
-43.309142999999999
20
90.414524999999998
10
-43.157458000000005
20
90.319215000000014
10
-43.030785000000009
20
90.192542000000003
10
-42.935474999999997
20
90.040857000000017
10
-42.876308000000009
20
89.871767000000006
10
-42.856250000000003
20
89.693749999999994
10
-42.876308000000009
20
89.515732999999997
10
-42.935474999999997
20
89.346643
10
-43.030785000000009
20
89.194958
10
-43.157458000000005
20
89.068285000000017
10
-43.309142999999999
20
88.972975000000005
0
LWPOLYLINE
5
135
100
AcDbEntity
8
0
100
AcDbPolyline
90
8
70
1
43
0.0
10
-26.831250000000004
20
83.693749999999994
10
-27.831250000000001
20
82.693749999999994
10
-40.431249999999999
20
82.693749999999994
10
-41.431250000000006
20
83.693749999999994
10
-41.431250000000006
20
95.693749999999994
10
-40.431249999999999
20
96.693750000000009
10
-27.831250000000001
20
96.693750000000009
10
-26.831250000000004
20
95.693749999999994
0
LWPOLYLINE
5
136
100
AcDbEntity
8
0
100
AcDbPolyline
90
38
70
1
43
0.0
10
-284.46567399999998
20
78.839258999999998
10
-284.69297599999999
20
78.900164000000004
10
-284.906249
20
78.999615000000006
10
-285.09901200000002
20
79.134589000000005
10
-285.26540899999998
20
79.300985999999995
10
-285.40038299999998
20
79.493748999999994
10
-285.49983400000002
20
79.707021999999995
10
-285.56073900000001
20
79.934324000000004
10
-285.58124900000001
20
80.16874900000002
10
-285.56073900000001
20
80.403174000000007
10
-285.49983400000002
20
80.630476000000016
10
-285.40038299999998
20
80.843749000000003
10
-285.26540899999998
20
81.036512000000002
10
-285.09901200000002
20
81.202909000000005
10
-284.906249
20
81.337883000000005
10
-284.69297599999999
20
81.437334000000007
10
-284.46567399999998
20
81.498238999999998
10
-284.23124899999999
20
81.518749000000014
10
-283.23124899999999
20
81.518749000000014
10
-282.996824
20
81.498238999999998
10
-282.76952199999999
20
81.437334000000007
10
-282.55624899999998
20
81.337883000000005
10
-282.36348600000002
20
81.202909000000005
10
-282.19708900000001
20
81.036512000000002
10
-282.06211500000001
20
80.843749000000003
10
-281.96266400000002
20
80.630476000000016
10
-281.90175900000003
20
80.403174000000007
10
-281.88124900000003
20
80.16874900000002
10
-281.90175900000003
20
79.934324000000004
10
-281.96266400000002
20
79.707021999999995
10
-282.06211500000001
20
79.493748999999994
10
-282.19708900000001
20
79.300985999999995
10
-282.36348600000002
20
79.134589000000005
10
-282.55624899999998
20
78.999615000000006
10
-282.76952199999999
20
78.900164000000004
10
-282.996824
20
78.839258999999998
10
-283.23124899999999
20
78.818748999999997
10
-284.23124899999999
20
78.818748999999997
0
LWPOLYLINE
5
137
100
AcDbEntity
8
0
100
AcDbPolyline
90
28
70
1
43
0.0
10
-257.79073299999999
20
69.863808000000006
10
-257.96875
20
69.84375
10
-258.14676700000001
20
69.863808000000006
10
-258.31585699999999
20
69.922974999999994
10
-258.46754199999998
20
70.018285000000006
10
-258.59421500000002
20
70.144958000000003
10
-258.689525
20
70.296643000000003
10
-258.74869200000001
20
70.465733
10
-258.76875000000001
20
70.643749999999997
10
-258.74869200000001
20
70.821766999999994
10
-258.689525
20
70.990857000000005
10
-258.59421500000002
20
71.14254200000002
10
-258.46754199999998
20
71.269215000000003
10
-258.31585699999999
20
71.364525000000015
10
-258.14676700000001
20
71.423692000000017
10
-257.96875
20
71.443749999999994
10
-257.79073299999999
20
71.423692000000017
10
-257.62164300000001
20
71.364525000000015
10
-257.46995800000002
20
71.269215000000003
10
-257.34328499999998
20
71.14254200000002
10
-257.247975
20
70.990857000000005
10
-257.18880799999999
20
70.821766999999994
10
-257.16875000000005
20
70.643749999999997
10
-257.18880799999999
20
70.465733
10
-257.247975
20
70.296643000000003
10
-257.34328499999998
20
70.144958000000003
10
-257.46995800000002
20
70.018285000000006
10
-257.62164300000001
20
69.922974999999994
0
LWPOLYLINE
5
138
100
AcDbEntity
8
0
100
AcDbPolyline
90
8
70
1
43
0.0
10
-238.76249999999999
20
64.643750000000011
10
-239.76249999999999
20
63.643749999999997
10
-252.36250000000001
20
63.643749999999997
10
-253.36250000000004
20
64.643750000000011
10
-253.36250000000004
20
76.643749999999997
10
-252.36250000000001
20
77.643749999999997
10
-239.76249999999999
20
77.643749999999997
10
-238.76249999999999
20
76.643749999999997
0
LWPOLYLINE
5
139
100
AcDbEntity
8
0
100
AcDbPolyline
90
8
70
1
43
0.0
10
-214.95000000000002
20
64.643750000000011
10
-215.94999999999999
20
63.643749999999997
10
-228.55000000000004
20
63.643749999999997
10
-229.55000000000001
20
64.643750000000011
10
-229.55000000000001
20
76.643749999999997
10
-228.55000000000004
20
77.643749999999997
10
-215.94999999999999
20
77.643749999999997
10
-214.95000000000002
20
76.643749999999997
0
LWPOLYLINE
5
140
100
AcDbEntity
8
0
100
AcDbPolyline
90
28
70
1
43
0.0
10
-212.54698300000001
20
69.863808000000006
10
-212.72500000000002
20
69.84375
10
-212.90301700000001
20
69.863808000000006
10
-213.07210699999999
20
69.922974999999994
10
-213.223792
20
70.018285000000006
10
-213.35046500000004
20
70.144958000000003
10
-213.445775
20
70.296643000000003
10
-213.504942
20
70.465733
10
-213.52500000000003
20
70.643749999999997
10
-213.504942
20
70.821766999999994
10
-213.445775
20
70.990857000000005
10
-213.35046500000004
20
71.14254200000002
10
-213.223792
20
71.269215000000003
10
-213.07210699999999
20
71.364525000000015
10
-212.90301700000001
20
71.423692000000017
10
-212.72500000000002
20
71.443749999999994
10
-212.54698300000001
20
71.423692000000017
10
-212.37789300000003
20
71.364525000000015
10
-212.22620800000001
20
71.269215000000003
10
-212.099535
20
71.14254200000002
10
-212.00422500000002
20
70.990857000000005
10
-211.94505800000002
20
70.821766999999994
10
-211.92500000000001
20
70.643749999999997
10
-211.94505800000002
20
70.465733
10
-212.00422500000002
20
70.296643000000003
10
-212.099535
20
70.144958000000003
10
-212.22620800000001
20
70.018285000000006
10
-212.37789300000003
20
69.922974999999994
0
LWPOLYLINE
5
141
100
AcDbEntity
8
0
100
AcDbPolyline
90
8
70
1
43
0.0
10
-195.90000000000003
20
64.643750000000011
10
-196.90000000000001
20
63.643749999999997
10
-209.50000000000003
20
63.643749999999997
10
-210.5
20
64.643750000000011
10
-210.5
20
76.643749999999997
10
-209.50000000000003
20
77.643749999999997
10
-196.90000000000001
20
77.643749999999997
10
-195.90000000000003
20
76.643749999999997
0
LWPOLYLINE
5
142
100
AcDbEntity
8
0
100
AcDbPolyline
90
8
70
1
43
0.0
10
-176.84999999999999
20
64.643750000000011
10
-177.84999999999999
20
63.643749999999997
10
-190.44999999999999
20
63.643749999999997
10
-191.44999999999999
20
64.643750000000011
10
-191.44999999999999
20
76.643749999999997
10
-190.44999999999999
20
77.643749999999997
10
-177.84999999999999
20
77.643749999999997
10
-176.84999999999999
20
76.643749999999997
0
LWPOLYLINE
5
143
100
AcDbEntity
8
0
100
AcDbPolyline
90
28
70
1
43
0.0
10
-174.44698299999999
20
69.863808000000006
10
-174.62500000000003
20
69.84375
10
-174.80301700000001
20
69.863808000000006
10
-174.97210699999999
20
69.922974999999994
10
-175.12379200000001
20
70.018285000000006
10
-175.25046499999999
20
70.144958000000003
10
-175.345775
20
70.296643000000003
10
-175.40494200000001
20
70.465733
10
-175.42500000000001
20
70.643749999999997
10
-175.40494200000001
20
70.821766999999994
10
-175.345775
20
70.990857000000005
10
-175.25046499999999
20
71.14254200000002
10
-175.12379200000001
20
71.269215000000003
10
-174.97210699999999
20
71.364525000000015
10
-174.80301700000001
20
71.423692000000017
10
-174.62500000000003
20
71.443749999999994
10
-174.44698299999999
20
71.423692000000017
10
-174.27789300000001
20
71.364525000000015
10
-174.12620799999999
20
71.269215000000003
10
-173.99953500000004
20
71.14254200000002
10
-173.904225
20
70.990857000000005
10
-173.84505799999999
20
70.821766999999994
10
-173.82499999999999
20
70.643749999999997
10
-173.84505799999999
20
70.465733
10
-173.904225
20
70.296643000000003
10
-173.99953500000004
20
70.144958000000003
10
-174.12620799999999
20
70.018285000000006
10
-174.27789300000001
20
69.922974999999994
0
LWPOLYLINE
5
144
100
AcDbEntity
8
0
100
AcDbPolyline
90
8
70
1
43
0.0
10
-157.80000000000001
20
64.643750000000011
10
-158.80000000000001
20
63.643749999999997
10
-171.40000000000001
20
63.643749999999997
10
-172.40000000000003
20
64.643750000000011
10
-172.40000000000003
20
76.643749999999997
10
-171.40000000000001
20
77.643749999999997
10
-158.80000000000001
20
77.643749999999997
10
-157.80000000000001
20
76.643749999999997
0
LWPOLYLINE
5
145
100
AcDbEntity
8
0
100
AcDbPolyline
90
28
70
1
43
0.0
10
-253.028233
20
50.813808000000009
10
-253.20625000000004
20
50.793750000000003
10
-253.38426699999999
20
50.813808000000009
10
-253.55335700000001
20
50.872974999999997
10
-253.70504199999999
20
50.968285000000009
10
-253.83171500000003
20
51.094958000000005
10
-253.92702499999999
20
51.246642999999999
10
-253.98619199999999
20
51.41573300000001
10
-254.00625000000002
20
51.593750000000007
10
-253.98619199999999
20
51.771767000000004
10
-253.92702499999999
20
51.940857000000008
10
-253.83171500000003
20
52.092542000000002
10
-253.70504199999999
20
52.219215000000005
10
-253.55335700000001
20
52.314525000000003
10
-253.38426699999999
20
52.373691999999998
10
-253.20625000000004
20
52.393749999999997
10
-253.028233
20
52.373691999999998
10
-252.85914300000002
20
52.314525000000003
10
-252.707458
20
52.219215000000005
10
-252.58078499999999
20
52.092542000000002
10
-252.48547500000001
20
51.940857000000008
10
-252.42630800000001
20
51.771767000000004
10
-252.40625
20
51.593750000000007
10
-252.42630800000001
20
51.41573300000001
10
-252.48547500000001
20
51.246642999999999
10
-252.58078499999999
20
51.094958000000005
10
-252.707458
20
50.968285000000009
10
-252.85914300000002
20
50.872974999999997
0
LWPOLYLINE
5
146
100
AcDbEntity
8
0
100
AcDbPolyline
90
8
70
1
43
0.0
10
-236.38125000000002
20
45.59375
10
-237.38124999999999
20
44.593750000000007
10
-249.98125000000002
20
44.593750000000007
10
-250.98124999999999
20
45.59375
10
-250.98124999999999
20
57.59375
10
-249.98125000000002
20
58.59375
10
-237.38124999999999
20
58.59375
10
-236.38125000000002
20
57.59375
0
LWPOLYLINE
5
147
100
AcDbEntity
8
0
100
AcDbPolyline
90
4
70
1
43
0.0
10
-229.18547799999999
20
54.665906
10
-229.18547799999999
20
48.521594000000007
10
-232.77702199999999
20
48.521594000000007
10
-232.77702199999999
20
54.665906
0
LWPOLYLINE
5
148
100
AcDbEntity
8
0
100
AcDbPolyline
90
8
70
1
43
0.0
10
-210.1875
20
45.59375
10
-211.18750000000003
20
44.593750000000007
10
-223.78749999999999
20
44.593750000000007
10
-224.78750000000002
20
45.59375
10
-224.78750000000002
20
57.59375
10
-223.78749999999999
20
58.59375
10
-211.18750000000003
20
58.59375
10
-210.1875
20
57.59375
0
LWPOLYLINE
5
149
100
AcDbEntity
8
0
100
AcDbPolyline
90
38
70
1
43
0.0
10
-218.81699
20
39.628176000000003
10
-218.75608500000001
20
39.855477999999998
10
-218.65663400000003
20
40.068751000000006
10
-218.52166
20
40.261513999999998
10
-218.35526300000001
20
40.427911000000009
10
-218.16249999999999
20
40.562885000000001
10
-217.94922700000001
20
40.662336000000003
10
-217.72192500000003
20
40.723241000000002
10
-217.48750000000001
20
40.743751000000003
10
-217.253075
20
40.723241000000002
10
-217.02577300000002
20
40.662336000000003
10
-216.81250000000003
20
40.562885000000001
10
-216.61973700000001
20
40.427911000000009
10
-216.45334000000003
20
40.261513999999998
10
-216.318366
20
40.068751000000006
10
-216.21891500000004
20
39.855477999999998
10
-216.15801000000002
20
39.628176000000003
10
-216.13749999999999
20
39.393751000000002
10
-216.13749999999999
20
38.393751000000002
10
-216.15801000000002
20
38.159326
10
-216.21891500000004
20
37.932023999999998
10
-216.318366
20
37.718750999999997
10
-216.45334000000003
20
37.525987999999998
10
-216.61973700000001
20
37.359591000000009
10
-216.81250000000003
20
37.224617000000002
10
-217.02577300000002
20
37.125166
10
-217.253075
20
37.064261000000002
10
-217.48750000000001
20
37.043751
10
-217.72192500000003
20
37.064261000000002
10
-217.94922700000001
20
37.125166
10
-218.16249999999999
20
37.224617000000002
10
-218.35526300000001
20
37.359591000000009
10
-218.52166
20
37.525987999999998
10
-218.65663400000003
20
37.718750999999997
10
-218.75608500000001
20
37.932023999999998
10
-218.81699
20
38.159326
10
-218.83750000000003
20
38.393751000000002
10
-218.83750000000003
20
39.393751000000002
0
LWPOLYLINE
5
150
100
AcDbEntity
8
0
100
AcDbPolyline
90
28
70
1
43
0.0
10
-207.78448300000002
20
50.813808000000009
10
-207.96250000000001
20
50.793750000000003
10
-208.14051699999999
20
50.813808000000009
10
-208.30960700000003
20
50.872974999999997
10
-208.46129200000001
20
50.968285000000009
10
-208.587965
20
51.094958000000005
10
-208.68327500000004
20
51.246642999999999
10
-208.74244200000004
20
51.41573300000001
10
-208.76249999999999
20
51.593750000000007
10
-208.74244200000004
20
51.771767000000004
10
-208.68327500000004
20
51.940857000000008
10
-208.587965
20
52.092542000000002
10
-208.46129200000001
20
52.219215000000005
10
-208.30960700000003
20
52.314525000000003
10
-208.14051699999999
20
52.373691999999998
10
-207.96250000000001
20
52.393749999999997
10
-207.78448300000002
20
52.373691999999998
10
-207.61539300000004
20
52.314525000000003
10
-207.463708
20
52.219215000000005
10
-207.33703500000001
20
52.092542000000002
10
-207.24172500000003
20
51.940857000000008
10
-207.18255800000003
20
51.771767000000004
10
-207.16250000000002
20
51.593750000000007
10
-207.18255800000003
20
51.41573300000001
10
-207.24172500000003
20
51.246642999999999
10
-207.33703500000001
20
51.094958000000005
10
-207.463708
20
50.968285000000009
10
-207.61539300000004
20
50.872974999999997
0
LWPOLYLINE
5
151
100
AcDbEntity
8
0
100
AcDbPolyline
90
8
70
1
43
0.0
10
-191.13749999999999
20
45.59375
10
-192.13750000000002
20
44.593750000000007
10
-204.73750000000001
20
44.593750000000007
10
-205.73750000000004
20
45.59375
10
-205.73750000000004
20
57.59375
10
-204.73750000000001
20
58.59375
10
-192.13750000000002
20
58.59375
10
-191.13749999999999
20
57.59375
0
LWPOLYLINE
5
152
100
AcDbEntity
8
0
100
AcDbPolyline
90
8
70
1
43
0.0
10
-172.08750000000003
20
45.59375
10
-173.08750000000001
20
44.593750000000007
10
-185.6875
20
44.593750000000007
10
-186.6875
20
45.59375
10
-186.6875
20
57.59375
10
-185.6875
20
58.59375
10
-173.08750000000001
20
58.59375
10
-172.08750000000003
20
57.59375
0
LWPOLYLINE
5
153
100
AcDbEntity
8
0
100
AcDbPolyline
90
28
70
1
43
0.0
10
-169.68448300000003
20
50.813808000000009
10
-169.86250000000001
20
50.793750000000003
10
-170.04051700000002
20
50.813808000000009
10
-170.20960700000001
20
50.872974999999997
10
-170.36129200000002
20
50.968285000000009
10
-170.48796500000003
20
51.094958000000005
10
-170.58327500000001
20
51.246642999999999
10
-170.64244200000002
20
51.41573300000001
10
-170.66249999999999
20
51.593750000000007
10
-170.64244200000002
20
51.771767000000004
10
-170.58327500000001
20
51.940857000000008
10
-170.48796500000003
20
52.092542000000002
10
-170.36129200000002
20
52.219215000000005
10
-170.20960700000001
20
52.314525000000003
10
-170.04051700000002
20
52.373691999999998
10
-169.86250000000001
20
52.393749999999997
10
-169.68448300000003
20
52.373691999999998
10
-169.51539300000002
20
52.314525000000003
10
-169.36370800000003
20
52.219215000000005
10
-169.23703499999999
20
52.092542000000002
10
-169.14172500000004
20
51.940857000000008
10
-169.08255800000003
20
51.771767000000004
10
-169.0625
20
51.593750000000007
10
-169.08255800000003
20
51.41573300000001
10
-169.14172500000004
20
51.246642999999999
10
-169.23703499999999
20
51.094958000000005
10
-169.36370800000003
20
50.968285000000009
10
-169.51539300000002
20
50.872974999999997
0
LWPOLYLINE
5
154
100
AcDbEntity
8
0
100
AcDbPolyline
90
8
70
1
43
0.0
10
-153.03750000000002
20
45.59375
10
-154.03749999999999
20
44.593750000000007
10
-166.63749999999999
20
44.593750000000007
10
-167.63749999999999
20
45.59375
10
-167.63749999999999
20
57.59375
10
-166.63749999999999
20
58.59375
10
-154.03749999999999
20
58.59375
10
-153.03750000000002
20
57.59375
0
LWPOLYLINE
5
155
100
AcDbEntity
8
0
100
AcDbPolyline
90
8
70
1
43
0.0
10
-138.75
20
64.643750000000011
10
-139.75
20
63.643749999999997
10
-152.34999999999999
20
63.643749999999997
10
-153.35000000000002
20
64.643750000000011
10
-153.35000000000002
20
76.643749999999997
10
-152.34999999999999
20
77.643749999999997
10
-139.75
20
77.643749999999997
10
-138.75
20
76.643749999999997
0
LWPOLYLINE
5
156
100
AcDbEntity
8
0
100
AcDbPolyline
90
28
70
1
43
0.0
10
-136.34698299999999
20
69.863808000000006
10
-136.52500000000001
20
69.84375
10
-136.70301699999999
20
69.863808000000006
10
-136.87210700000003
20
69.922974999999994
10
-137.02379199999999
20
70.018285000000006
10
-137.150465
20
70.144958000000003
10
-137.24577500000004
20
70.296643000000003
10
-137.30494200000004
20
70.465733
10
-137.32499999999999
20
70.643749999999997
10
-137.30494200000004
20
70.821766999999994
10
-137.24577500000004
20
70.990857000000005
10
-137.150465
20
71.14254200000002
10
-137.02379199999999
20
71.269215000000003
10
-136.87210700000003
20
71.364525000000015
10
-136.70301699999999
20
71.423692000000017
10
-136.52500000000001
20
71.443749999999994
10
-136.34698299999999
20
71.423692000000017
10
-136.17789300000001
20
71.364525000000015
10
-136.026208
20
71.269215000000003
10
-135.89953500000001
20
71.14254200000002
10
-135.804225
20
70.990857000000005
10
-135.745058
20
70.821766999999994
10
-135.72499999999999
20
70.643749999999997
10
-135.745058
20
70.465733
10
-135.804225
20
70.296643000000003
10
-135.89953500000001
20
70.144958000000003
10
-136.026208
20
70.018285000000006
10
-136.17789300000001
20
69.922974999999994
0
LWPOLYLINE
5
157
100
AcDbEntity
8
0
100
AcDbPolyline
90
8
70
1
43
0.0
10
-119.7
20
64.643750000000011
10
-120.7
20
63.643749999999997
10
-133.30000000000001
20
63.643749999999997
10
-134.30000000000001
20
64.643750000000011
10
-134.30000000000001
20
76.643749999999997
10
-133.30000000000001
20
77.643749999999997
10
-120.7
20
77.643749999999997
10
-119.7
20
76.643749999999997
0
LWPOLYLINE
5
158
100
AcDbEntity
8
0
100
AcDbPolyline
90
8
70
1
43
0.0
10
-100.65000000000001
20
64.643750000000011
10
-101.65000000000001
20
63.643749999999997
10
-114.25
20
63.643749999999997
10
-115.25
20
64.643750000000011
10
-115.25
20
76.643749999999997
10
-114.25
20
77.643749999999997
10
-101.65000000000001
20
77.643749999999997
10
-100.65000000000001
20
76.643749999999997
0
LWPOLYLINE
5
159
100
AcDbEntity
8
0
100
AcDbPolyline
90
28
70
1
43
0.0
10
-98.246983000000014
20
69.863808000000006
10
-98.425000000000011
20
69.84375
10
-98.603017000000008
20
69.863808000000006
10
-98.772107000000005
20
69.922974999999994
10
-98.923792000000006
20
70.018285000000006
10
-99.050465000000003
20
70.144958000000003
10
-99.145775
20
70.296643000000003
10
-99.204942000000003
20
70.465733
10
-99.224999999999994
20
70.643749999999997
10
-99.204942000000003
20
70.821766999999994
10
-99.145775
20
70.990857000000005
10
-99.050465000000003
20
71.14254200000002
10
-98.923792000000006
20
71.269215000000003
10
-98.772107000000005
20
71.364525000000015
10
-98.603017000000008
20
71.423692000000017
10
-98.425000000000011
20
71.443749999999994
10
-98.246983000000014
20
71.423692000000017
10
-98.077893000000017
20
71.364525000000015
10
-97.926208000000017
20
71.269215000000003
10
-97.79953500000002
20
71.14254200000002
10
-97.704225000000008
20
70.990857000000005
10
-97.64505800000002
20
70.821766999999994
10
-97.625000000000014
20
70.643749999999997
10
-97.64505800000002
20
70.465733
10
-97.704225000000008
20
70.296643000000003
10
-97.79953500000002
20
70.144958000000003
10
-97.926208000000017
20
70.018285000000006
10
-98.077893000000017
20
69.922974999999994
0
LWPOLYLINE
5
160
100
AcDbEntity
8
0
100
AcDbPolyline
90
8
70
1
43
0.0
10
-81.599999999999994
20
64.643750000000011
10
-82.599999999999994
20
63.643749999999997
10
-95.200000000000017
20
63.643749999999997
10
-96.200000000000017
20
64.643750000000011
10
-96.200000000000017
20
76.643749999999997
10
-95.200000000000017
20
77.643749999999997
10
-82.599999999999994
20
77.643749999999997
10
-81.599999999999994
20
76.643749999999997
0
LWPOLYLINE
5
161
100
AcDbEntity
8
0
100
AcDbPolyline
90
8
70
1
43
0.0
10
-62.549999999999997
20
64.643750000000011
10
-63.550000000000004
20
63.643749999999997
10
-76.150000000000006
20
63.643749999999997
10
-77.150000000000006
20
64.643750000000011
10
-77.150000000000006
20
76.643749999999997
10
-76.150000000000006
20
77.643749999999997
10
-63.550000000000004
20
77.643749999999997
10
-62.549999999999997
20
76.643749999999997
0
LWPOLYLINE
5
162
100
AcDbEntity
8
0
100
AcDbPolyline
90
28
70
1
43
0.0
10
-60.146982999999999
20
69.863808000000006
10
-60.325000000000003
20
69.84375
10
-60.503017
20
69.863808000000006
10
-60.672107000000004
20
69.922974999999994
10
-60.823791999999997
20
70.018285000000006
10
-60.950465000000008
20
70.144958000000003
10
-61.045775000000006
20
70.296643000000003
10
-61.104942000000008
20
70.465733
10
-61.125000000000007
20
70.643749999999997
10
-61.104942000000008
20
70.821766999999994
10
-61.045775000000006
20
70.990857000000005
10
-60.950465000000008
20
71.14254200000002
10
-60.823791999999997
20
71.269215000000003
10
-60.672107000000004
20
71.364525000000015
10
-60.503017
20
71.423692000000017
10
-60.325000000000003
20
71.443749999999994
10
-60.146982999999999
20
71.423692000000017
10
-59.977893000000009
20
71.364525000000015
10
-59.826208000000001
20
71.269215000000003
10
-59.699534999999997
20
71.14254200000002
10
-59.604225
20
70.990857000000005
10
-59.545057999999997
20
70.821766999999994
10
-59.525000000000006
20
70.643749999999997
10
-59.545057999999997
20
70.465733
10
-59.604225
20
70.296643000000003
10
-59.699534999999997
20
70.144958000000003
10
-59.826208000000001
20
70.018285000000006
10
-59.977893000000009
20
69.922974999999994
0
LWPOLYLINE
5
163
100
AcDbEntity
8
0
100
AcDbPolyline
90
8
70
1
43
0.0
10
-43.500000000000007
20
64.643750000000011
10
-44.5
20
63.643749999999997
10
-57.100000000000009
20
63.643749999999997
10
-58.100000000000009
20
64.643750000000011
10
-58.100000000000009
20
76.643749999999997
10
-57.100000000000009
20
77.643749999999997
10
-44.5
20
77.643749999999997
10
-43.500000000000007
20
76.643749999999997
0
LWPOLYLINE
5
164
100
AcDbEntity
8
0
100
AcDbPolyline
90
38
70
1
43
0.0
10
-13.865675
20
78.839259999999996
10
-14.092976999999999
20
78.900165000000001
10
-14.30625
20
78.999616000000003
10
-14.499013000000001
20
79.134590000000003
10
-14.665410000000001
20
79.300987000000006
10
-14.800383999999999
20
79.493750000000006
10
-14.899835000000001
20
79.707023000000007
10
-14.960740000000001
20
79.934325000000001
10
-14.981249999999999
20
80.168750000000003
10
-14.960740000000001
20
80.403175000000005
10
-14.899835000000001
20
80.630476999999999
10
-14.800383999999999
20
80.84375
10
-14.665410000000001
20
81.036513000000014
10
-14.499013000000001
20
81.202910000000003
10
-14.30625
20
81.337884000000003
10
-14.092976999999999
20
81.437335000000019
10
-13.865675
20
81.49824000000001
10
-13.631250000000001
20
81.518750000000011
10
-12.631250000000001
20
81.518750000000011
10
-12.396825
20
81.49824000000001
10
-12.169523
20
81.437335000000019
10
-11.956250000000001
20
81.337884000000003
10
-11.763487
20
81.202910000000003
10
-11.597090000000001
20
81.036513000000014
10
-11.462116
20
80.84375
10
-11.362665
20
80.630476999999999
10
-11.301760000000002
20
80.403175000000005
10
-11.28125
20
80.168750000000003
10
-11.301760000000002
20
79.934325000000001
10
-11.362665
20
79.707023000000007
10
-11.462116
20
79.493750000000006
10
-11.597090000000001
20
79.300987000000006
10
-11.763487
20
79.134590000000003
10
-11.956250000000001
20
78.999616000000003
10
-12.169523
20
78.900165000000001
10
-12.396825
20
78.839259999999996
10
-12.631250000000001
20
78.818749999999994
10
-13.631250000000001
20
78.818749999999994
0
LWPOLYLINE
5
165
100
AcDbEntity
8
0
100
AcDbPolyline
90
8
70
1
43
0.0
10
-22.068750000000001
20
64.643750000000011
10
-23.068750000000001
20
63.643749999999997
10
-35.668750000000003
20
63.643749999999997
10
-36.668750000000003
20
64.643750000000011
10
-36.668750000000003
20
76.643749999999997
10
-35.668750000000003
20
77.643749999999997
10
-23.068750000000001
20
77.643749999999997
10
-22.068750000000001
20
76.643749999999997
0
LWPOLYLINE
5
166
100
AcDbEntity
8
0
100
AcDbPolyline
90
28
70
1
43
0.0
10
-19.665732999999999
20
69.863808000000006
10
-19.84375
20
69.84375
10
-20.021767000000001
20
69.863808000000006
10
-20.190857000000001
20
69.922974999999994
10
-20.342542000000002
20
70.018285000000006
10
-20.469214999999998
20
70.144958000000003
10
-20.564525000000003
20
70.296643000000003
10
-20.623691999999998
20
70.465733
10
-20.643750000000001
20
70.643749999999997
10
-20.623691999999998
20
70.821766999999994
10
-20.564525000000003
20
70.990857000000005
10
-20.469214999999998
20
71.14254200000002
10
-20.342542000000002
20
71.269215000000003
10
-20.190857000000001
20
71.364525000000015
10
-20.021767000000001
20
71.423692000000017
10
-19.84375
20
71.443749999999994
10
-19.665732999999999
20
71.423692000000017
10
-19.496642999999999
20
71.364525000000015
10
-19.344957999999998
20
71.269215000000003
10
-19.218285000000002
20
71.14254200000002
10
-19.122975000000004
20
70.990857000000005
10
-19.063808000000002
20
70.821766999999994
10
-19.043749999999999
20
70.643749999999997
10
-19.063808000000002
20
70.465733
10
-19.122975000000004
20
70.296643000000003
10
-19.218285000000002
20
70.144958000000003
10
-19.344957999999998
20
70.018285000000006
10
-19.496642999999999
20
69.922974999999994
0
LWPOLYLINE
5
167
100
AcDbEntity
8
0
100
AcDbPolyline
90
8
70
1
43
0.0
10
-133.98750000000001
20
45.59375
10
-134.98750000000001
20
44.593750000000007
10
-147.58750000000001
20
44.593750000000007
10
-148.58750000000001
20
45.59375
10
-148.58750000000001
20
57.59375
10
-147.58750000000001
20
58.59375
10
-134.98750000000001
20
58.59375
10
-133.98750000000001
20
57.59375
0
LWPOLYLINE
5
168
100
AcDbEntity
8
0
100
AcDbPolyline
90
28
70
1
43
0.0
10
-131.58448300000001
20
50.813808000000009
10
-131.76249999999999
20
50.793750000000003
10
-131.940517
20
50.813808000000009
10
-132.10960700000001
20
50.872974999999997
10
-132.261292
20
50.968285000000009
10
-132.38796500000001
20
51.094958000000005
10
-132.48327499999999
20
51.246642999999999
10
-132.54244199999999
20
51.41573300000001
10
-132.5625
20
51.593750000000007
10
-132.54244199999999
20
51.771767000000004
10
-132.48327499999999
20
51.940857000000008
10
-132.38796500000001
20
52.092542000000002
10
-132.261292
20
52.219215000000005
10
-132.10960700000001
20
52.314525000000003
10
-131.940517
20
52.373691999999998
10
-131.76249999999999
20
52.393749999999997
10
-131.58448300000001
20
52.373691999999998
10
-131.41539299999999
20
52.314525000000003
10
-131.26370800000001
20
52.219215000000005
10
-131.137035
20
52.092542000000002
10
-131.04172500000001
20
51.940857000000008
10
-130.98255800000001
20
51.771767000000004
10
-130.96250000000001
20
51.593750000000007
10
-130.98255800000001
20
51.41573300000001
10
-131.04172500000001
20
51.246642999999999
10
-131.137035
20
51.094958000000005
10
-131.26370800000001
20
50.968285000000009
10
-131.41539299999999
20
50.872974999999997
0
LWPOLYLINE
5
169
100
AcDbEntity
8
0
100
AcDbPolyline
90
8
70
1
43
0.0
10
-114.9375
20
45.59375
10
-115.9375
20
44.593750000000007
10
-128.53749999999999
20
44.593750000000007
10
-129.53749999999999
20
45.59375
10
-129.53749999999999
20
57.59375
10
-128.53749999999999
20
58.59375
10
-115.9375
20
58.59375
10
-114.9375
20
57.59375
0
LWPOLYLINE
5
170
100
AcDbEntity
8
0
100
AcDbPolyline
90
8
70
1
43
0.0
10
-95.887500000000017
20
45.59375
10
-96.887500000000003
20
44.593750000000007
10
-109.48750000000001
20
44.593750000000007
10
-110.4875
20
45.59375
10
-110.4875
20
57.59375
10
-109.48750000000001
20
58.59375
10
-96.887500000000003
20
58.59375
10
-95.887500000000017
20
57.59375
0
LWPOLYLINE
5
171
100
AcDbEntity
8
0
100
AcDbPolyline
90
8
70
1
43
0.0
10
-76.837500000000006
20
45.59375
10
-77.837500000000006
20
44.593750000000007
10
-90.437500000000014
20
44.593750000000007
10
-91.4375
20
45.59375
10
-91.4375
20
57.59375
10
-90.437500000000014
20
58.59375
10
-77.837500000000006
20
58.59375
10
-76.837500000000006
20
57.59375
0
LWPOLYLINE
5
172
100
AcDbEntity
8
0
100
AcDbPolyline
90
38
70
1
43
0.0
10
-85.466989000000012
20
39.628174999999999
10
-85.406084000000021
20
39.855477
10
-85.306633000000005
20
40.068750000000001
10
-85.171659000000005
20
40.261513000000008
10
-85.005262000000016
20
40.427910000000004
10
-84.812499000000003
20
40.562883999999997
10
-84.599226000000002
20
40.662334999999999
10
-84.371924000000007
20
40.723240000000004
10
-84.137499000000005
20
40.743749999999999
10
-83.903074000000004
20
40.723240000000004
10
-83.675771999999995
20
40.662334999999999
10
-83.462499000000008
20
40.562883999999997
10
-83.269736000000009
20
40.427910000000004
10
-83.10333900000002
20
40.261513000000008
10
-82.968365000000006
20
40.068750000000001
10
-82.868914000000004
20
39.855477
10
-82.808009000000013
20
39.628174999999999
10
-82.787498999999997
20
39.393749999999997
10
-82.787498999999997
20
38.393749999999997
10
-82.808009000000013
20
38.15932500000001
10
-82.868914000000004
20
37.932023000000001
10
-82.968365000000006
20
37.71875
10
-83.10333900000002
20
37.525987000000001
10
-83.269736000000009
20
37.359589999999997
10
-83.462499000000008
20
37.224615999999997
10
-83.675771999999995
20
37.125165000000003
10
-83.903074000000004
20
37.064259999999997
10
-84.137499000000005
20
37.043750000000003
10
-84.371924000000007
20
37.064259999999997
10
-84.599226000000002
20
37.125165000000003
10
-84.812499000000003
20
37.224615999999997
10
-85.005262000000016
20
37.359589999999997
10
-85.171659000000005
20
37.525987000000001
10
-85.306633000000005
20
37.71875
10
-85.406084000000021
20
37.932023000000001
10
-85.466989000000012
20
38.15932500000001
10
-85.487499000000014
20
38.393749999999997
10
-85.487499000000014
20
39.393749999999997
0
LWPOLYLINE
5
173
100
AcDbEntity
8
0
100
AcDbPolyline
90
28
70
1
43
0.0
10
-74.434483
20
50.813808000000009
10
-74.612499999999997
20
50.793750000000003
10
-74.790516999999994
20
50.813808000000009
10
-74.959607000000005
20
50.872974999999997
10
-75.111292000000006
20
50.968285000000009
10
-75.237965000000003
20
51.094958000000005
10
-75.333275
20
51.246642999999999
10
-75.392442000000003
20
51.41573300000001
10
-75.412499999999994
20
51.593750000000007
10
-75.392442000000003
20
51.771767000000004
10
-75.333275
20
51.940857000000008
10
-75.237965000000003
20
52.092542000000002
10
-75.111292000000006
20
52.219215000000005
10
-74.959607000000005
20
52.314525000000003
10
-74.790516999999994
20
52.373691999999998
10
-74.612499999999997
20
52.393749999999997
10
-74.434483
20
52.373691999999998
10
-74.265393000000003
20
52.314525000000003
10
-74.113708000000003
20
52.219215000000005
10
-73.987035000000006
20
52.092542000000002
10
-73.891724999999994
20
51.940857000000008
10
-73.832558000000006
20
51.771767000000004
10
-73.8125
20
51.593750000000007
10
-73.832558000000006
20
51.41573300000001
10
-73.891724999999994
20
51.246642999999999
10
-73.987035000000006
20
51.094958000000005
10
-74.113708000000003
20
50.968285000000009
10
-74.265393000000003
20
50.872974999999997
0
LWPOLYLINE
5
174
100
AcDbEntity
8
0
100
AcDbPolyline
90
8
70
1
43
0.0
10
-57.787500000000009
20
45.59375
10
-58.787500000000001
20
44.593750000000007
10
-71.387500000000003
20
44.593750000000007
10
-72.387500000000003
20
45.59375
10
-72.387500000000003
20
57.59375
10
-71.387500000000003
20
58.59375
10
-58.787500000000001
20
58.59375
10
-57.787500000000009
20
57.59375
0
LWPOLYLINE
5
175
100
AcDbEntity
8
0
100
AcDbPolyline
90
8
70
1
43
0.0
10
-38.737499999999997
20
45.59375
10
-39.737499999999997
20
44.593750000000007
10
-52.337500000000006
20
44.593750000000007
10
-53.337500000000006
20
45.59375
10
-53.337500000000006
20
57.59375
10
-52.337500000000006
20
58.59375
10
-39.737499999999997
20
58.59375
10
-38.737499999999997
20
57.59375
0
LWPOLYLINE
5
176
100
AcDbEntity
8
0
100
AcDbPolyline
90
28
70
1
43
0.0
10
-36.334482999999999
20
50.813808000000009
10
-36.512500000000003
20
50.793750000000003
10
-36.690517
20
50.813808000000009
10
-36.859606999999997
20
50.872974999999997
10
-37.011291999999997
20
50.968285000000009
10
-37.137965000000001
20
51.094958000000005
10
-37.233274999999999
20
51.246642999999999
10
-37.292442000000001
20
51.41573300000001
10
-37.3125
20
51.593750000000007
10
-37.292442000000001
20
51.771767000000004
10
-37.233274999999999
20
51.940857000000008
10
-37.137965000000001
20
52.092542000000002
10
-37.011291999999997
20
52.219215000000005
10
-36.859606999999997
20
52.314525000000003
10
-36.690517
20
52.373691999999998
10
-36.512500000000003
20
52.393749999999997
10
-36.334482999999999
20
52.373691999999998
10
-36.165393000000002
20
52.314525000000003
10
-36.013708000000001
20
52.219215000000005
10
-35.887034999999997
20
52.092542000000002
10
-35.791725
20
51.940857000000008
10
-35.732557999999997
20
51.771767000000004
10
-35.712499999999999
20
51.593750000000007
10
-35.732557999999997
20
51.41573300000001
10
-35.791725
20
51.246642999999999
10
-35.887034999999997
20
51.094958000000005
10
-36.013708000000001
20
50.968285000000009
10
-36.165393000000002
20
50.872974999999997
0
LWPOLYLINE
5
177
100
AcDbEntity
8
0
100
AcDbPolyline
90
8
70
1
43
0.0
10
-19.6875
20
45.59375
10
-20.6875
20
44.593750000000007
10
-33.287500000000001
20
44.593750000000007
10
-34.287500000000001
20
45.59375
10
-34.287500000000001
20
57.59375
10
-33.287500000000001
20
58.59375
10
-20.6875
20
58.59375
10
-19.6875
20
57.59375
0
ENDSEC
0
SECTION
2
OBJECTS
0
DICTIONARY
5
C
100
AcDbDictionary
3
ACAD_GROUP
350
D
3
ACAD_MLINESTYLE
350
17
0
DICTIONARY
5
D
100
AcDbDictionary
0
DICTIONARY
5
1A
330
C
100
AcDbDictionary
0
DICTIONARY
5
17
100
AcDbDictionary
0
ENDSEC
0
EOF
