0
SECTION
2
HEADER
9
$INSUNITS
70
4
9
$ACADVER
1
AC1014
9
$HANDSEED
5
FFFF
0
ENDSEC
0
SECTION
2
TABLES
0
TABLE
2
VPORT
5
8
100
AcDbSymbolTable
0
ENDTAB
0
TABLE
2
LTYPE
5
5
100
AcDbSymbolTable
0
LTYPE
5
14
100
AcDbSymbolTableRecord
100
AcDbLinetypeTableRecord
2
BYBLOCK
70
0
0
LTYPE
5
15
100
AcDbSymbolTableRecord
100
AcDbLinetypeTableRecord
2
BYLAYER
70
0
0
ENDTAB
0
TABLE
2
LAYER
5
2
100
AcDbSymbolTable
70
2
0
LAYER
5
50
100
AcDbSymbolTableRecord
100
AcDbLayerTableRecord
2
0
70
0
6
CONTINUOUS
0
ENDTAB
0
TABLE
2
STYLE
5
3
100
AcDbSymbolTable
70
1
0
STYLE
5
11
100
AcDbSymbolTableRecord
100
AcDbTextStyleTableRecord
2
STANDARD
70
0
0
ENDTAB
0
TABLE
2
VIEW
5
6
100
AcDbSymbolTable
70
0
0
ENDTAB
0
TABLE
2
UCS
5
7
100
AcDbSymbolTable
70
0
0
ENDTAB
0
TABLE
2
APPID
5
9
100
AcDbSymbolTable
70
2
0
APPID
5
12
100
AcDbSymbolTableRecord
100
AcDbRegAppTableRecord
2
ACAD
70
0
0
ENDTAB
0
TABLE
2
DIMSTYLE
5
A
100
AcDbSymbolTable
70
1
0
ENDTAB
0
TABLE
2
BLOCK_RECORD
5
1
100
AcDbSymbolTable
70
1
0
BLOCK_RECORD
5
1F
100
AcDbSymbolTableRecord
100
AcDbBlockTableRecord
2
*MODEL_SPACE
0
BLOCK_RECORD
5
1B
100
AcDbSymbolTableRecord
100
AcDbBlockTableRecord
2
*PAPER_SPACE
0
ENDTAB
0
ENDSEC
0
SECTION
2
BLOCKS
0
BLOCK
5
20
100
AcDbEntity
100
AcDbBlockBegin
2
*MODEL_SPACE
0
ENDBLK
5
21
100
AcDbEntity
100
AcDbBlockEnd
0
BLOCK
5
1C
100
AcDbEntity
100
AcDbBlockBegin
2
*PAPER_SPACE
0
ENDBLK
5
1D
100
AcDbEntity
100
AcDbBlockEnd
0
ENDSEC
0
SECTION
2
ENTITIES
0
LWPOLYLINE
5
100
100
AcDbEntity
8
0
100
AcDbPolyline
90
41
70
1
43
0.0
10
-262.73124999999288
20
84.049999999999997
42
0.41421333333265375
10
-261.23125000000005
20
82.549999999997112
10
-54.681250000000006
20
82.550000000000011
42
0.41420000000184337
10
-53.181250000000048
20
84.049999999999997
10
-53.181249999999409
20
100.60000000000001
42
-0.41423399998758481
10
-52.181250000000006
20
101.5999999999574
10
-49.918750000000003
20
101.59999999999999
42
0.41420000001941754
10
-48.418750000000045
20
103.10000000000001
10
-48.418749999999406
20
119.65000000000002
42
-0.41423399998758481
10
-47.418750000000003
20
120.64999999995742
10
-45.15625
20
120.65000000000001
42
0.41420000001941754
10
-43.656250000000043
20
122.15000000000002
10
-43.656250000000007
20
138.19999999999999
42
0.41420799998262198
10
-45.15625
20
139.69999999991037
10
-66.46875
20
139.69999999997975
42
-0.41422200000604958
10
-67.46875000000027
20
140.69999999999999
10
-67.46875
20
157.25
42
0.41420799998242774
10
-68.96875
20
158.74999999991039
10
-141.68437499999999
20
158.75
10
-147.45625000000001
20
158.74999999997976
42
-0.41422200000604176
10
-148.45625000000027
20
159.75
10
-148.45625000000001
20
162.01249999999999
42
0.41420799998263413
10
-149.95625000000001
20
163.5124999999104
10
-165.95625000000001
20
163.51249999999999
42
0.41419733332184544
10
-167.45624999999532
20
162.01249999999999
10
-167.45624999999234
20
159.75000000000003
42
-0.41423200003098659
10
-168.45625000000001
20
158.74999999990231
10
-246.94375000000002
20
158.75
42
0.41421333333070787
10
-248.44374999999292
20
157.25
10
-248.44374999999528
20
140.69999999999999
42
-0.41421400000868391
10
-249.44375000000002
20
139.69999999997529
10
-270.75625000000002
20
139.69999999999999
42
0.41421333333070098
10
-272.25624999999292
20
138.19999999999999
10
-272.25625000000002
20
122.15000000000002
42
0.41421333335022892
10
-270.75625000000002
20
120.64999999990712
10
-268.49375000000003
20
120.64999999992473
42
-0.41421399997938152
10
-267.49374999999526
20
119.65000000000002
10
-267.49374999999998
20
103.10000000000001
42
0.41421333335023586
10
-265.99374999999998
20
101.59999999990711
10
-263.73125000000005
20
101.59999999992472
42
-0.41421399997938152
10
-262.73124999999533
20
100.60000000000001
0
LWPOLYLINE
5
101
100
AcDbEntity
8
0
100
AcDbPolyline
90
8
70
1
43
0.0
10
-72.575000000000003
20
142.22499999992678
42
0.41421200004293462
10
-72.07499999999979
20
142.72500000000002
10
-72.07499999999979
20
155.72499999999999
42
0.41421199998436142
10
-72.575000000000003
20
156.22499999999999
10
-86.174999999999997
20
156.22499999997325
42
0.4142119999843718
10
-86.675000000000011
20
155.72499999999999
10
-86.675000000000239
20
142.72500000000002
42
0.41421200004294489
10
-86.174999999999997
20
142.22499999999999
0
LWPOLYLINE
5
102
100
AcDbEntity
8
0
100
AcDbPolyline
90
4
70
1
43
0.0
10
-146.44687500000001
20
157.16249999999999
42
0.99999999999999989
10
-142.47812500000001
20
157.16249999999999
10
-142.47812500000003
20
157.95625000000001
10
-146.44687500000001
20
157.95625000000001
0
LWPOLYLINE
5
103
100
AcDbEntity
8
0
100
AcDbPolyline
90
8
70
1
43
0.0
10
-96.387500000000017
20
142.22499999992678
42
0.41421200004294501
10
-95.88749999999979
20
142.72500000000002
10
-95.887499999999775
20
155.72499999999999
42
0.41421199998437186
10
-96.387500000000017
20
156.22499999999999
10
-109.98750000000001
20
156.22499999997325
42
0.41421199998026154
10
-110.4875
20
155.72499999999999
10
-110.48749999999323
20
142.72500000000002
42
0.41421200003883468
10
-109.98750000000001
20
142.22499999999999
0
LWPOLYLINE
5
104
100
AcDbEntity
8
0
100
AcDbPolyline
90
8
70
1
43
0.0
10
-124.96250000000002
20
142.22499999992678
42
0.41421200004469316
10
-124.46249999999681
20
142.72500000000002
10
-124.46249999999679
20
155.72499999999999
42
0.41421199998612002
10
-124.96250000000002
20
156.22499999999999
10
-138.5625
20
156.22499999997325
42
0.41421199998026154
10
-139.0625
20
155.72499999999999
10
-139.06249999999324
20
142.72500000000002
42
0.41421200003883468
10
-138.5625
20
142.22499999999999
0
LWPOLYLINE
5
105
100
AcDbEntity
8
0
100
AcDbPolyline
90
8
70
1
43
0.0
10
-46.381250000000009
20
123.17499999992678
42
0.41421200004292941
10
-45.881249999999774
20
123.675
10
-45.881249999999774
20
136.67500000000001
42
0.41421199998434582
10
-46.381250000000009
20
137.17500000000001
10
-59.98125000000001
20
137.17499999997324
42
0.41421199998434055
10
-60.481250000000003
20
136.67500000000001
10
-60.48125000000023
20
123.675
42
0.41421200004292408
10
-59.98125000000001
20
123.17500000000001
0
LWPOLYLINE
5
106
100
AcDbEntity
8
0
100
AcDbPolyline
90
8
70
1
43
0.0
10
-65.431250000000006
20
123.17499999992678
42
0.41421200004292941
10
-64.931249999999778
20
123.675
10
-64.931249999999778
20
136.67500000000001
42
0.41421199998434582
10
-65.431250000000006
20
137.17500000000001
10
-79.03125
20
137.17499999997324
42
0.41421199998434577
10
-79.53125
20
136.67500000000001
10
-79.531250000000227
20
123.675
42
0.4142120000429293
10
-79.03125
20
123.17500000000001
0
LWPOLYLINE
5
107
100
AcDbEntity
8
0
100
AcDbPolyline
90
8
70
1
43
0.0
10
-84.481250000000017
20
123.17499999992678
42
0.41421200004293462
10
-83.98124999999979
20
123.675
10
-83.981249999999775
20
136.67500000000001
42
0.41421199998435104
10
-84.481250000000017
20
137.17500000000001
10
-98.081250000000011
20
137.17499999997324
42
0.41421199998434055
10
-98.581250000000011
20
136.67500000000001
10
-98.581250000000225
20
123.675
42
0.41421200004292408
10
-98.081250000000011
20
123.17500000000001
0
LWPOLYLINE
5
108
100
AcDbEntity
8
0
100
AcDbPolyline
90
8
70
1
43
0.0
10
-103.53125
20
123.17499999992678
42
0.41421200004468278
10
-103.0312499999968
20
123.675
10
-103.03124999999679
20
136.67500000000001
42
0.4142119999860992
10
-103.53125
20
137.17500000000001
10
-117.13124999999999
20
137.17499999997324
42
0.41421199998025116
10
-117.63125000000001
20
136.67500000000001
10
-117.63124999999323
20
123.675
42
0.41421200003883468
10
-117.13124999999999
20
123.17500000000001
0
LWPOLYLINE
5
109
100
AcDbEntity
8
0
100
AcDbPolyline
90
8
70
1
43
0.0
10
-122.58125
20
123.17499999992678
42
0.41421200004468278
10
-122.0812499999968
20
123.675
10
-122.08124999999677
20
136.67500000000001
42
0.4142119999860992
10
-122.58125
20
137.17500000000001
10
-136.18125000000001
20
137.17499999997324
42
0.41421199998024072
10
-136.68125000000001
20
136.67500000000001
10
-136.68124999999324
20
123.675
42
0.41421200003882425
10
-136.18125000000001
20
123.17500000000001
0
LWPOLYLINE
5
110
100
AcDbEntity
8
0
100
AcDbPolyline
90
24
70
1
43
0.0
10
-144.66874999999999
20
101.59999999994261
42
0.41423400001921173
10
-143.6687499999926
20
102.59999999999999
10
-143.66875000000002
20
119.15000000000001
42
-0.41419999999970342
10
-142.16874999999999
20
120.65000000000001
10
-139.90625
20
120.64999999994259
42
0.41423400001922223
10
-138.90625
20
121.65000000000001
10
-138.90624999999972
20
138.69999999999999
42
0.41422199997676962
10
-139.90625
20
139.69999999999999
10
-146.93125000000003
20
139.69999999998001
42
-0.4142080000001917
10
-148.43125000000001
20
141.19999999999999
10
-148.43124999999972
20
143.46250000000001
42
0.41422199997676962
10
-149.43125000000003
20
144.46250000000001
10
-166.48124999999999
20
144.46249999999768
42
0.41423199999876398
10
-167.48124999999999
20
143.46250000000001
10
-167.48125000003998
20
141.19999999999999
42
-0.41419733334331793
10
-168.98124999999999
20
139.69999999999999
10
-176.00625000000002
20
139.69999999999769
42
0.41423199999876398
10
-177.00624999999999
20
138.69999999999999
10
-177.00624999999474
20
121.65000000000001
42
0.41421400000574948
10
-176.00625000000002
20
120.65000000000001
10
-173.74375000000001
20
120.64999999999
42
-0.41421333333265725
10
-172.24375000000003
20
119.15000000000001
10
-172.24374999999472
20
102.59999999999999
42
0.41421400000574432
10
-171.24375000000001
20
101.59999999999999
0
LWPOLYLINE
5
111
100
AcDbEntity
8
0
100
AcDbPolyline
90
4
70
1
43
0.0
10
-173.43437499999999
20
157.16249999999999
42
0.99999999999999989
10
-169.46562499999999
20
157.16249999999999
10
-169.46562499999999
20
157.95625000000001
10
-173.43437499999999
20
157.95625000000001
0
LWPOLYLINE
5
112
100
AcDbEntity
8
0
100
AcDbPolyline
90
4
70
1
43
0.0
10
-164.95625000000001
20
160.98750000000001
10
-150.95625000000001
20
160.98750000000001
10
-150.95625000000001
20
146.98750000000001
10
-164.95625000000001
20
146.98750000000001
0
LWPOLYLINE
5
113
100
AcDbEntity
8
0
100
AcDbPolyline
90
8
70
1
43
0.0
10
-177.34999999999999
20
142.22499999992678
42
0.41421200004468278
10
-176.84999999999678
20
142.72500000000002
10
-176.84999999999678
20
155.72499999999999
42
0.41421199998610958
10
-177.34999999999999
20
156.22499999999999
10
-190.94999999999999
20
156.22499999997325
42
0.41421199998026154
10
-191.44999999999999
20
155.72499999999999
10
-191.44999999999322
20
142.72500000000002
42
0.41421200003883468
10
-190.94999999999999
20
142.22499999999999
0
LWPOLYLINE
5
114
100
AcDbEntity
8
0
100
AcDbPolyline
90
8
70
1
43
0.0
10
-205.92500000000001
20
142.22499999992678
42
0.41421200004468278
10
-205.4249999999968
20
142.72500000000002
10
-205.4249999999968
20
155.72499999999999
42
0.41421199998610958
10
-205.92500000000001
20
156.22499999999999
10
-219.52500000000001
20
156.22499999997325
42
0.41421199998026154
10
-220.02500000000001
20
155.72499999999999
10
-220.02499999999321
20
142.72500000000002
42
0.41421200003883468
10
-219.52500000000001
20
142.22499999999999
0
LWPOLYLINE
5
115
100
AcDbEntity
8
0
100
AcDbPolyline
90
8
70
1
43
0.0
10
-229.73750000000001
20
142.22499999992678
42
0.4142120000447036
10
-229.23749999999677
20
142.72500000000002
10
-229.23749999999677
20
155.72499999999999
42
0.4142119999861304
10
-229.73750000000001
20
156.22499999999999
10
-243.33750000000003
20
156.22499999997325
42
0.41421199998026154
10
-243.83750000000003
20
155.72499999999999
10
-243.83749999999324
20
142.72500000000002
42
0.41421200003883468
10
-243.33750000000003
20
142.22499999999999
0
LWPOLYLINE
5
116
100
AcDbEntity
8
0
100
AcDbPolyline
90
8
70
1
43
0.0
10
-179.73124999999999
20
123.17499999992678
42
0.41421200004469316
10
-179.23124999999675
20
123.675
10
-179.23124999999675
20
136.67500000000001
42
0.41421199998610958
10
-179.73124999999999
20
137.17500000000001
10
-193.33125000000001
20
137.17499999997324
42
0.41421199998024072
10
-193.83125000000004
20
136.67500000000001
10
-193.83124999999325
20
123.675
42
0.41421200003882425
10
-193.33125000000001
20
123.17500000000001
0
LWPOLYLINE
5
117
100
AcDbEntity
8
0
100
AcDbPolyline
90
8
70
1
43
0.0
10
-198.78125
20
123.17499999992678
42
0.41421200004467235
10
-198.28124999999682
20
123.675
10
-198.28124999999682
20
136.67500000000001
42
0.41421199998608876
10
-198.78125
20
137.17500000000001
10
-212.38124999999999
20
137.17499999997324
42
0.41421199998024072
10
-212.88125000000002
20
136.67500000000001
10
-212.88124999999323
20
123.675
42
0.41421200003882425
10
-212.38124999999999
20
123.17500000000001
0
LWPOLYLINE
5
118
100
AcDbEntity
8
0
100
AcDbPolyline
90
8
70
1
43
0.0
10
-217.83125000000001
20
123.17499999992678
42
0.41421200004467235
10
-217.33124999999683
20
123.675
10
-217.33124999999683
20
136.67500000000001
42
0.41421199998608876
10
-217.83125000000001
20
137.17500000000001
10
-231.43125000000001
20
137.17499999997324
42
0.41421199998024072
10
-231.93125000000003
20
136.67500000000001
10
-231.93124999999324
20
123.675
42
0.41421200003882425
10
-231.43125000000001
20
123.17500000000001
0
LWPOLYLINE
5
119
100
AcDbEntity
8
0
100
AcDbPolyline
90
8
70
1
43
0.0
10
-236.88124999999999
20
123.17499999992678
42
0.41421200004467235
10
-236.38124999999678
20
123.675
10
-236.38124999999678
20
136.67500000000001
42
0.41421199998608876
10
-236.88124999999999
20
137.17500000000001
10
-250.48124999999999
20
137.17499999997324
42
0.41421199998024072
10
-250.98124999999999
20
136.67500000000001
10
-250.98124999999322
20
123.675
42
0.41421200003882425
10
-250.48124999999999
20
123.17500000000001
0
LWPOLYLINE
5
120
100
AcDbEntity
8
0
100
AcDbPolyline
90
8
70
1
43
0.0
10
-255.93125000000001
20
123.17499999992678
42
0.41421200004467235
10
-255.43124999999679
20
123.675
10
-255.43124999999679
20
136.67500000000001
42
0.41421199998608876
10
-255.93125000000001
20
137.17500000000001
10
-269.53125
20
137.17499999997324
42
0.41421199998026154
10
-270.03125
20
136.67500000000001
10
-270.03124999999324
20
123.675
42
0.41421200003884506
10
-269.53125
20
123.17500000000001
0
LWPOLYLINE
5
121
100
AcDbEntity
8
0
100
AcDbPolyline
90
8
70
1
43
0.0
10
-51.143749999999997
20
104.12499999992677
42
0.41421200004293462
10
-50.643749999999777
20
104.625
10
-50.643749999999777
20
117.62500000000001
42
0.41421199998435104
10
-51.143749999999997
20
118.125
10
-64.743750000000006
20
118.12499999997323
42
0.41421199998434577
10
-65.243750000000006
20
117.62500000000001
10
-65.243750000000219
20
104.625
42
0.4142120000429293
10
-64.743750000000006
20
104.12500000000001
0
LWPOLYLINE
5
122
100
AcDbEntity
8
0
100
AcDbPolyline
90
8
70
1
43
0.0
10
-70.193749999999994
20
104.12499999992677
42
0.41421200004293462
10
-69.693749999999781
20
104.625
10
-69.693749999999781
20
117.62500000000001
42
0.41421199998435104
10
-70.193749999999994
20
118.125
10
-83.793750000000017
20
118.12499999997323
42
0.41421199998435099
10
-84.293750000000003
20
117.62500000000001
10
-84.29375000000023
20
104.625
42
0.41421200004293451
10
-83.793750000000017
20
104.12500000000001
0
LWPOLYLINE
5
123
100
AcDbEntity
8
0
100
AcDbPolyline
90
8
70
1
43
0.0
10
-89.243750000000006
20
104.12499999992677
42
0.41421200004294501
10
-88.743749999999793
20
104.625
10
-88.743749999999778
20
117.62500000000001
42
0.41421199998436142
10
-89.243750000000006
20
118.125
10
-102.84375
20
118.12499999997323
42
0.41421199998025116
10
-103.34375000000001
20
117.62500000000001
10
-103.34374999999324
20
104.625
42
0.41421200003883468
10
-102.84375
20
104.12500000000001
0
LWPOLYLINE
5
124
100
AcDbEntity
8
0
100
AcDbPolyline
90
8
70
1
43
0.0
10
-108.29375
20
104.12499999992677
42
0.41421200004469316
10
-107.79374999999681
20
104.625
10
-107.79374999999678
20
117.62500000000001
42
0.41421199998610958
10
-108.29375
20
118.125
10
-121.89375
20
118.12499999997323
42
0.41421199998025116
10
-122.39375000000001
20
117.62500000000001
10
-122.39374999999322
20
104.625
42
0.41421200003883468
10
-121.89375
20
104.12500000000001
0
LWPOLYLINE
5
125
100
AcDbEntity
8
0
100
AcDbPolyline
90
8
70
1
43
0.0
10
-127.34375
20
104.12499999992677
42
0.41421200004469316
10
-126.84374999999679
20
104.625
10
-126.84374999999677
20
117.62500000000001
42
0.41421199998610958
10
-127.34375
20
118.125
10
-140.94374999999999
20
118.12499999997323
42
0.41421199998025116
10
-141.44374999999999
20
117.62500000000001
10
-141.4437499999932
20
104.625
42
0.41421200003883468
10
-140.94374999999999
20
104.12500000000001
0
LWPOLYLINE
5
126
100
AcDbEntity
8
0
100
AcDbPolyline
90
8
70
1
43
0.0
10
-55.90625
20
85.074999999996791
42
0.41421200000192604
10
-55.40624999999978
20
85.575000000000017
10
-55.40624999999978
20
98.575000000000017
42
0.41421199999606773
10
-55.90625
20
99.075000000000003
10
-69.506249999999994
20
99.074999999993238
42
0.41421199999607294
10
-70.006249999999994
20
98.575000000000017
10
-70.006250000000222
20
85.575000000000017
42
0.41421200000193126
10
-69.506249999999994
20
85.075000000000003
0
LWPOLYLINE
5
127
100
AcDbEntity
8
0
100
AcDbPolyline
90
8
70
1
43
0.0
10
-74.956250000000011
20
85.074999999996791
42
0.41421200000192082
10
-74.45624999999977
20
85.574999999999989
10
-74.45624999999977
20
98.575000000000017
42
0.41421199999607294
10
-74.956250000000011
20
99.075000000000003
10
-88.55625000000002
20
99.074999999993238
42
0.41421199999605735
10
-89.056250000000006
20
98.575000000000017
10
-89.056250000000219
20
85.575000000000017
42
0.4142120000019156
10
-88.55625000000002
20
85.075000000000003
0
LWPOLYLINE
5
128
100
AcDbEntity
8
0
100
AcDbPolyline
90
8
70
1
43
0.0
10
-94.006249999999994
20
85.074999999996791
42
0.41421200000192604
10
-93.506249999999795
20
85.575000000000017
10
-93.506249999999781
20
98.575000000000017
42
0.41421199999606773
10
-94.006249999999994
20
99.075000000000003
10
-107.60625000000002
20
99.074999999993238
42
0.41421199999196789
10
-108.10625000000002
20
98.575000000000017
10
-108.10624999999322
20
85.575000000000017
42
0.41421199999782621
10
-107.60625000000002
20
85.075000000000003
0
LWPOLYLINE
5
129
100
AcDbEntity
8
0
100
AcDbPolyline
90
8
70
1
43
0.0
10
-113.05625000000001
20
85.074999999996791
42
0.41421200000368458
10
-112.55624999999681
20
85.575000000000017
10
-112.55624999999679
20
98.575000000000017
42
0.41421199999782626
10
-113.05625000000001
20
99.075000000000003
10
-126.65625
20
99.074999999993238
42
0.41421199999196789
10
-127.15625000000001
20
98.575000000000017
10
-127.15624999999322
20
85.575000000000017
42
0.41421199999782621
10
-126.65625
20
85.075000000000003
0
LWPOLYLINE
5
130
100
AcDbEntity
8
0
100
AcDbPolyline
90
8
70
1
43
0.0
10
-132.10624999999999
20
85.074999999996791
42
0.41421200000369501
10
-131.60624999999678
20
85.575000000000017
10
-131.60624999999675
20
98.575000000000017
42
0.4142119999978367
10
-132.10624999999999
20
99.075000000000003
10
-145.70625000000001
20
99.074999999993238
42
0.41421199999196789
10
-146.20625000000001
20
98.575000000000017
10
-146.20624999999325
20
85.575000000000017
42
0.41421199999782621
10
-145.70625000000001
20
85.075000000000003
0
LWPOLYLINE
5
131
100
AcDbEntity
8
0
100
AcDbPolyline
90
8
70
1
43
0.0
10
-174.96875
20
104.12499999992677
42
0.41421200004468278
10
-174.46874999999679
20
104.625
10
-174.46874999999679
20
117.62500000000001
42
0.4142119999860992
10
-174.96875
20
118.125
10
-188.56874999999999
20
118.12499999997323
42
0.41421199998025116
10
-189.06874999999999
20
117.62500000000001
10
-189.0687499999932
20
104.625
42
0.41421200003883468
10
-188.56874999999999
20
104.12500000000001
0
LWPOLYLINE
5
132
100
AcDbEntity
8
0
100
AcDbPolyline
90
8
70
1
43
0.0
10
-194.01875000000004
20
104.12499999992677
42
0.4142120000447036
10
-193.5187499999968
20
104.625
10
-193.5187499999968
20
117.62500000000001
42
0.41421199998612002
10
-194.01875000000004
20
118.125
10
-207.61875000000003
20
118.12499999997323
42
0.41421199998025116
10
-208.11875000000001
20
117.62500000000001
10
-208.11874999999327
20
104.625
42
0.41421200003883468
10
-207.61875000000003
20
104.12500000000001
0
LWPOLYLINE
5
133
100
AcDbEntity
8
0
100
AcDbPolyline
90
8
70
1
43
0.0
10
-213.06875000000002
20
104.12499999992677
42
0.4142120000447036
10
-212.56874999999678
20
104.625
10
-212.56874999999678
20
117.62500000000001
42
0.41421199998612002
10
-213.06875000000002
20
118.125
10
-226.66875000000002
20
118.12499999997323
42
0.41421199998025116
10
-227.16875000000002
20
117.62500000000001
10
-227.16874999999322
20
104.625
42
0.41421200003883468
10
-226.66875000000002
20
104.12500000000001
0
LWPOLYLINE
5
134
100
AcDbEntity
8
0
100
AcDbPolyline
90
8
70
1
43
0.0
10
-232.11875000000003
20
104.12499999992677
42
0.4142120000447036
10
-231.61874999999679
20
104.625
10
-231.61874999999679
20
117.62500000000001
42
0.41421199998612002
10
-232.11875000000003
20
118.125
10
-245.71875000000003
20
118.12499999997323
42
0.41421199998025116
10
-246.21875000000003
20
117.62500000000001
10
-246.21874999999324
20
104.625
42
0.41421200003883468
10
-245.71875000000003
20
104.12500000000001
0
LWPOLYLINE
5
135
100
AcDbEntity
8
0
100
AcDbPolyline
90
8
70
1
43
0.0
10
-251.16874999999999
20
104.12499999992677
42
0.4142120000447036
10
-250.66874999999675
20
104.625
10
-250.66874999999675
20
117.62500000000001
42
0.41421199998612002
10
-251.16874999999999
20
118.125
10
-264.76875000000001
20
118.12499999997323
42
0.41421199998023034
10
-265.26875000000007
20
117.62500000000001
10
-265.26874999999325
20
104.625
42
0.41421200003881387
10
-264.76875000000001
20
104.12500000000001
0
LWPOLYLINE
5
136
100
AcDbEntity
8
0
100
AcDbPolyline
90
4
70
1
43
0.0
10
-164.95625000000001
20
99.075000000000003
10
-150.95625000000001
20
99.075000000000003
10
-150.95625000000001
20
85.075000000000003
10
-164.95625000000001
20
85.075000000000003
0
LWPOLYLINE
5
137
100
AcDbEntity
8
0
100
AcDbPolyline
90
8
70
1
43
0.0
10
-170.20625000000001
20
85.074999999996791
42
0.41421200000369501
10
-169.70624999999677
20
85.575000000000017
10
-169.70624999999677
20
98.575000000000017
42
0.4142119999978367
10
-170.20625000000001
20
99.075000000000003
10
-183.80625000000003
20
99.074999999993238
42
0.41421199999196789
10
-184.30625000000003
20
98.575000000000017
10
-184.30624999999324
20
85.575000000000017
42
0.41421199999782621
10
-183.80625000000003
20
85.075000000000003
0
LWPOLYLINE
5
138
100
AcDbEntity
8
0
100
AcDbPolyline
90
8
70
1
43
0.0
10
-189.25624999999999
20
85.074999999996791
42
0.41421200000369501
10
-188.75624999999675
20
85.575000000000017
10
-188.75624999999675
20
98.575000000000017
42
0.4142119999978367
10
-189.25624999999999
20
99.075000000000003
10
-202.85624999999999
20
99.074999999993238
42
0.41421199999196789
10
-203.35624999999999
20
98.575000000000017
10
-203.35624999999322
20
85.575000000000017
42
0.41421199999782621
10
-202.85624999999999
20
85.075000000000003
0
LWPOLYLINE
5
139
100
AcDbEntity
8
0
100
AcDbPolyline
90
8
70
1
43
0.0
10
-208.30625000000001
20
85.074999999996791
42
0.4142120000036742
10
-207.80624999999679
20
85.575000000000017
10
-207.80624999999679
20
98.575000000000017
42
0.41421199999781588
10
-208.30625000000001
20
99.075000000000003
10
-221.90625
20
99.074999999993238
42
0.41421199999196789
10
-222.40625
20
98.575000000000017
10
-222.40624999999324
20
85.575000000000017
42
0.41421199999782621
10
-221.90625
20
85.075000000000003
0
LWPOLYLINE
5
140
100
AcDbEntity
8
0
100
AcDbPolyline
90
8
70
1
43
0.0
10
-227.35624999999999
20
85.074999999996791
42
0.4142120000036742
10
-226.85624999999678
20
85.575000000000017
10
-226.85624999999678
20
98.575000000000017
42
0.41421199999781588
10
-227.35624999999999
20
99.075000000000003
10
-240.95625000000001
20
99.074999999993238
42
0.41421199999196789
10
-241.45625000000001
20
98.575000000000017
10
-241.45624999999325
20
85.575000000000017
42
0.41421199999782621
10
-240.95625000000001
20
85.075000000000003
0
LWPOLYLINE
5
141
100
AcDbEntity
8
0
100
AcDbPolyline
90
8
70
1
43
0.0
10
-246.40625
20
85.074999999996791
42
0.4142120000036742
10
-245.90624999999679
20
85.575000000000017
10
-245.90624999999679
20
98.575000000000017
42
0.41421199999781588
10
-246.40625
20
99.075000000000003
10
-260.00625000000002
20
99.074999999993238
42
0.41421199999194708
10
-260.50625000000002
20
98.575000000000017
10
-260.5062499999932
20
85.575000000000017
42
0.41421199999780539
10
-260.00625000000002
20
85.075000000000003
0
CIRCLE
5
142
100
AcDbEntity
8
0
100
AcDbCircle
10
-88.900000000000006
20
149.22499999999999
30
0
40
0.80000000000000016
210
0
220
0
230
1
0
CIRCLE
5
143
100
AcDbEntity
8
0
100
AcDbCircle
10
-141.68437499999999
20
158.49600000000004
30
0
40
0.19685000000000002
210
0
220
0
230
1
0
CIRCLE
5
144
100
AcDbEntity
8
0
100
AcDbCircle
10
-142.08125000000001
20
158.09912499999999
30
0
40
0.19685000000000002
210
0
220
0
230
1
0
CIRCLE
5
145
100
AcDbEntity
8
0
100
AcDbCircle
10
-147.24062499999999
20
158.49600000000004
30
0
40
0.19685000000000002
210
0
220
0
230
1
0
CIRCLE
5
146
100
AcDbEntity
8
0
100
AcDbCircle
10
-146.84375
20
158.09912499999999
30
0
40
0.19685000000000002
210
0
220
0
230
1
0
CIRCLE
5
147
100
AcDbEntity
8
0
100
AcDbCircle
10
-148.43125000000001
20
153.98750000000001
30
0
40
0.80000000000000016
210
0
220
0
230
1
0
CIRCLE
5
148
100
AcDbEntity
8
0
100
AcDbCircle
10
-141.28749999999999
20
149.22499999999999
30
0
40
0.80000000000000016
210
0
220
0
230
1
0
CIRCLE
5
149
100
AcDbEntity
8
0
100
AcDbCircle
10
-62.706249999999997
20
137.31899999999999
30
0
40
1.1000000000000001
210
0
220
0
230
1
0
CIRCLE
5
150
100
AcDbEntity
8
0
100
AcDbCircle
10
-62.706249999999997
20
130.17500000000001
30
0
40
0.80000000000000016
210
0
220
0
230
1
0
CIRCLE
5
151
100
AcDbEntity
8
0
100
AcDbCircle
10
-100.80625000000001
20
130.17500000000001
30
0
40
0.80000000000000016
210
0
220
0
230
1
0
CIRCLE
5
152
100
AcDbEntity
8
0
100
AcDbCircle
10
-168.671875
20
158.49600000000004
30
0
40
0.19685000000000002
210
0
220
0
230
1
0
CIRCLE
5
153
100
AcDbEntity
8
0
100
AcDbCircle
10
-169.06874999999999
20
158.09912499999999
30
0
40
0.19685000000000002
210
0
220
0
230
1
0
CIRCLE
5
154
100
AcDbEntity
8
0
100
AcDbCircle
10
-174.22812500000003
20
158.49600000000004
30
0
40
0.19685000000000002
210
0
220
0
230
1
0
CIRCLE
5
155
100
AcDbEntity
8
0
100
AcDbCircle
10
-173.83125000000004
20
158.09912499999999
30
0
40
0.19685000000000002
210
0
220
0
230
1
0
CIRCLE
5
156
100
AcDbEntity
8
0
100
AcDbCircle
10
-167.48124999999999
20
153.98750000000001
30
0
40
0.80000000000000016
210
0
220
0
230
1
0
CIRCLE
5
157
100
AcDbEntity
8
0
100
AcDbCircle
10
-174.62500000000003
20
149.22499999999999
30
0
40
0.80000000000000016
210
0
220
0
230
1
0
CIRCLE
5
158
100
AcDbEntity
8
0
100
AcDbCircle
10
-227.01250000000002
20
149.22499999999999
30
0
40
0.80000000000000016
210
0
220
0
230
1
0
CIRCLE
5
159
100
AcDbEntity
8
0
100
AcDbCircle
10
-253.20625000000004
20
137.31899999999999
30
0
40
1.1000000000000001
210
0
220
0
230
1
0
CIRCLE
5
160
100
AcDbEntity
8
0
100
AcDbCircle
10
-215.10625000000002
20
130.17500000000001
30
0
40
0.80000000000000016
210
0
220
0
230
1
0
CIRCLE
5
161
100
AcDbEntity
8
0
100
AcDbCircle
10
-253.20625000000004
20
130.17500000000001
30
0
40
0.80000000000000016
210
0
220
0
230
1
0
CIRCLE
5
162
100
AcDbEntity
8
0
100
AcDbCircle
10
-86.518750000000011
20
111.125
30
0
40
0.80000000000000016
210
0
220
0
230
1
0
CIRCLE
5
163
100
AcDbEntity
8
0
100
AcDbCircle
10
-124.61875000000001
20
111.125
30
0
40
0.80000000000000016
210
0
220
0
230
1
0
CIRCLE
5
164
100
AcDbEntity
8
0
100
AcDbCircle
10
-72.231250000000003
20
92.075000000000017
30
0
40
0.80000000000000016
210
0
220
0
230
1
0
CIRCLE
5
165
100
AcDbEntity
8
0
100
AcDbCircle
10
-72.231250000000003
20
84.930999999999997
30
0
40
1.1000000000000001
210
0
220
0
230
1
0
CIRCLE
5
166
100
AcDbEntity
8
0
100
AcDbCircle
10
-110.33750000000001
20
92.075000000000017
30
0
40
0.80000000000000016
210
0
220
0
230
1
0
CIRCLE
5
167
100
AcDbEntity
8
0
100
AcDbCircle
10
-148.43125000000001
20
92.075000000000017
30
0
40
0.80000000000000016
210
0
220
0
230
1
0
CIRCLE
5
168
100
AcDbEntity
8
0
100
AcDbCircle
10
-191.29374999999999
20
111.125
30
0
40
0.80000000000000016
210
0
220
0
230
1
0
CIRCLE
5
169
100
AcDbEntity
8
0
100
AcDbCircle
10
-229.39375000000001
20
111.125
30
0
40
0.80000000000000016
210
0
220
0
230
1
0
CIRCLE
5
170
100
AcDbEntity
8
0
100
AcDbCircle
10
-167.48124999999999
20
92.075000000000017
30
0
40
0.80000000000000016
210
0
220
0
230
1
0
CIRCLE
5
171
100
AcDbEntity
8
0
100
AcDbCircle
10
-205.58125000000004
20
92.075000000000017
30
0
40
0.80000000000000016
210
0
220
0
230
1
0
CIRCLE
5
172
100
AcDbEntity
8
0
100
AcDbCircle
10
-243.68125000000003
20
92.075000000000017
30
0
40
0.80000000000000016
210
0
220
0
230
1
0
CIRCLE
5
173
100
AcDbEntity
8
0
100
AcDbCircle
10
-243.68125000000003
20
84.930999999999997
30
0
40
1.1000000000000001
210
0
220
0
230
1
0
ENDSEC
0
SECTION
2
OBJECTS
0
DICTIONARY
5
C
100
AcDbDictionary
3
ACAD_GROUP
350
D
3
ACAD_MLINESTYLE
350
17
0
DICTIONARY
5
D
100
AcDbDictionary
0
DICTIONARY
5
1A
330
C
100
AcDbDictionary
0
DICTIONARY
5
17
100
AcDbDictionary
0
ENDSEC
0
EOF
