0
SECTION
2
HEADER
9
$INSUNITS
70
4
9
$ACADVER
1
AC1014
9
$HANDSEED
5
FFFF
0
ENDSEC
0
SECTION
2
TABLES
0
TABLE
2
VPORT
5
8
100
AcDbSymbolTable
0
ENDTAB
0
TABLE
2
LTYPE
5
5
100
AcDbSymbolTable
0
LTYPE
5
14
100
AcDbSymbolTableRecord
100
AcDbLinetypeTableRecord
2
BYBLOCK
70
0
0
LTYPE
5
15
100
AcDbSymbolTableRecord
100
AcDbLinetypeTableRecord
2
BYLAYER
70
0
0
ENDTAB
0
TABLE
2
LAYER
5
2
100
AcDbSymbolTable
70
2
0
LAYER
5
50
100
AcDbSymbolTableRecord
100
AcDbLayerTableRecord
2
0
70
0
6
CONTINUOUS
0
ENDTAB
0
TABLE
2
STYLE
5
3
100
AcDbSymbolTable
70
1
0
STYLE
5
11
100
AcDbSymbolTableRecord
100
AcDbTextStyleTableRecord
2
STANDARD
70
0
0
ENDTAB
0
TABLE
2
VIEW
5
6
100
AcDbSymbolTable
70
0
0
ENDTAB
0
TABLE
2
UCS
5
7
100
AcDbSymbolTable
70
0
0
ENDTAB
0
TABLE
2
APPID
5
9
100
AcDbSymbolTable
70
2
0
APPID
5
12
100
AcDbSymbolTableRecord
100
AcDbRegAppTableRecord
2
ACAD
70
0
0
ENDTAB
0
TABLE
2
DIMSTYLE
5
A
100
AcDbSymbolTable
70
1
0
ENDTAB
0
TABLE
2
BLOCK_RECORD
5
1
100
AcDbSymbolTable
70
1
0
BLOCK_RECORD
5
1F
100
AcDbSymbolTableRecord
100
AcDbBlockTableRecord
2
*MODEL_SPACE
0
BLOCK_RECORD
5
1B
100
AcDbSymbolTableRecord
100
AcDbBlockTableRecord
2
*PAPER_SPACE
0
ENDTAB
0
ENDSEC
0
SECTION
2
BLOCKS
0
BLOCK
5
20
100
AcDbEntity
100
AcDbBlockBegin
2
*MODEL_SPACE
0
ENDBLK
5
21
100
AcDbEntity
100
AcDbBlockEnd
0
BLOCK
5
1C
100
AcDbEntity
100
AcDbBlockBegin
2
*PAPER_SPACE
0
ENDBLK
5
1D
100
AcDbEntity
100
AcDbBlockEnd
0
ENDSEC
0
SECTION
2
ENTITIES
0
LWPOLYLINE
5
100
100
AcDbEntity
8
0
100
AcDbPolyline
90
32
70
1
43
0.0
10
-39.095133000003457
20
16.214738999996545
42
0.19891137420364821
10
-37.203622000000003
20
15.431249999992779
10
-29.833877999999999
20
15.43125
42
0.19891227671323583
10
-27.94236699999793
20
16.214738999997927
10
-23.802239000000004
20
20.354866999999999
42
0.19891227671296138
10
-23.018750000000008
20
22.246378
10
-23.018750000000004
20
96.816122000000007
42
0.19891227671296122
10
-23.802238999999929
20
98.707633000000072
10
-27.942367000000004
20
102.84776100000002
42
0.19891227671117351
10
-29.833877999999999
20
103.63124999997399
10
-37.203622000000003
20
103.63124999999999
42
0.19891317921716689
10
-39.095132999959425
20
102.84776099995945
10
-43.23526099996441
20
98.707632999964403
42
-0.19891249879822404
10
-45.833877999999999
20
97.631249999928997
10
-243.09112200000001
20
97.631249999933218
42
-0.19892004381230025
10
-245.68973900003181
20
98.707632999968226
10
-249.82986700000001
20
102.84776100000002
42
0.19892264228654483
10
-251.72137800000002
20
103.63124999994216
10
-259.09112199999998
20
103.63124999999999
42
0.19890378029383549
10
-260.98263299999292
20
102.84776099999286
10
-265.12276100000003
20
98.707633000000001
42
0.19892264228969578
10
-265.90624999999216
20
96.816122000000007
10
-265.90625
20
22.246378
42
0.19890378029411657
10
-265.12276099999718
20
20.354867000002848
10
-260.98263300000002
20
16.214739000000002
42
0.19892264229038631
10
-259.09112199999998
20
15.431249999997847
10
-251.72137800000002
20
15.43125
42
0.19890378029480488
10
-249.82986699999714
20
16.214738999997124
10
-245.65771099999577
20
20.386894999995633
42
-0.19568397569258875
10
-243.09112200000001
20
21.431250000000396
10
-45.833878000000006
20
21.431249999999601
42
-0.19891222668562292
10
-43.235261000000278
20
20.354866999999722
0
LWPOLYLINE
5
101
100
AcDbEntity
8
0
100
AcDbPolyline
90
8
70
1
43
0.0
10
-27.625
20
94.106250000000017
10
-27.625
20
82.106250000000003
10
-28.625000000000004
20
81.106250000000003
10
-41.225000000000009
20
81.106250000000003
10
-42.225000000000001
20
82.106250000000003
10
-42.225000000000001
20
94.106250000000017
10
-41.225000000000009
20
95.106250000000017
10
-28.625000000000004
20
95.106250000000017
0
LWPOLYLINE
5
102
100
AcDbEntity
8
0
100
AcDbPolyline
90
8
70
1
43
0.0
10
-49.056250000000006
20
94.106250000000017
10
-49.056250000000006
20
82.106250000000003
10
-50.056250000000006
20
81.106250000000003
10
-62.65625
20
81.106250000000003
10
-63.656250000000007
20
82.106250000000003
10
-63.656250000000007
20
94.106250000000017
10
-62.65625
20
95.106250000000017
10
-50.056250000000006
20
95.106250000000017
0
LWPOLYLINE
5
103
100
AcDbEntity
8
0
100
AcDbPolyline
90
8
70
1
43
0.0
10
-70.487499999999997
20
94.106250000000017
10
-70.487499999999997
20
82.106250000000003
10
-71.487499999999997
20
81.106250000000003
10
-84.087500000000006
20
81.106250000000003
10
-85.087500000000006
20
82.106250000000003
10
-85.087500000000006
20
94.106250000000017
10
-84.087500000000006
20
95.106250000000017
10
-71.487499999999997
20
95.106250000000017
0
LWPOLYLINE
5
104
100
AcDbEntity
8
0
100
AcDbPolyline
90
8
70
1
43
0.0
10
-141.92500000000001
20
94.106250000000017
10
-141.92500000000001
20
82.106250000000003
10
-142.92500000000001
20
81.106250000000003
10
-155.52500000000003
20
81.106250000000003
10
-156.52500000000001
20
82.106250000000003
10
-156.52500000000001
20
94.106250000000017
10
-155.52500000000003
20
95.106250000000017
10
-142.92500000000001
20
95.106250000000017
0
LWPOLYLINE
5
105
100
AcDbEntity
8
0
100
AcDbPolyline
90
8
70
1
43
0.0
10
-210.98124999999999
20
94.106250000000017
10
-210.98124999999999
20
82.106250000000003
10
-211.98125000000002
20
81.106250000000003
10
-224.58125000000001
20
81.106250000000003
10
-225.58125000000004
20
82.106250000000003
10
-225.58125000000004
20
94.106250000000017
10
-224.58125000000001
20
95.106250000000017
10
-211.98125000000002
20
95.106250000000017
0
LWPOLYLINE
5
106
100
AcDbEntity
8
0
100
AcDbPolyline
90
8
70
1
43
0.0
10
-230.03125
20
94.106250000000017
10
-230.03125
20
82.106250000000003
10
-231.03125000000003
20
81.106250000000003
10
-243.63124999999999
20
81.106250000000003
10
-244.63125000000002
20
82.106250000000003
10
-244.63125000000002
20
94.106250000000017
10
-243.63124999999999
20
95.106250000000017
10
-231.03125000000003
20
95.106250000000017
0
LWPOLYLINE
5
107
100
AcDbEntity
8
0
100
AcDbPolyline
90
8
70
1
43
0.0
10
-249.08125000000001
20
94.106250000000017
10
-249.08125000000001
20
82.106250000000003
10
-250.08125000000004
20
81.106250000000003
10
-262.68124999999998
20
81.106250000000003
10
-263.68124999999998
20
82.106250000000003
10
-263.68124999999998
20
94.106250000000017
10
-262.68124999999998
20
95.106250000000017
10
-250.08125000000004
20
95.106250000000017
0
LWPOLYLINE
5
108
100
AcDbEntity
8
0
100
AcDbPolyline
90
8
70
1
43
0.0
10
-92.487499999999997
20
94.469750000000005
10
-92.487499999999997
20
81.742750000000001
10
-92.994500000000002
20
81.23575000000001
10
-105.4425
20
81.23575000000001
10
-105.9495
20
81.742750000000001
10
-105.9495
20
94.469750000000005
10
-105.4425
20
94.976749999999996
10
-92.994500000000002
20
94.976749999999996
0
LWPOLYLINE
5
109
100
AcDbEntity
8
0
100
AcDbPolyline
90
8
70
1
43
0.0
10
-192.50050000000002
20
94.469750000000005
10
-192.50050000000002
20
81.742750000000001
10
-193.00049999999999
20
81.23575000000001
10
-205.46250000000001
20
81.23575000000001
10
-205.96250000000001
20
81.742750000000001
10
-205.96250000000001
20
94.469750000000005
10
-205.45550000000003
20
94.976749999999996
10
-193.00749999999999
20
94.976749999999996
0
LWPOLYLINE
5
110
100
AcDbEntity
8
0
100
AcDbPolyline
90
4
70
1
43
0.0
10
-185.202687
20
91.151781
10
-181.55913300000003
20
91.151781
10
-181.55913300000003
20
85.023727000000008
10
-185.202687
20
85.023727000000008
0
LWPOLYLINE
5
111
100
AcDbEntity
8
0
100
AcDbPolyline
90
8
70
1
43
0.0
10
-32.387500000000003
20
75.056250000000006
10
-32.387500000000003
20
63.056249999999999
10
-33.387500000000003
20
62.056250000000006
10
-45.987499999999997
20
62.056250000000006
10
-46.987499999999997
20
63.056249999999999
10
-46.987499999999997
20
75.056250000000006
10
-45.987499999999997
20
76.056250000000006
10
-33.387500000000003
20
76.056250000000006
0
LWPOLYLINE
5
112
100
AcDbEntity
8
0
100
AcDbPolyline
90
8
70
1
43
0.0
10
-58.581250000000004
20
75.056250000000006
10
-58.581250000000004
20
63.056249999999999
10
-59.581249999999997
20
62.056250000000006
10
-72.181250000000006
20
62.056250000000006
10
-73.181250000000006
20
63.056249999999999
10
-73.181250000000006
20
75.056250000000006
10
-72.181250000000006
20
76.056250000000006
10
-59.581249999999997
20
76.056250000000006
0
LWPOLYLINE
5
113
100
AcDbEntity
8
0
100
AcDbPolyline
90
8
70
1
43
0.0
10
-77.631249999999994
20
75.056250000000006
10
-77.631249999999994
20
63.056249999999999
10
-78.631249999999994
20
62.056250000000006
10
-91.231250000000003
20
62.056250000000006
10
-92.231250000000017
20
63.056249999999999
10
-92.231250000000017
20
75.056250000000006
10
-91.231250000000003
20
76.056250000000006
10
-78.631249999999994
20
76.056250000000006
0
LWPOLYLINE
5
114
100
AcDbEntity
8
0
100
AcDbPolyline
90
8
70
1
43
0.0
10
-96.68125000000002
20
75.056250000000006
10
-96.68125000000002
20
63.056249999999999
10
-97.681250000000006
20
62.056250000000006
10
-110.28125000000001
20
62.056250000000006
10
-111.28125
20
63.056249999999999
10
-111.28125
20
75.056250000000006
10
-110.28125000000001
20
76.056250000000006
10
-97.681250000000006
20
76.056250000000006
0
LWPOLYLINE
5
115
100
AcDbEntity
8
0
100
AcDbPolyline
90
8
70
1
43
0.0
10
-115.73125000000002
20
75.056250000000006
10
-115.73125000000002
20
63.056249999999999
10
-116.73125
20
62.056250000000006
10
-129.33125000000001
20
62.056250000000006
10
-130.33125000000001
20
63.056249999999999
10
-130.33125000000001
20
75.056250000000006
10
-129.33125000000001
20
76.056250000000006
10
-116.73125
20
76.056250000000006
0
LWPOLYLINE
5
116
100
AcDbEntity
8
0
100
AcDbPolyline
90
8
70
1
43
0.0
10
-134.78125
20
75.056250000000006
10
-134.78125
20
63.056249999999999
10
-135.78125
20
62.056250000000006
10
-148.38124999999999
20
62.056250000000006
10
-149.38124999999999
20
63.056249999999999
10
-149.38124999999999
20
75.056250000000006
10
-148.38124999999999
20
76.056250000000006
10
-135.78125
20
76.056250000000006
0
LWPOLYLINE
5
117
100
AcDbEntity
8
0
100
AcDbPolyline
90
8
70
1
43
0.0
10
-153.83125000000001
20
75.056250000000006
10
-153.83125000000001
20
63.056249999999999
10
-154.83125000000001
20
62.056250000000006
10
-167.43125000000003
20
62.056250000000006
10
-168.43125000000001
20
63.056249999999999
10
-168.43125000000001
20
75.056250000000006
10
-167.43125000000003
20
76.056250000000006
10
-154.83125000000001
20
76.056250000000006
0
LWPOLYLINE
5
118
100
AcDbEntity
8
0
100
AcDbPolyline
90
8
70
1
43
0.0
10
-172.88125000000002
20
75.056250000000006
10
-172.88125000000002
20
63.056249999999999
10
-173.88124999999999
20
62.056250000000006
10
-186.48124999999999
20
62.056250000000006
10
-187.48124999999999
20
63.056249999999999
10
-187.48124999999999
20
75.056250000000006
10
-186.48124999999999
20
76.056250000000006
10
-173.88124999999999
20
76.056250000000006
0
LWPOLYLINE
5
119
100
AcDbEntity
8
0
100
AcDbPolyline
90
8
70
1
43
0.0
10
-191.93125000000003
20
75.056250000000006
10
-191.93125000000003
20
63.056249999999999
10
-192.93125000000003
20
62.056250000000006
10
-205.53125
20
62.056250000000006
10
-206.53125000000003
20
63.056249999999999
10
-206.53125000000003
20
75.056250000000006
10
-205.53125
20
76.056250000000006
10
-192.93125000000003
20
76.056250000000006
0
LWPOLYLINE
5
120
100
AcDbEntity
8
0
100
AcDbPolyline
90
8
70
1
43
0.0
10
-210.98124999999999
20
75.056250000000006
10
-210.98124999999999
20
63.056249999999999
10
-211.98125000000002
20
62.056250000000006
10
-224.58125000000001
20
62.056250000000006
10
-225.58125000000004
20
63.056249999999999
10
-225.58125000000004
20
75.056250000000006
10
-224.58125000000001
20
76.056250000000006
10
-211.98125000000002
20
76.056250000000006
0
LWPOLYLINE
5
121
100
AcDbEntity
8
0
100
AcDbPolyline
90
8
70
1
43
0.0
10
-230.03125
20
75.056250000000006
10
-230.03125
20
63.056249999999999
10
-231.03125000000003
20
62.056250000000006
10
-243.63124999999999
20
62.056250000000006
10
-244.63125000000002
20
63.056249999999999
10
-244.63125000000002
20
75.056250000000006
10
-243.63124999999999
20
76.056250000000006
10
-231.03125000000003
20
76.056250000000006
0
LWPOLYLINE
5
122
100
AcDbEntity
8
0
100
AcDbPolyline
90
8
70
1
43
0.0
10
-249.08125000000001
20
75.056250000000006
10
-249.08125000000001
20
63.056249999999999
10
-250.08125000000004
20
62.056250000000006
10
-262.68124999999998
20
62.056250000000006
10
-263.68124999999998
20
63.056249999999999
10
-263.68124999999998
20
75.056250000000006
10
-262.68124999999998
20
76.056250000000006
10
-250.08125000000004
20
76.056250000000006
0
LWPOLYLINE
5
123
100
AcDbEntity
8
0
100
AcDbPolyline
90
8
70
1
43
0.0
10
-27.625
20
56.006250000000009
10
-27.625
20
44.006250000000009
10
-28.625000000000004
20
43.006250000000001
10
-41.225000000000009
20
43.006250000000001
10
-42.225000000000001
20
44.006250000000009
10
-42.225000000000001
20
56.006250000000009
10
-41.225000000000009
20
57.006250000000009
10
-28.625000000000004
20
57.006250000000009
0
LWPOLYLINE
5
124
100
AcDbEntity
8
0
100
AcDbPolyline
90
8
70
1
43
0.0
10
-49.056250000000006
20
56.006250000000009
10
-49.056250000000006
20
44.006250000000009
10
-50.056250000000006
20
43.006250000000001
10
-62.65625
20
43.006250000000001
10
-63.656250000000007
20
44.006250000000009
10
-63.656250000000007
20
56.006250000000009
10
-62.65625
20
57.006250000000009
10
-50.056250000000006
20
57.006250000000009
0
LWPOLYLINE
5
125
100
AcDbEntity
8
0
100
AcDbPolyline
90
8
70
1
43
0.0
10
-68.106250000000003
20
56.006250000000009
10
-68.106250000000003
20
44.006250000000009
10
-69.106250000000003
20
43.006250000000001
10
-81.706249999999997
20
43.006250000000001
10
-82.706250000000011
20
44.006250000000009
10
-82.706250000000011
20
56.006250000000009
10
-81.706249999999997
20
57.006250000000009
10
-69.106250000000003
20
57.006250000000009
0
LWPOLYLINE
5
126
100
AcDbEntity
8
0
100
AcDbPolyline
90
8
70
1
43
0.0
10
-87.156250000000014
20
56.006250000000009
10
-87.156250000000014
20
44.006250000000009
10
-88.15625
20
43.006250000000001
10
-100.75625000000001
20
43.006250000000001
10
-101.75624999999999
20
44.006250000000009
10
-101.75624999999999
20
56.006250000000009
10
-100.75625000000001
20
57.006250000000009
10
-88.15625
20
57.006250000000009
0
LWPOLYLINE
5
127
100
AcDbEntity
8
0
100
AcDbPolyline
90
8
70
1
43
0.0
10
-106.20625000000001
20
56.006250000000009
10
-106.20625000000001
20
44.006250000000009
10
-107.20625
20
43.006250000000001
10
-119.80625000000002
20
43.006250000000001
10
-120.80625000000001
20
44.006250000000009
10
-120.80625000000001
20
56.006250000000009
10
-119.80625000000002
20
57.006250000000009
10
-107.20625
20
57.006250000000009
0
LWPOLYLINE
5
128
100
AcDbEntity
8
0
100
AcDbPolyline
90
8
70
1
43
0.0
10
-125.25624999999999
20
56.006250000000009
10
-125.25624999999999
20
44.006250000000009
10
-126.25624999999999
20
43.006250000000001
10
-138.85624999999999
20
43.006250000000001
10
-139.85624999999999
20
44.006250000000009
10
-139.85624999999999
20
56.006250000000009
10
-138.85624999999999
20
57.006250000000009
10
-126.25624999999999
20
57.006250000000009
0
LWPOLYLINE
5
129
100
AcDbEntity
8
0
100
AcDbPolyline
90
8
70
1
43
0.0
10
-144.30625000000001
20
56.006250000000009
10
-144.30625000000001
20
44.006250000000009
10
-145.30625000000001
20
43.006250000000001
10
-157.90625
20
43.006250000000001
10
-158.90625
20
44.006250000000009
10
-158.90625
20
56.006250000000009
10
-157.90625
20
57.006250000000009
10
-145.30625000000001
20
57.006250000000009
0
LWPOLYLINE
5
130
100
AcDbEntity
8
0
100
AcDbPolyline
90
8
70
1
43
0.0
10
-163.35624999999999
20
56.006250000000009
10
-163.35624999999999
20
44.006250000000009
10
-164.35624999999999
20
43.006250000000001
10
-176.95625000000004
20
43.006250000000001
10
-177.95625000000001
20
44.006250000000009
10
-177.95625000000001
20
56.006250000000009
10
-176.95625000000004
20
57.006250000000009
10
-164.35624999999999
20
57.006250000000009
0
LWPOLYLINE
5
131
100
AcDbEntity
8
0
100
AcDbPolyline
90
8
70
1
43
0.0
10
-182.40625
20
56.006250000000009
10
-182.40625
20
44.006250000000009
10
-183.40625
20
43.006250000000001
10
-196.00625000000002
20
43.006250000000001
10
-197.00625000000002
20
44.006250000000009
10
-197.00625000000002
20
56.006250000000009
10
-196.00625000000002
20
57.006250000000009
10
-183.40625
20
57.006250000000009
0
LWPOLYLINE
5
132
100
AcDbEntity
8
0
100
AcDbPolyline
90
8
70
1
43
0.0
10
-201.45625000000001
20
56.006250000000009
10
-201.45625000000001
20
44.006250000000009
10
-202.45625000000004
20
43.006250000000001
10
-215.05625000000003
20
43.006250000000001
10
-216.05625000000003
20
44.006250000000009
10
-216.05625000000003
20
56.006250000000009
10
-215.05625000000003
20
57.006250000000009
10
-202.45625000000004
20
57.006250000000009
0
LWPOLYLINE
5
133
100
AcDbEntity
8
0
100
AcDbPolyline
90
8
70
1
43
0.0
10
-220.50624999999999
20
56.006250000000009
10
-220.50624999999999
20
44.006250000000009
10
-221.50625000000002
20
43.006250000000001
10
-234.10624999999999
20
43.006250000000001
10
-235.10625000000002
20
44.006250000000009
10
-235.10625000000002
20
56.006250000000009
10
-234.10624999999999
20
57.006250000000009
10
-221.50625000000002
20
57.006250000000009
0
LWPOLYLINE
5
134
100
AcDbEntity
8
0
100
AcDbPolyline
90
8
70
1
43
0.0
10
-244.31875000000002
20
56.006250000000009
10
-244.31875000000002
20
44.006250000000009
10
-245.31874999999999
20
43.006250000000001
10
-257.91874999999999
20
43.006250000000001
10
-258.91874999999999
20
44.006250000000009
10
-258.91874999999999
20
56.006250000000009
10
-257.91874999999999
20
57.006250000000009
10
-245.31874999999999
20
57.006250000000009
0
LWPOLYLINE
5
135
100
AcDbEntity
8
0
100
AcDbPolyline
90
8
70
1
43
0.0
10
-25.243749999999999
20
36.956249999999997
10
-25.243749999999999
20
24.956250000000004
10
-26.243750000000002
20
23.956250000000004
10
-38.84375
20
23.956250000000004
10
-39.84375
20
24.956250000000004
10
-39.84375
20
36.956249999999997
10
-38.84375
20
37.956249999999997
10
-26.243750000000002
20
37.956249999999997
0
LWPOLYLINE
5
136
100
AcDbEntity
8
0
100
AcDbPolyline
90
8
70
1
43
0.0
10
-44.293750000000003
20
36.956249999999997
10
-44.293750000000003
20
24.956250000000004
10
-45.29375000000001
20
23.956250000000004
10
-57.893749999999997
20
23.956250000000004
10
-58.893750000000004
20
24.956250000000004
10
-58.893750000000004
20
36.956249999999997
10
-57.893749999999997
20
37.956249999999997
10
-45.29375000000001
20
37.956249999999997
0
LWPOLYLINE
5
137
100
AcDbEntity
8
0
100
AcDbPolyline
90
8
70
1
43
0.0
10
-63.343750000000007
20
36.956249999999997
10
-63.343750000000007
20
24.956250000000004
10
-64.34375
20
23.956250000000004
10
-76.943749999999994
20
23.956250000000004
10
-77.943749999999994
20
24.956250000000004
10
-77.943749999999994
20
36.956249999999997
10
-76.943749999999994
20
37.956249999999997
10
-64.34375
20
37.956249999999997
0
LWPOLYLINE
5
138
100
AcDbEntity
8
0
100
AcDbPolyline
90
8
70
1
43
0.0
10
-82.393750000000011
20
36.956249999999997
10
-82.393750000000011
20
24.956250000000004
10
-83.393750000000011
20
23.956250000000004
10
-95.993750000000006
20
23.956250000000004
10
-96.99375000000002
20
24.956250000000004
10
-96.99375000000002
20
36.956249999999997
10
-95.993750000000006
20
37.956249999999997
10
-83.393750000000011
20
37.956249999999997
0
LWPOLYLINE
5
139
100
AcDbEntity
8
0
100
AcDbPolyline
90
8
70
1
43
0.0
10
-101.44374999999999
20
36.956249999999997
10
-101.44374999999999
20
24.956250000000004
10
-102.44374999999999
20
23.956250000000004
10
-115.04375000000002
20
23.956250000000004
10
-116.04375000000002
20
24.956250000000004
10
-116.04375000000002
20
36.956249999999997
10
-115.04375000000002
20
37.956249999999997
10
-102.44374999999999
20
37.956249999999997
0
LWPOLYLINE
5
140
100
AcDbEntity
8
0
100
AcDbPolyline
90
8
70
1
43
0.0
10
-120.49375000000001
20
36.956249999999997
10
-120.49375000000001
20
24.956250000000004
10
-121.49375000000001
20
23.956250000000004
10
-134.09375
20
23.956250000000004
10
-135.09375
20
24.956250000000004
10
-135.09375
20
36.956249999999997
10
-134.09375
20
37.956249999999997
10
-121.49375000000001
20
37.956249999999997
0
LWPOLYLINE
5
141
100
AcDbEntity
8
0
100
AcDbPolyline
90
8
70
1
43
0.0
10
-139.54374999999999
20
36.956249999999997
10
-139.54374999999999
20
24.956250000000004
10
-140.54374999999999
20
23.956250000000004
10
-153.14375000000001
20
23.956250000000004
10
-154.14375000000001
20
24.956250000000004
10
-154.14375000000001
20
36.956249999999997
10
-153.14375000000001
20
37.956249999999997
10
-140.54374999999999
20
37.956249999999997
0
LWPOLYLINE
5
142
100
AcDbEntity
8
0
100
AcDbPolyline
90
8
70
1
43
0.0
10
-158.59375
20
36.956249999999997
10
-158.59375
20
24.956250000000004
10
-159.59375
20
23.956250000000004
10
-172.19374999999999
20
23.956250000000004
10
-173.19375000000002
20
24.956250000000004
10
-173.19375000000002
20
36.956249999999997
10
-172.19374999999999
20
37.956249999999997
10
-159.59375
20
37.956249999999997
0
LWPOLYLINE
5
143
100
AcDbEntity
8
0
100
AcDbPolyline
90
8
70
1
43
0.0
10
-177.64375000000001
20
36.956249999999997
10
-177.64375000000001
20
24.956250000000004
10
-178.64375000000001
20
23.956250000000004
10
-191.24375000000001
20
23.956250000000004
10
-192.24375000000003
20
24.956250000000004
10
-192.24375000000003
20
36.956249999999997
10
-191.24375000000001
20
37.956249999999997
10
-178.64375000000001
20
37.956249999999997
0
LWPOLYLINE
5
144
100
AcDbEntity
8
0
100
AcDbPolyline
90
8
70
1
43
0.0
10
-196.69375000000002
20
36.956249999999997
10
-196.69375000000002
20
24.956250000000004
10
-197.69374999999999
20
23.956250000000004
10
-210.29375000000002
20
23.956250000000004
10
-211.29374999999999
20
24.956250000000004
10
-211.29374999999999
20
36.956249999999997
10
-210.29375000000002
20
37.956249999999997
10
-197.69374999999999
20
37.956249999999997
0
LWPOLYLINE
5
145
100
AcDbEntity
8
0
100
AcDbPolyline
90
8
70
1
43
0.0
10
-215.74375000000003
20
36.956249999999997
10
-215.74375000000003
20
24.956250000000004
10
-216.74375000000001
20
23.956250000000004
10
-229.34375000000003
20
23.956250000000004
10
-230.34375
20
24.956250000000004
10
-230.34375
20
36.956249999999997
10
-229.34375000000003
20
37.956249999999997
10
-216.74375000000001
20
37.956249999999997
0
LWPOLYLINE
5
146
100
AcDbEntity
8
0
100
AcDbPolyline
90
8
70
1
43
0.0
10
-241.9375
20
36.956249999999997
10
-241.9375
20
24.956250000000004
10
-242.93750000000003
20
23.956250000000004
10
-255.53750000000002
20
23.956250000000004
10
-256.53750000000002
20
24.956250000000004
10
-256.53750000000002
20
36.956249999999997
10
-255.53750000000002
20
37.956249999999997
10
-242.93750000000003
20
37.956249999999997
0
CIRCLE
5
147
100
AcDbEntity
8
0
100
AcDbCircle
10
-33.518878000000001
20
100.88124999999999
30
0
40
1.25
210
0
220
0
230
1
0
CIRCLE
5
148
100
AcDbEntity
8
0
100
AcDbCircle
10
-255.40637799999999
20
100.88124999999999
30
0
40
1.25
210
0
220
0
230
1
0
CIRCLE
5
149
100
AcDbEntity
8
0
100
AcDbCircle
10
-44.450000000000003
20
88.106250000000003
30
0
40
0.80000000000000016
210
0
220
0
230
1
0
CIRCLE
5
150
100
AcDbEntity
8
0
100
AcDbCircle
10
-68.262500000000003
20
88.106250000000003
30
0
40
0.80000000000000016
210
0
220
0
230
1
0
CIRCLE
5
151
100
AcDbEntity
8
0
100
AcDbCircle
10
-89.693749999999994
20
88.106250000000003
30
0
40
0.80000000000000016
210
0
220
0
230
1
0
CIRCLE
5
152
100
AcDbEntity
8
0
100
AcDbCircle
10
-187.32499999999999
20
88.106250000000003
30
0
40
0.80000000000000016
210
0
220
0
230
1
0
CIRCLE
5
153
100
AcDbEntity
8
0
100
AcDbCircle
10
-208.75624999999999
20
88.106250000000003
30
0
40
0.80000000000000016
210
0
220
0
230
1
0
CIRCLE
5
154
100
AcDbEntity
8
0
100
AcDbCircle
10
-246.85625000000002
20
88.106250000000003
30
0
40
0.80000000000000016
210
0
220
0
230
1
0
CIRCLE
5
155
100
AcDbEntity
8
0
100
AcDbCircle
10
-30.162500000000001
20
69.056250000000006
30
0
40
0.80000000000000016
210
0
220
0
230
1
0
CIRCLE
5
156
100
AcDbEntity
8
0
100
AcDbCircle
10
-94.456249999999997
20
69.056250000000006
30
0
40
0.80000000000000016
210
0
220
0
230
1
0
CIRCLE
5
157
100
AcDbEntity
8
0
100
AcDbCircle
10
-151.60624999999999
20
69.056250000000006
30
0
40
0.80000000000000016
210
0
220
0
230
1
0
CIRCLE
5
158
100
AcDbEntity
8
0
100
AcDbCircle
10
-208.75624999999999
20
69.056250000000006
30
0
40
0.80000000000000016
210
0
220
0
230
1
0
CIRCLE
5
159
100
AcDbEntity
8
0
100
AcDbCircle
10
-246.85625000000002
20
69.056250000000006
30
0
40
0.80000000000000016
210
0
220
0
230
1
0
CIRCLE
5
160
100
AcDbEntity
8
0
100
AcDbCircle
10
-25.399999999999999
20
50.006250000000001
30
0
40
0.80000000000000016
210
0
220
0
230
1
0
CIRCLE
5
161
100
AcDbEntity
8
0
100
AcDbCircle
10
-65.881249999999994
20
50.006250000000001
30
0
40
0.80000000000000016
210
0
220
0
230
1
0
CIRCLE
5
162
100
AcDbEntity
8
0
100
AcDbCircle
10
-103.98125
20
50.006250000000001
30
0
40
0.80000000000000016
210
0
220
0
230
1
0
CIRCLE
5
163
100
AcDbEntity
8
0
100
AcDbCircle
10
-142.08125000000001
20
50.006250000000001
30
0
40
0.80000000000000016
210
0
220
0
230
1
0
CIRCLE
5
164
100
AcDbEntity
8
0
100
AcDbCircle
10
-199.23124999999999
20
50.006250000000001
30
0
40
0.80000000000000016
210
0
220
0
230
1
0
CIRCLE
5
165
100
AcDbEntity
8
0
100
AcDbCircle
10
-242.09375
20
50.006250000000001
30
0
40
0.80000000000000016
210
0
220
0
230
1
0
CIRCLE
5
166
100
AcDbEntity
8
0
100
AcDbCircle
10
-42.068750000000001
20
30.956250000000001
30
0
40
0.80000000000000016
210
0
220
0
230
1
0
CIRCLE
5
167
100
AcDbEntity
8
0
100
AcDbCircle
10
-99.21875
20
30.956250000000001
30
0
40
0.80000000000000016
210
0
220
0
230
1
0
CIRCLE
5
168
100
AcDbEntity
8
0
100
AcDbCircle
10
-156.36875000000001
20
30.956250000000001
30
0
40
0.80000000000000016
210
0
220
0
230
1
0
CIRCLE
5
169
100
AcDbEntity
8
0
100
AcDbCircle
10
-213.51875000000004
20
30.956250000000001
30
0
40
0.80000000000000016
210
0
220
0
230
1
0
CIRCLE
5
170
100
AcDbEntity
8
0
100
AcDbCircle
10
-258.76249999999999
20
30.956250000000001
30
0
40
0.80000000000000016
210
0
220
0
230
1
0
CIRCLE
5
171
100
AcDbEntity
8
0
100
AcDbCircle
10
-33.518622000000001
20
18.181249999999999
30
0
40
1.25
210
0
220
0
230
1
0
CIRCLE
5
172
100
AcDbEntity
8
0
100
AcDbCircle
10
-255.40612200000001
20
18.181249999999999
30
0
40
1.25
210
0
220
0
230
1
0
ENDSEC
0
SECTION
2
OBJECTS
0
DICTIONARY
5
C
100
AcDbDictionary
3
ACAD_GROUP
350
D
3
ACAD_MLINESTYLE
350
17
0
DICTIONARY
5
D
100
AcDbDictionary
0
DICTIONARY
5
1A
330
C
100
AcDbDictionary
0
DICTIONARY
5
17
100
AcDbDictionary
0
ENDSEC
0
EOF
