0
SECTION
2
HEADER
9
$INSUNITS
70
4
9
$ACADVER
1
AC1014
9
$HANDSEED
5
FFFF
0
ENDSEC
0
SECTION
2
TABLES
0
TABLE
2
VPORT
5
8
100
AcDbSymbolTable
0
ENDTAB
0
TABLE
2
LTYPE
5
5
100
AcDbSymbolTable
0
LTYPE
5
14
100
AcDbSymbolTableRecord
100
AcDbLinetypeTableRecord
2
BYBLOCK
70
0
0
LTYPE
5
15
100
AcDbSymbolTableRecord
100
AcDbLinetypeTableRecord
2
BYLAYER
70
0
0
ENDTAB
0
TABLE
2
LAYER
5
2
100
AcDbSymbolTable
70
2
0
LAYER
5
50
100
AcDbSymbolTableRecord
100
AcDbLayerTableRecord
2
0
70
0
6
CONTINUOUS
0
ENDTAB
0
TABLE
2
STYLE
5
3
100
AcDbSymbolTable
70
1
0
STYLE
5
11
100
AcDbSymbolTableRecord
100
AcDbTextStyleTableRecord
2
STANDARD
70
0
0
ENDTAB
0
TABLE
2
VIEW
5
6
100
AcDbSymbolTable
70
0
0
ENDTAB
0
TABLE
2
UCS
5
7
100
AcDbSymbolTable
70
0
0
ENDTAB
0
TABLE
2
APPID
5
9
100
AcDbSymbolTable
70
2
0
APPID
5
12
100
AcDbSymbolTableRecord
100
AcDbRegAppTableRecord
2
ACAD
70
0
0
ENDTAB
0
TABLE
2
DIMSTYLE
5
A
100
AcDbSymbolTable
70
1
0
ENDTAB
0
TABLE
2
BLOCK_RECORD
5
1
100
AcDbSymbolTable
70
1
0
BLOCK_RECORD
5
1F
100
AcDbSymbolTableRecord
100
AcDbBlockTableRecord
2
*MODEL_SPACE
0
BLOCK_RECORD
5
1B
100
AcDbSymbolTableRecord
100
AcDbBlockTableRecord
2
*PAPER_SPACE
0
ENDTAB
0
ENDSEC
0
SECTION
2
BLOCKS
0
BLOCK
5
20
100
AcDbEntity
100
AcDbBlockBegin
2
*MODEL_SPACE
0
ENDBLK
5
21
100
AcDbEntity
100
AcDbBlockEnd
0
BLOCK
5
1C
100
AcDbEntity
100
AcDbBlockBegin
2
*PAPER_SPACE
0
ENDBLK
5
1D
100
AcDbEntity
100
AcDbBlockEnd
0
ENDSEC
0
SECTION
2
ENTITIES
0
LWPOLYLINE
5
100
100
AcDbEntity
8
0
100
AcDbPolyline
90
150
70
1
43
0.0
10
-252.10351000000003
20
47.570582999999999
10
-251.788747
20
47.512898000000007
10
-251.469326
20
47.493572
10
-46.969326000000002
20
47.493572
10
-46.649903999999999
20
47.512894000000003
10
-46.33514000000001
20
47.570577
10
-46.029623999999998
20
47.665779999999998
10
-45.737811999999998
20
47.797115000000005
10
-45.463957000000008
20
47.962665999999999
10
-45.212054000000002
20
48.16002000000001
10
-44.985776000000001
20
48.386297999999996
10
-44.788423000000002
20
48.638202
10
-44.622872000000001
20
48.912057000000004
10
-44.491538000000006
20
49.203870000000009
10
-44.396335999999998
20
49.509386000000006
10
-44.338653000000001
20
49.824150000000003
10
-44.319325999999997
20
50.143571999999999
10
-44.319325999999997
20
121.693572
10
-44.338571999999999
20
121.987257
10
-44.395987000000005
20
122.275918
10
-44.490589999999997
20
122.55461400000002
10
-44.620759999999997
20
122.818578
10
-44.784272000000001
20
123.06329300000002
10
-44.978327
20
123.28457100000001
10
-45.199604999999998
20
123.478627
10
-45.444319999999998
20
123.64213900000001
10
-45.708283999999999
20
123.77231000000002
10
-45.986980000000003
20
123.86691200000001
10
-46.275641
20
123.92432800000002
10
-46.569326000000004
20
123.94357200000002
10
-70.894326000000007
20
123.94357200000002
10
-71.188006000000001
20
123.92431999999999
10
-71.476660999999993
20
123.866899
10
-71.755351000000019
20
123.77229300000002
10
-72.019309000000007
20
123.64212000000002
10
-72.264016999999996
20
123.47860600000001
10
-72.48529000000002
20
123.28455099999999
10
-72.679338999999999
20
123.06327500000002
10
-72.842847000000006
20
122.818562
10
-72.973014000000006
20
122.55460200000002
10
-73.067612999999994
20
122.27590900000001
10
-73.125027000000003
20
121.987253
10
-73.144326000000007
20
121.693572
10
-73.144326000000007
20
106.64357200000001
10
-73.165862000000004
20
106.369811
10
-73.229961000000003
20
106.10279
10
-73.335045000000008
20
105.849085
10
-73.478526000000002
20
105.61494400000001
10
-73.656870999999995
20
105.40613300000001
10
-73.865688000000006
20
105.227795
10
-74.099833000000004
20
105.084321
10
-74.353541000000007
20
104.97924400000001
10
-74.620564000000002
20
104.91515300000002
10
-74.894326000000007
20
104.89357200000001
10
-90.194326000000004
20
104.89357200000001
10
-90.468085000000002
20
104.91512100000001
10
-90.735103000000009
20
104.979229
10
-90.988804999999999
20
105.084318
10
-91.222943999999998
20
105.2278
10
-91.431755999999993
20
105.40614300000001
10
-91.610099000000019
20
105.614954
10
-91.753580999999997
20
105.849093
10
-91.858670000000004
20
106.10279500000001
10
-91.922779000000006
20
106.36981300000001
10
-91.944326000000004
20
106.64357200000001
10
-91.944326000000004
20
121.693572
10
-91.963571999999999
20
121.987257
10
-92.020987000000005
20
122.275918
10
-92.115589999999997
20
122.55461400000002
10
-92.245760000000004
20
122.818578
10
-92.409272000000001
20
123.06329300000002
10
-92.603326999999993
20
123.28457100000001
10
-92.824605000000005
20
123.478627
10
-93.069320000000019
20
123.64213900000001
10
-93.333284000000006
20
123.77231000000002
10
-93.611980000000003
20
123.86691200000001
10
-93.900641000000007
20
123.92432800000002
10
-94.194326000000004
20
123.94357200000002
10
-204.24432600000003
20
123.94357200000002
10
-204.53800200000003
20
123.924308
10
-204.82665100000003
20
123.866879
10
-205.10533600000002
20
123.772266
10
-205.36928800000001
20
123.64209000000001
10
-205.613992
20
123.478576
10
-205.83526000000003
20
123.28452200000001
10
-206.02930900000004
20
123.063249
10
-206.19281700000002
20
122.81854100000001
10
-206.32298700000004
20
122.554586
10
-206.41759300000004
20
122.275899
10
-206.47501500000004
20
121.98724800000001
10
-206.494326
20
121.693572
10
-206.494326
20
106.64357200000001
10
-206.515862
20
106.369811
10
-206.57996100000003
20
106.10279
10
-206.685045
20
105.849085
10
-206.82852600000004
20
105.61494400000001
10
-207.00687099999999
20
105.40613300000001
10
-207.215688
20
105.227795
10
-207.44983300000001
20
105.084321
10
-207.70354100000003
20
104.97924400000001
10
-207.97056400000002
20
104.91515300000002
10
-208.244326
20
104.89357200000001
10
-223.54432600000001
20
104.89357200000001
10
-223.81808500000002
20
104.91512100000001
10
-224.08510300000003
20
104.979229
10
-224.33880500000001
20
105.084318
10
-224.57294400000001
20
105.2278
10
-224.781756
20
105.40614300000001
10
-224.96009900000004
20
105.614954
10
-225.10358100000002
20
105.849093
10
-225.20867000000004
20
106.10279500000001
10
-225.27277900000001
20
106.36981300000001
10
-225.29432600000004
20
106.64357200000001
10
-225.29432600000004
20
121.693572
10
-225.31357200000002
20
121.987257
10
-225.37098700000001
20
122.275918
10
-225.46559000000002
20
122.55461400000002
10
-225.59576000000004
20
122.818578
10
-225.75927200000001
20
123.06329300000002
10
-225.953327
20
123.28457100000001
10
-226.17460500000004
20
123.478627
10
-226.41932
20
123.64213900000001
10
-226.68328400000001
20
123.77231000000002
10
-226.96198000000004
20
123.86691200000001
10
-227.250641
20
123.92432800000002
10
-227.54432600000001
20
123.94357200000002
10
-251.86932600000003
20
123.94357200000002
10
-252.16300200000003
20
123.924308
10
-252.45165100000003
20
123.866879
10
-252.73033600000002
20
123.772266
10
-252.99428800000001
20
123.64209000000001
10
-253.238992
20
123.478576
10
-253.46026000000001
20
123.28452200000001
10
-253.65430900000004
20
123.063249
10
-253.81781700000002
20
122.81854100000001
10
-253.94798700000001
20
122.554586
10
-254.04259300000004
20
122.275899
10
-254.10001500000004
20
121.98724800000001
10
-254.119326
20
121.693572
10
-254.119326
20
50.143571999999999
10
-254.10000100000002
20
49.824151000000008
10
-254.04231600000003
20
49.509388000000001
10
-253.94711200000003
20
49.203873000000009
10
-253.815776
20
48.912061000000008
10
-253.65022500000003
20
48.638207999999999
10
-253.45287100000002
20
48.386305000000007
10
-253.22659300000001
20
48.160027999999997
10
-252.97469100000001
20
47.962674000000007
10
-252.70083700000001
20
47.797122999999999
10
-252.40902500000004
20
47.665787000000002
0
LWPOLYLINE
5
101
100
AcDbEntity
8
0
100
AcDbPolyline
90
34
70
1
43
0.0
10
-251.41398899999999
20
112.896473
10
-251.622592
20
112.85747800000001
10
-251.83481
20
112.85747800000001
10
-252.04341299999999
20
112.896473
10
-252.24130000000002
20
112.973134
10
-252.42173100000002
20
113.084852
10
-252.57856100000001
20
113.227822
10
-252.70645099999999
20
113.397175
10
-252.80104399999999
20
113.587144
10
-252.85911999999999
20
113.79125999999999
10
-252.87870100000004
20
114.002572
10
-252.85911999999999
20
114.21388399999999
10
-252.80104399999999
20
114.41800000000001
10
-252.70645099999999
20
114.607969
10
-252.57856100000001
20
114.777322
10
-252.42173100000002
20
114.92029200000002
10
-252.24130000000002
20
115.03201000000001
10
-252.04341299999999
20
115.108671
10
-251.83481
20
115.14766600000002
10
-251.622592
20
115.14766600000002
10
-251.41398899999999
20
115.108671
10
-251.21610200000003
20
115.03201000000001
10
-251.03567100000004
20
114.92029200000002
10
-250.87884099999999
20
114.777322
10
-250.75095099999999
20
114.607969
10
-250.65635800000001
20
114.41800000000001
10
-250.59828200000001
20
114.21388399999999
10
-250.57870100000002
20
114.002572
10
-250.59828200000001
20
113.79125999999999
10
-250.65635800000001
20
113.587144
10
-250.75095099999999
20
113.397175
10
-250.87884099999999
20
113.227822
10
-251.03567100000004
20
113.084852
10
-251.21610200000003
20
112.973134
0
LWPOLYLINE
5
102
100
AcDbEntity
8
0
100
AcDbPolyline
90
8
70
1
43
0.0
10
-232.41250000000002
20
108.3
10
-233.41250000000002
20
107.30000000000001
10
-246.01249999999999
20
107.30000000000001
10
-247.01250000000002
20
108.3
10
-247.01250000000002
20
120.30000000000001
10
-246.01249999999999
20
121.30000000000001
10
-233.41250000000002
20
121.30000000000001
10
-232.41250000000002
20
120.30000000000001
0
LWPOLYLINE
5
103
100
AcDbEntity
8
0
100
AcDbPolyline
90
28
70
1
43
0.0
10
-230.00948300000002
20
113.52005800000001
10
-230.1875
20
113.50000000000001
10
-230.36551700000004
20
113.52005800000001
10
-230.53460700000002
20
113.57922500000001
10
-230.68629200000004
20
113.67453500000002
10
-230.81296500000002
20
113.801208
10
-230.90827500000003
20
113.95289300000002
10
-230.96744200000003
20
114.121983
10
-230.98750000000001
20
114.3
10
-230.96744200000003
20
114.47801699999999
10
-230.90827500000003
20
114.64710700000001
10
-230.81296500000002
20
114.79879200000001
10
-230.68629200000004
20
114.92546500000002
10
-230.53460700000002
20
115.020775
10
-230.36551700000004
20
115.079942
10
-230.1875
20
115.09999999999999
10
-230.00948300000002
20
115.079942
10
-229.84039300000003
20
115.020775
10
-229.68870800000002
20
114.92546500000002
10
-229.56203500000001
20
114.79879200000001
10
-229.46672500000003
20
114.64710700000001
10
-229.40755800000002
20
114.47801699999999
10
-229.38749999999999
20
114.3
10
-229.40755800000002
20
114.121983
10
-229.46672500000003
20
113.95289300000002
10
-229.56203500000001
20
113.801208
10
-229.68870800000002
20
113.67453500000002
10
-229.84039300000003
20
113.57922500000001
0
LWPOLYLINE
5
104
100
AcDbEntity
8
0
100
AcDbPolyline
90
8
70
1
43
0.0
10
-187.16999999999999
20
108.3
10
-188.17000000000002
20
107.30000000000001
10
-200.77000000000001
20
107.30000000000001
10
-201.77000000000004
20
108.3
10
-201.77000000000004
20
120.30000000000001
10
-200.77000000000001
20
121.30000000000001
10
-188.17000000000002
20
121.30000000000001
10
-187.16999999999999
20
120.30000000000001
0
LWPOLYLINE
5
105
100
AcDbEntity
8
0
100
AcDbPolyline
90
4
70
1
43
0.0
10
-178.396424
20
117.33388600000001
10
-178.396424
20
111.19899700000002
10
-182.01096100000001
20
111.19899700000002
10
-182.01096100000001
20
117.33388600000001
0
LWPOLYLINE
5
106
100
AcDbEntity
8
0
100
AcDbPolyline
90
28
70
1
43
0.0
10
-175.24073300000001
20
113.52005800000001
10
-175.41875000000002
20
113.50000000000001
10
-175.596767
20
113.52005800000001
10
-175.76585700000004
20
113.57922500000001
10
-175.917542
20
113.67453500000002
10
-176.04421500000001
20
113.801208
10
-176.13952499999999
20
113.95289300000002
10
-176.19869199999999
20
114.121983
10
-176.21875
20
114.3
10
-176.19869199999999
20
114.47801699999999
10
-176.13952499999999
20
114.64710700000001
10
-176.04421500000001
20
114.79879200000001
10
-175.917542
20
114.92546500000002
10
-175.76585700000004
20
115.020775
10
-175.596767
20
115.079942
10
-175.41875000000002
20
115.09999999999999
10
-175.24073300000001
20
115.079942
10
-175.07164299999999
20
115.020775
10
-174.91995800000001
20
114.92546500000002
10
-174.79328500000003
20
114.79879200000001
10
-174.69797500000001
20
114.64710700000001
10
-174.63880800000001
20
114.47801699999999
10
-174.61875000000003
20
114.3
10
-174.63880800000001
20
114.121983
10
-174.69797500000001
20
113.95289300000002
10
-174.79328500000003
20
113.801208
10
-174.91995800000001
20
113.67453500000002
10
-175.07164299999999
20
113.57922500000001
0
LWPOLYLINE
5
107
100
AcDbEntity
8
0
100
AcDbPolyline
90
8
70
1
43
0.0
10
-158.59200000000001
20
108.3
10
-159.59200000000004
20
107.30000000000001
10
-172.19200000000001
20
107.30000000000001
10
-173.19200000000001
20
108.3
10
-173.19200000000001
20
120.30000000000001
10
-172.19200000000001
20
121.30000000000001
10
-159.59200000000004
20
121.30000000000001
10
-158.59200000000001
20
120.30000000000001
0
LWPOLYLINE
5
108
100
AcDbEntity
8
0
100
AcDbPolyline
90
8
70
1
43
0.0
10
-234.79500000000002
20
89.25
10
-235.79499999999999
20
88.250000000000014
10
-248.39500000000001
20
88.250000000000014
10
-249.39500000000004
20
89.25
10
-249.39500000000004
20
101.25
10
-248.39500000000001
20
102.25000000000001
10
-235.79499999999999
20
102.25000000000001
10
-234.79500000000002
20
101.25
0
LWPOLYLINE
5
109
100
AcDbEntity
8
0
100
AcDbPolyline
90
28
70
1
43
0.0
10
-232.39073300000001
20
94.470057999999995
10
-232.56875000000002
20
94.450000000000003
10
-232.74676700000001
20
94.470057999999995
10
-232.91585699999999
20
94.529224999999997
10
-233.067542
20
94.624535000000009
10
-233.19421500000004
20
94.751208000000005
10
-233.289525
20
94.902893000000006
10
-233.348692
20
95.071983000000003
10
-233.36875000000003
20
95.25
10
-233.348692
20
95.428016999999997
10
-233.289525
20
95.597106999999994
10
-233.19421500000004
20
95.748791999999995
10
-233.067542
20
95.875465000000005
10
-232.91585699999999
20
95.970775000000003
10
-232.74676700000001
20
96.029942000000005
10
-232.56875000000002
20
96.050000000000011
10
-232.39073300000001
20
96.029942000000005
10
-232.22164300000003
20
95.970775000000003
10
-232.06995800000001
20
95.875465000000005
10
-231.943285
20
95.748791999999995
10
-231.84797500000002
20
95.597106999999994
10
-231.78880800000002
20
95.428016999999997
10
-231.76875000000001
20
95.25
10
-231.78880800000002
20
95.071983000000003
10
-231.84797500000002
20
94.902893000000006
10
-231.943285
20
94.751208000000005
10
-232.06995800000001
20
94.624535000000009
10
-232.22164300000003
20
94.529224999999997
0
LWPOLYLINE
5
110
100
AcDbEntity
8
0
100
AcDbPolyline
90
8
70
1
43
0.0
10
-213.36250000000004
20
89.25
10
-214.36250000000001
20
88.250000000000014
10
-226.96250000000003
20
88.250000000000014
10
-227.96250000000001
20
89.25
10
-227.96250000000001
20
101.25
10
-226.96250000000003
20
102.25000000000001
10
-214.36250000000001
20
102.25000000000001
10
-213.36250000000004
20
101.25
0
LWPOLYLINE
5
111
100
AcDbEntity
8
0
100
AcDbPolyline
90
8
70
1
43
0.0
10
-194.31250000000003
20
89.25
10
-195.3125
20
88.250000000000014
10
-207.91250000000002
20
88.250000000000014
10
-208.91249999999999
20
89.25
10
-208.91249999999999
20
101.25
10
-207.91250000000002
20
102.25000000000001
10
-195.3125
20
102.25000000000001
10
-194.31250000000003
20
101.25
0
LWPOLYLINE
5
112
100
AcDbEntity
8
0
100
AcDbPolyline
90
28
70
1
43
0.0
10
-191.90948299999999
20
94.470057999999995
10
-192.08750000000003
20
94.450000000000003
10
-192.26551700000002
20
94.470057999999995
10
-192.434607
20
94.529224999999997
10
-192.58629200000001
20
94.624535000000009
10
-192.71296500000003
20
94.751208000000005
10
-192.80827500000001
20
94.902893000000006
10
-192.86744200000001
20
95.071983000000003
10
-192.88749999999999
20
95.25
10
-192.86744200000001
20
95.428016999999997
10
-192.80827500000001
20
95.597106999999994
10
-192.71296500000003
20
95.748791999999995
10
-192.58629200000001
20
95.875465000000005
10
-192.434607
20
95.970775000000003
10
-192.26551700000002
20
96.029942000000005
10
-192.08750000000003
20
96.050000000000011
10
-191.90948299999999
20
96.029942000000005
10
-191.74039300000001
20
95.970775000000003
10
-191.588708
20
95.875465000000005
10
-191.46203499999999
20
95.748791999999995
10
-191.366725
20
95.597106999999994
10
-191.307558
20
95.428016999999997
10
-191.28749999999999
20
95.25
10
-191.307558
20
95.071983000000003
10
-191.366725
20
94.902893000000006
10
-191.46203499999999
20
94.751208000000005
10
-191.588708
20
94.624535000000009
10
-191.74039300000001
20
94.529224999999997
0
LWPOLYLINE
5
113
100
AcDbEntity
8
0
100
AcDbPolyline
90
8
70
1
43
0.0
10
-175.26250000000002
20
89.25
10
-176.26249999999999
20
88.250000000000014
10
-188.86250000000001
20
88.250000000000014
10
-189.86250000000001
20
89.25
10
-189.86250000000001
20
101.25
10
-188.86250000000001
20
102.25000000000001
10
-176.26249999999999
20
102.25000000000001
10
-175.26250000000002
20
101.25
0
LWPOLYLINE
5
114
100
AcDbEntity
8
0
100
AcDbPolyline
90
8
70
1
43
0.0
10
-156.21250000000001
20
89.25
10
-157.21250000000001
20
88.250000000000014
10
-169.8125
20
88.250000000000014
10
-170.8125
20
89.25
10
-170.8125
20
101.25
10
-169.8125
20
102.25000000000001
10
-157.21250000000001
20
102.25000000000001
10
-156.21250000000001
20
101.25
0
LWPOLYLINE
5
115
100
AcDbEntity
8
0
100
AcDbPolyline
90
28
70
1
43
0.0
10
-153.809483
20
94.470057999999995
10
-153.98750000000001
20
94.450000000000003
10
-154.16551699999999
20
94.470057999999995
10
-154.33460700000001
20
94.529224999999997
10
-154.48629199999999
20
94.624535000000009
10
-154.612965
20
94.751208000000005
10
-154.70827499999999
20
94.902893000000006
10
-154.76744199999999
20
95.071983000000003
10
-154.78749999999999
20
95.25
10
-154.76744199999999
20
95.428016999999997
10
-154.70827499999999
20
95.597106999999994
10
-154.612965
20
95.748791999999995
10
-154.48629199999999
20
95.875465000000005
10
-154.33460700000001
20
95.970775000000003
10
-154.16551699999999
20
96.029942000000005
10
-153.98750000000001
20
96.050000000000011
10
-153.809483
20
96.029942000000005
10
-153.64039299999999
20
95.970775000000003
10
-153.488708
20
95.875465000000005
10
-153.36203499999999
20
95.748791999999995
10
-153.26672500000001
20
95.597106999999994
10
-153.20755800000001
20
95.428016999999997
10
-153.1875
20
95.25
10
-153.20755800000001
20
95.071983000000003
10
-153.26672500000001
20
94.902893000000006
10
-153.36203499999999
20
94.751208000000005
10
-153.488708
20
94.624535000000009
10
-153.64039299999999
20
94.529224999999997
0
LWPOLYLINE
5
116
100
AcDbEntity
8
0
100
AcDbPolyline
90
8
70
1
43
0.0
10
-125.25500000000001
20
108.3
10
-126.25500000000001
20
107.30000000000001
10
-138.85500000000002
20
107.30000000000001
10
-139.85499999999999
20
108.3
10
-139.85499999999999
20
120.30000000000001
10
-138.85500000000002
20
121.30000000000001
10
-126.25500000000001
20
121.30000000000001
10
-125.25500000000001
20
120.30000000000001
0
LWPOLYLINE
5
117
100
AcDbEntity
8
0
100
AcDbPolyline
90
28
70
1
43
0.0
10
-122.85323300000002
20
113.52005800000001
10
-123.03125000000001
20
113.50000000000001
10
-123.20926700000001
20
113.52005800000001
10
-123.37835699999999
20
113.57922500000001
10
-123.53004200000001
20
113.67453500000002
10
-123.65671500000002
20
113.801208
10
-123.752025
20
113.95289300000002
10
-123.81119200000001
20
114.121983
10
-123.83125
20
114.3
10
-123.81119200000001
20
114.47801699999999
10
-123.752025
20
114.64710700000001
10
-123.65671500000002
20
114.79879200000001
10
-123.53004200000001
20
114.92546500000002
10
-123.37835699999999
20
115.020775
10
-123.20926700000001
20
115.079942
10
-123.03125000000001
20
115.09999999999999
10
-122.85323300000002
20
115.079942
10
-122.68414300000002
20
115.020775
10
-122.53245800000002
20
114.92546500000002
10
-122.40578499999999
20
114.79879200000001
10
-122.31047500000001
20
114.64710700000001
10
-122.25130800000001
20
114.47801699999999
10
-122.23125000000002
20
114.3
10
-122.25130800000001
20
114.121983
10
-122.31047500000001
20
113.95289300000002
10
-122.40578499999999
20
113.801208
10
-122.53245800000002
20
113.67453500000002
10
-122.68414300000002
20
113.57922500000001
0
LWPOLYLINE
5
118
100
AcDbEntity
8
0
100
AcDbPolyline
90
8
70
1
43
0.0
10
-96.680000000000007
20
108.3
10
-97.680000000000007
20
107.30000000000001
10
-110.28
20
107.30000000000001
10
-111.28
20
108.3
10
-111.28
20
120.30000000000001
10
-110.28
20
121.30000000000001
10
-97.680000000000007
20
121.30000000000001
10
-96.680000000000007
20
120.30000000000001
0
LWPOLYLINE
5
119
100
AcDbEntity
8
0
100
AcDbPolyline
90
28
70
1
43
0.0
10
-68.084483000000006
20
113.52005800000001
10
-68.262500000000003
20
113.50000000000001
10
-68.440517
20
113.52005800000001
10
-68.609606999999997
20
113.57922500000001
10
-68.761291999999997
20
113.67453500000002
10
-68.887964999999994
20
113.801208
10
-68.983275000000006
20
113.95289300000002
10
-69.042441999999994
20
114.121983
10
-69.0625
20
114.3
10
-69.042441999999994
20
114.47801699999999
10
-68.983275000000006
20
114.64710700000001
10
-68.887964999999994
20
114.79879200000001
10
-68.761291999999997
20
114.92546500000002
10
-68.609606999999997
20
115.020775
10
-68.440517
20
115.079942
10
-68.262500000000003
20
115.09999999999999
10
-68.084483000000006
20
115.079942
10
-67.915392999999995
20
115.020775
10
-67.763707999999994
20
114.92546500000002
10
-67.637034999999997
20
114.79879200000001
10
-67.541725
20
114.64710700000001
10
-67.482557999999997
20
114.47801699999999
10
-67.462500000000006
20
114.3
10
-67.482557999999997
20
114.121983
10
-67.541725
20
113.95289300000002
10
-67.637034999999997
20
113.801208
10
-67.763707999999994
20
113.67453500000002
10
-67.915392999999995
20
113.57922500000001
0
LWPOLYLINE
5
120
100
AcDbEntity
8
0
100
AcDbPolyline
90
8
70
1
43
0.0
10
-51.23125000000001
20
108.3
10
-52.231250000000003
20
107.30000000000001
10
-64.831249999999997
20
107.30000000000001
10
-65.831249999999997
20
108.3
10
-65.831249999999997
20
120.30000000000001
10
-64.831249999999997
20
121.30000000000001
10
-52.231250000000003
20
121.30000000000001
10
-51.23125000000001
20
120.30000000000001
0
LWPOLYLINE
5
121
100
AcDbEntity
8
0
100
AcDbPolyline
90
34
70
1
43
0.0
10
-46.395614000000009
20
112.896473
10
-46.604216999999998
20
112.85747800000001
10
-46.816434999999998
20
112.85747800000001
10
-47.025038000000009
20
112.896473
10
-47.222925000000004
20
112.973134
10
-47.403356000000009
20
113.084852
10
-47.560186000000002
20
113.227822
10
-47.688076000000009
20
113.397175
10
-47.782668999999999
20
113.587144
10
-47.840744999999998
20
113.79125999999999
10
-47.860326000000001
20
114.002572
10
-47.840744999999998
20
114.21388399999999
10
-47.782668999999999
20
114.41800000000001
10
-47.688076000000009
20
114.607969
10
-47.560186000000002
20
114.777322
10
-47.403356000000009
20
114.92029200000002
10
-47.222925000000004
20
115.03201000000001
10
-47.025038000000009
20
115.108671
10
-46.816434999999998
20
115.14766600000002
10
-46.604216999999998
20
115.14766600000002
10
-46.395614000000009
20
115.108671
10
-46.197727
20
115.03201000000001
10
-46.017296000000002
20
114.92029200000002
10
-45.860466000000002
20
114.777322
10
-45.732576000000009
20
114.607969
10
-45.637983000000006
20
114.41800000000001
10
-45.579907000000006
20
114.21388399999999
10
-45.560326000000011
20
114.002572
10
-45.579907000000006
20
113.79125999999999
10
-45.637983000000006
20
113.587144
10
-45.732576000000009
20
113.397175
10
-45.860466000000002
20
113.227822
10
-46.017296000000002
20
113.084852
10
-46.197727
20
112.973134
0
LWPOLYLINE
5
122
100
AcDbEntity
8
0
100
AcDbPolyline
90
8
70
1
43
0.0
10
-137.16249999999999
20
89.25
10
-138.16249999999999
20
88.250000000000014
10
-150.76249999999999
20
88.250000000000014
10
-151.76249999999999
20
89.25
10
-151.76249999999999
20
101.25
10
-150.76249999999999
20
102.25000000000001
10
-138.16249999999999
20
102.25000000000001
10
-137.16249999999999
20
101.25
0
LWPOLYLINE
5
123
100
AcDbEntity
8
0
100
AcDbPolyline
90
8
70
1
43
0.0
10
-118.11250000000001
20
89.25
10
-119.11250000000001
20
88.250000000000014
10
-131.71250000000001
20
88.250000000000014
10
-132.71250000000003
20
89.25
10
-132.71250000000003
20
101.25
10
-131.71250000000001
20
102.25000000000001
10
-119.11250000000001
20
102.25000000000001
10
-118.11250000000001
20
101.25
0
LWPOLYLINE
5
124
100
AcDbEntity
8
0
100
AcDbPolyline
90
28
70
1
43
0.0
10
-115.70948300000001
20
94.470057999999995
10
-115.88750000000002
20
94.450000000000003
10
-116.065517
20
94.470057999999995
10
-116.23460700000001
20
94.529224999999997
10
-116.386292
20
94.624535000000009
10
-116.51296500000001
20
94.751208000000005
10
-116.60827500000002
20
94.902893000000006
10
-116.66744199999999
20
95.071983000000003
10
-116.68750000000001
20
95.25
10
-116.66744199999999
20
95.428016999999997
10
-116.60827500000002
20
95.597106999999994
10
-116.51296500000001
20
95.748791999999995
10
-116.386292
20
95.875465000000005
10
-116.23460700000001
20
95.970775000000003
10
-116.065517
20
96.029942000000005
10
-115.88750000000002
20
96.050000000000011
10
-115.70948300000001
20
96.029942000000005
10
-115.54039299999999
20
95.970775000000003
10
-115.38870799999999
20
95.875465000000005
10
-115.26203500000001
20
95.748791999999995
10
-115.166725
20
95.597106999999994
10
-115.107558
20
95.428016999999997
10
-115.08750000000001
20
95.25
10
-115.107558
20
95.071983000000003
10
-115.166725
20
94.902893000000006
10
-115.26203500000001
20
94.751208000000005
10
-115.38870799999999
20
94.624535000000009
10
-115.54039299999999
20
94.529224999999997
0
LWPOLYLINE
5
125
100
AcDbEntity
8
0
100
AcDbPolyline
90
8
70
1
43
0.0
10
-99.0625
20
89.25
10
-100.06250000000001
20
88.250000000000014
10
-112.66249999999999
20
88.250000000000014
10
-113.66250000000001
20
89.25
10
-113.66250000000001
20
101.25
10
-112.66249999999999
20
102.25000000000001
10
-100.06250000000001
20
102.25000000000001
10
-99.0625
20
101.25
0
LWPOLYLINE
5
126
100
AcDbEntity
8
0
100
AcDbPolyline
90
8
70
1
43
0.0
10
-80.012500000000003
20
89.25
10
-81.012500000000003
20
88.250000000000014
10
-93.612499999999997
20
88.250000000000014
10
-94.612499999999997
20
89.25
10
-94.612499999999997
20
101.25
10
-93.612499999999997
20
102.25000000000001
10
-81.012500000000003
20
102.25000000000001
10
-80.012500000000003
20
101.25
0
LWPOLYLINE
5
127
100
AcDbEntity
8
0
100
AcDbPolyline
90
28
70
1
43
0.0
10
-70.465733
20
94.470057999999995
10
-70.643749999999997
20
94.450000000000003
10
-70.821766999999994
20
94.470057999999995
10
-70.990857000000005
20
94.529224999999997
10
-71.14254200000002
20
94.624535000000009
10
-71.269215000000003
20
94.751208000000005
10
-71.364525000000015
20
94.902893000000006
10
-71.423692000000017
20
95.071983000000003
10
-71.443749999999994
20
95.25
10
-71.423692000000017
20
95.428016999999997
10
-71.364525000000015
20
95.597106999999994
10
-71.269215000000003
20
95.748791999999995
10
-71.14254200000002
20
95.875465000000005
10
-70.990857000000005
20
95.970775000000003
10
-70.821766999999994
20
96.029942000000005
10
-70.643749999999997
20
96.050000000000011
10
-70.465733
20
96.029942000000005
10
-70.296643000000003
20
95.970775000000003
10
-70.144958000000003
20
95.875465000000005
10
-70.018285000000006
20
95.748791999999995
10
-69.922974999999994
20
95.597106999999994
10
-69.863808000000006
20
95.428016999999997
10
-69.84375
20
95.25
10
-69.863808000000006
20
95.071983000000003
10
-69.922974999999994
20
94.902893000000006
10
-70.018285000000006
20
94.751208000000005
10
-70.144958000000003
20
94.624535000000009
10
-70.296643000000003
20
94.529224999999997
0
LWPOLYLINE
5
128
100
AcDbEntity
8
0
100
AcDbPolyline
90
8
70
1
43
0.0
10
-53.820000000000007
20
89.25
10
-54.82
20
88.250000000000014
10
-67.420000000000016
20
88.250000000000014
10
-68.420000000000002
20
89.25
10
-68.420000000000002
20
101.25
10
-67.420000000000016
20
102.25000000000001
10
-54.82
20
102.25000000000001
10
-53.820000000000007
20
101.25
0
LWPOLYLINE
5
129
100
AcDbEntity
8
0
100
AcDbPolyline
90
8
70
1
43
0.0
10
-230.03
20
70.200000000000003
10
-231.03000000000003
20
69.200000000000003
10
-243.63
20
69.200000000000003
10
-244.63
20
70.200000000000003
10
-244.63
20
82.200000000000003
10
-243.63
20
83.200000000000003
10
-231.03000000000003
20
83.200000000000003
10
-230.03
20
82.200000000000003
0
LWPOLYLINE
5
130
100
AcDbEntity
8
0
100
AcDbPolyline
90
28
70
1
43
0.0
10
-220.48448300000004
20
75.420057999999997
10
-220.66249999999999
20
75.400000000000006
10
-220.84051700000003
20
75.420057999999997
10
-221.00960700000002
20
75.479225
10
-221.16129200000003
20
75.574534999999997
10
-221.28796500000004
20
75.701207999999994
10
-221.38327500000003
20
75.852892999999995
10
-221.44244200000003
20
76.021983000000006
10
-221.46250000000003
20
76.200000000000017
10
-221.44244200000003
20
76.378017
10
-221.38327500000003
20
76.547106999999997
10
-221.28796500000004
20
76.698791999999997
10
-221.16129200000003
20
76.825464999999994
10
-221.00960700000002
20
76.920775000000006
10
-220.84051700000003
20
76.979941999999994
10
-220.66249999999999
20
77
10
-220.48448300000004
20
76.979941999999994
10
-220.31539300000003
20
76.920775000000006
10
-220.16370800000004
20
76.825464999999994
10
-220.037035
20
76.698791999999997
10
-219.94172500000002
20
76.547106999999997
10
-219.88255800000002
20
76.378017
10
-219.86250000000001
20
76.200000000000017
10
-219.88255800000002
20
76.021983000000006
10
-219.94172500000002
20
75.852892999999995
10
-220.037035
20
75.701207999999994
10
-220.16370800000004
20
75.574534999999997
10
-220.31539300000003
20
75.479225
0
LWPOLYLINE
5
131
100
AcDbEntity
8
0
100
AcDbPolyline
90
8
70
1
43
0.0
10
-203.83750000000003
20
70.200000000000003
10
-204.83750000000001
20
69.200000000000003
10
-217.43750000000003
20
69.200000000000003
10
-218.4375
20
70.200000000000003
10
-218.4375
20
82.200000000000003
10
-217.43750000000003
20
83.200000000000003
10
-204.83750000000001
20
83.200000000000003
10
-203.83750000000003
20
82.200000000000003
0
LWPOLYLINE
5
132
100
AcDbEntity
8
0
100
AcDbPolyline
90
8
70
1
43
0.0
10
-184.78750000000002
20
70.200000000000003
10
-185.78749999999999
20
69.200000000000003
10
-198.38750000000002
20
69.200000000000003
10
-199.38749999999999
20
70.200000000000003
10
-199.38749999999999
20
82.200000000000003
10
-198.38750000000002
20
83.200000000000003
10
-185.78749999999999
20
83.200000000000003
10
-184.78750000000002
20
82.200000000000003
0
LWPOLYLINE
5
133
100
AcDbEntity
8
0
100
AcDbPolyline
90
28
70
1
43
0.0
10
-182.38448299999999
20
75.420057999999997
10
-182.5625
20
75.400000000000006
10
-182.74051700000001
20
75.420057999999997
10
-182.90960699999999
20
75.479225
10
-183.06129200000001
20
75.574534999999997
10
-183.18796500000002
20
75.701207999999994
10
-183.283275
20
75.852892999999995
10
-183.34244200000001
20
76.021983000000006
10
-183.36250000000004
20
76.200000000000017
10
-183.34244200000001
20
76.378017
10
-183.283275
20
76.547106999999997
10
-183.18796500000002
20
76.698791999999997
10
-183.06129200000001
20
76.825464999999994
10
-182.90960699999999
20
76.920775000000006
10
-182.74051700000001
20
76.979941999999994
10
-182.5625
20
77
10
-182.38448299999999
20
76.979941999999994
10
-182.21539300000001
20
76.920775000000006
10
-182.06370799999999
20
76.825464999999994
10
-181.93703500000001
20
76.698791999999997
10
-181.841725
20
76.547106999999997
10
-181.78255799999999
20
76.378017
10
-181.76249999999999
20
76.200000000000017
10
-181.78255799999999
20
76.021983000000006
10
-181.841725
20
75.852892999999995
10
-181.93703500000001
20
75.701207999999994
10
-182.06370799999999
20
75.574534999999997
10
-182.21539300000001
20
75.479225
0
LWPOLYLINE
5
134
100
AcDbEntity
8
0
100
AcDbPolyline
90
8
70
1
43
0.0
10
-165.73750000000001
20
70.200000000000003
10
-166.73750000000001
20
69.200000000000003
10
-179.33750000000001
20
69.200000000000003
10
-180.33750000000001
20
70.200000000000003
10
-180.33750000000001
20
82.200000000000003
10
-179.33750000000001
20
83.200000000000003
10
-166.73750000000001
20
83.200000000000003
10
-165.73750000000001
20
82.200000000000003
0
LWPOLYLINE
5
135
100
AcDbEntity
8
0
100
AcDbPolyline
90
8
70
1
43
0.0
10
-146.6875
20
70.200000000000003
10
-147.6875
20
69.200000000000003
10
-160.28749999999999
20
69.200000000000003
10
-161.28749999999999
20
70.200000000000003
10
-161.28749999999999
20
82.200000000000003
10
-160.28749999999999
20
83.200000000000003
10
-147.6875
20
83.200000000000003
10
-146.6875
20
82.200000000000003
0
LWPOLYLINE
5
136
100
AcDbEntity
8
0
100
AcDbPolyline
90
8
70
1
43
0.0
10
-237.17500000000001
20
51.150000000000006
10
-238.17500000000001
20
50.150000000000006
10
-250.77500000000001
20
50.150000000000006
10
-251.77500000000003
20
51.150000000000006
10
-251.77500000000003
20
63.150000000000006
10
-250.77500000000001
20
64.150000000000006
10
-238.17500000000001
20
64.150000000000006
10
-237.17500000000001
20
63.150000000000006
0
LWPOLYLINE
5
137
100
AcDbEntity
8
0
100
AcDbPolyline
90
28
70
1
43
0.0
10
-234.77198300000001
20
56.370058000000007
10
-234.95000000000002
20
56.350000000000009
10
-235.128017
20
56.370058000000007
10
-235.29710700000004
20
56.42922500000001
10
-235.448792
20
56.524535
10
-235.57546500000001
20
56.651208000000004
10
-235.67077499999999
20
56.802892999999997
10
-235.72994199999999
20
56.971983000000002
10
-235.75000000000003
20
57.149999999999999
10
-235.72994199999999
20
57.328017000000003
10
-235.67077499999999
20
57.497107000000007
10
-235.57546500000001
20
57.648792
10
-235.448792
20
57.775464999999997
10
-235.29710700000004
20
57.870775000000009
10
-235.128017
20
57.929941999999997
10
-234.95000000000002
20
57.95000000000001
10
-234.77198300000001
20
57.929941999999997
10
-234.60289299999999
20
57.870775000000009
10
-234.45120800000001
20
57.775464999999997
10
-234.32453500000003
20
57.648792
10
-234.22922500000001
20
57.497107000000007
10
-234.17005800000001
20
57.328017000000003
10
-234.15000000000003
20
57.149999999999999
10
-234.17005800000001
20
56.971983000000002
10
-234.22922500000001
20
56.802892999999997
10
-234.32453500000003
20
56.651208000000004
10
-234.45120800000001
20
56.524535
10
-234.60289299999999
20
56.42922500000001
0
LWPOLYLINE
5
138
100
AcDbEntity
8
0
100
AcDbPolyline
90
34
70
1
43
0.0
10
-234.629614
20
49.037472999999999
10
-234.83821699999999
20
48.998477999999999
10
-235.05043499999999
20
48.998477999999999
10
-235.25903800000003
20
49.037472999999999
10
-235.45692500000001
20
49.114134000000007
10
-235.63735600000001
20
49.225852000000003
10
-235.794186
20
49.368822000000002
10
-235.922076
20
49.538175000000003
10
-236.01666900000001
20
49.728144000000007
10
-236.07474500000001
20
49.932259999999999
10
-236.09432600000002
20
50.143571999999999
10
-236.07474500000001
20
50.354883999999998
10
-236.01666900000001
20
50.559000000000005
10
-235.922076
20
50.748969000000002
10
-235.794186
20
50.918322000000003
10
-235.63735600000001
20
51.061292000000009
10
-235.45692500000001
20
51.173010000000005
10
-235.25903800000003
20
51.249670999999999
10
-235.05043499999999
20
51.288666000000006
10
-234.83821699999999
20
51.288666000000006
10
-234.629614
20
51.249670999999999
10
-234.43172700000002
20
51.173010000000005
10
-234.25129600000002
20
51.061292000000009
10
-234.09446600000001
20
50.918322000000003
10
-233.966576
20
50.748969000000002
10
-233.871983
20
50.559000000000005
10
-233.813907
20
50.354883999999998
10
-233.79432600000001
20
50.143571999999999
10
-233.813907
20
49.932259999999999
10
-233.871983
20
49.728144000000007
10
-233.966576
20
49.538175000000003
10
-234.09446600000001
20
49.368822000000002
10
-234.25129600000002
20
49.225852000000003
10
-234.43172700000002
20
49.114134000000007
0
LWPOLYLINE
5
139
100
AcDbEntity
8
0
100
AcDbPolyline
90
8
70
1
43
0.0
10
-218.125
20
51.150000000000006
10
-219.125
20
50.150000000000006
10
-231.72499999999999
20
50.150000000000006
10
-232.72500000000002
20
51.150000000000006
10
-232.72500000000002
20
63.150000000000006
10
-231.72499999999999
20
64.150000000000006
10
-219.125
20
64.150000000000006
10
-218.125
20
63.150000000000006
0
LWPOLYLINE
5
140
100
AcDbEntity
8
0
100
AcDbPolyline
90
8
70
1
43
0.0
10
-199.07499999999999
20
51.150000000000006
10
-200.07499999999999
20
50.150000000000006
10
-212.67500000000001
20
50.150000000000006
10
-213.67500000000004
20
51.150000000000006
10
-213.67500000000004
20
63.150000000000006
10
-212.67500000000001
20
64.150000000000006
10
-200.07499999999999
20
64.150000000000006
10
-199.07499999999999
20
63.150000000000006
0
LWPOLYLINE
5
141
100
AcDbEntity
8
0
100
AcDbPolyline
90
8
70
1
43
0.0
10
-180.02500000000001
20
51.150000000000006
10
-181.02500000000003
20
50.150000000000006
10
-193.625
20
50.150000000000006
10
-194.62500000000003
20
51.150000000000006
10
-194.62500000000003
20
63.150000000000006
10
-193.625
20
64.150000000000006
10
-181.02500000000003
20
64.150000000000006
10
-180.02500000000001
20
63.150000000000006
0
LWPOLYLINE
5
142
100
AcDbEntity
8
0
100
AcDbPolyline
90
28
70
1
43
0.0
10
-177.621983
20
56.370058000000007
10
-177.80000000000001
20
56.350000000000009
10
-177.97801700000002
20
56.370058000000007
10
-178.14710700000003
20
56.42922500000001
10
-178.29879199999999
20
56.524535
10
-178.425465
20
56.651208000000004
10
-178.52077500000001
20
56.802892999999997
10
-178.57994200000002
20
56.971983000000002
10
-178.59999999999999
20
57.149999999999999
10
-178.57994200000002
20
57.328017000000003
10
-178.52077500000001
20
57.497107000000007
10
-178.425465
20
57.648792
10
-178.29879199999999
20
57.775464999999997
10
-178.14710700000003
20
57.870775000000009
10
-177.97801700000002
20
57.929941999999997
10
-177.80000000000001
20
57.95000000000001
10
-177.621983
20
57.929941999999997
10
-177.45289299999999
20
57.870775000000009
10
-177.30120800000003
20
57.775464999999997
10
-177.17453500000002
20
57.648792
10
-177.07922500000001
20
57.497107000000007
10
-177.02005800000001
20
57.328017000000003
10
-177
20
57.149999999999999
10
-177.02005800000001
20
56.971983000000002
10
-177.07922500000001
20
56.802892999999997
10
-177.17453500000002
20
56.651208000000004
10
-177.30120800000003
20
56.524535
10
-177.45289299999999
20
56.42922500000001
0
LWPOLYLINE
5
143
100
AcDbEntity
8
0
100
AcDbPolyline
90
8
70
1
43
0.0
10
-160.97499999999999
20
51.150000000000006
10
-161.97500000000002
20
50.150000000000006
10
-174.57499999999999
20
50.150000000000006
10
-175.57500000000002
20
51.150000000000006
10
-175.57500000000002
20
63.150000000000006
10
-174.57499999999999
20
64.150000000000006
10
-161.97500000000002
20
64.150000000000006
10
-160.97499999999999
20
63.150000000000006
0
LWPOLYLINE
5
144
100
AcDbEntity
8
0
100
AcDbPolyline
90
8
70
1
43
0.0
10
-141.92500000000001
20
51.150000000000006
10
-142.92500000000001
20
50.150000000000006
10
-155.52500000000003
20
50.150000000000006
10
-156.52500000000001
20
51.150000000000006
10
-156.52500000000001
20
63.150000000000006
10
-155.52500000000003
20
64.150000000000006
10
-142.92500000000001
20
64.150000000000006
10
-141.92500000000001
20
63.150000000000006
0
LWPOLYLINE
5
145
100
AcDbEntity
8
0
100
AcDbPolyline
90
8
70
1
43
0.0
10
-127.63750000000002
20
70.200000000000003
10
-128.63749999999999
20
69.200000000000003
10
-141.23750000000001
20
69.200000000000003
10
-142.23750000000001
20
70.200000000000003
10
-142.23750000000001
20
82.200000000000003
10
-141.23750000000001
20
83.200000000000003
10
-128.63749999999999
20
83.200000000000003
10
-127.63750000000002
20
82.200000000000003
0
LWPOLYLINE
5
146
100
AcDbEntity
8
0
100
AcDbPolyline
90
28
70
1
43
0.0
10
-125.234483
20
75.420057999999997
10
-125.41249999999999
20
75.400000000000006
10
-125.59051700000001
20
75.420057999999997
10
-125.75960700000002
20
75.479225
10
-125.911292
20
75.574534999999997
10
-126.03796500000001
20
75.701207999999994
10
-126.133275
20
75.852892999999995
10
-126.192442
20
76.021983000000006
10
-126.21250000000002
20
76.200000000000017
10
-126.192442
20
76.378017
10
-126.133275
20
76.547106999999997
10
-126.03796500000001
20
76.698791999999997
10
-125.911292
20
76.825464999999994
10
-125.75960700000002
20
76.920775000000006
10
-125.59051700000001
20
76.979941999999994
10
-125.41249999999999
20
77
10
-125.234483
20
76.979941999999994
10
-125.065393
20
76.920775000000006
10
-124.913708
20
76.825464999999994
10
-124.78703500000002
20
76.698791999999997
10
-124.69172500000001
20
76.547106999999997
10
-124.632558
20
76.378017
10
-124.6125
20
76.200000000000017
10
-124.632558
20
76.021983000000006
10
-124.69172500000001
20
75.852892999999995
10
-124.78703500000002
20
75.701207999999994
10
-124.913708
20
75.574534999999997
10
-125.065393
20
75.479225
0
LWPOLYLINE
5
147
100
AcDbEntity
8
0
100
AcDbPolyline
90
8
70
1
43
0.0
10
-108.58750000000001
20
70.200000000000003
10
-109.58750000000002
20
69.200000000000003
10
-122.1875
20
69.200000000000003
10
-123.18750000000001
20
70.200000000000003
10
-123.18750000000001
20
82.200000000000003
10
-122.1875
20
83.200000000000003
10
-109.58750000000002
20
83.200000000000003
10
-108.58750000000001
20
82.200000000000003
0
LWPOLYLINE
5
148
100
AcDbEntity
8
0
100
AcDbPolyline
90
8
70
1
43
0.0
10
-89.537499999999994
20
70.200000000000003
10
-90.537499999999994
20
69.200000000000003
10
-103.1375
20
69.200000000000003
10
-104.1375
20
70.200000000000003
10
-104.1375
20
82.200000000000003
10
-103.1375
20
83.200000000000003
10
-90.537499999999994
20
83.200000000000003
10
-89.537499999999994
20
82.200000000000003
0
LWPOLYLINE
5
149
100
AcDbEntity
8
0
100
AcDbPolyline
90
28
70
1
43
0.0
10
-87.134483000000017
20
75.420057999999997
10
-87.312500000000014
20
75.400000000000006
10
-87.490517000000011
20
75.420057999999997
10
-87.659606999999994
20
75.479225
10
-87.811292000000009
20
75.574534999999997
10
-87.937965000000005
20
75.701207999999994
10
-88.033275000000003
20
75.852892999999995
10
-88.092442000000005
20
76.021983000000006
10
-88.112499999999997
20
76.200000000000017
10
-88.092442000000005
20
76.378017
10
-88.033275000000003
20
76.547106999999997
10
-87.937965000000005
20
76.698791999999997
10
-87.811292000000009
20
76.825464999999994
10
-87.659606999999994
20
76.920775000000006
10
-87.490517000000011
20
76.979941999999994
10
-87.312500000000014
20
77
10
-87.134483000000017
20
76.979941999999994
10
-86.965393000000006
20
76.920775000000006
10
-86.81370800000002
20
76.825464999999994
10
-86.687034999999995
20
76.698791999999997
10
-86.591724999999997
20
76.547106999999997
10
-86.532557999999995
20
76.378017
10
-86.512500000000017
20
76.200000000000017
10
-86.532557999999995
20
76.021983000000006
10
-86.591724999999997
20
75.852892999999995
10
-86.687034999999995
20
75.701207999999994
10
-86.81370800000002
20
75.574534999999997
10
-86.965393000000006
20
75.479225
0
LWPOLYLINE
5
150
100
AcDbEntity
8
0
100
AcDbPolyline
90
8
70
1
43
0.0
10
-70.487499999999997
20
70.200000000000003
10
-71.487499999999997
20
69.200000000000003
10
-84.087500000000006
20
69.200000000000003
10
-85.087500000000006
20
70.200000000000003
10
-85.087500000000006
20
82.200000000000003
10
-84.087500000000006
20
83.200000000000003
10
-71.487499999999997
20
83.200000000000003
10
-70.487499999999997
20
82.200000000000003
0
LWPOLYLINE
5
151
100
AcDbEntity
8
0
100
AcDbPolyline
90
8
70
1
43
0.0
10
-49.058
20
70.200000000000003
10
-50.058000000000007
20
69.200000000000003
10
-62.658000000000001
20
69.200000000000003
10
-63.658000000000001
20
70.200000000000003
10
-63.658000000000001
20
82.200000000000003
10
-62.658000000000001
20
83.200000000000003
10
-50.058000000000007
20
83.200000000000003
10
-49.058
20
82.200000000000003
0
LWPOLYLINE
5
152
100
AcDbEntity
8
0
100
AcDbPolyline
90
8
70
1
43
0.0
10
-122.87500000000001
20
51.150000000000006
10
-123.87500000000001
20
50.150000000000006
10
-136.47500000000002
20
50.150000000000006
10
-137.47499999999999
20
51.150000000000006
10
-137.47499999999999
20
63.150000000000006
10
-136.47500000000002
20
64.150000000000006
10
-123.87500000000001
20
64.150000000000006
10
-122.87500000000001
20
63.150000000000006
0
LWPOLYLINE
5
153
100
AcDbEntity
8
0
100
AcDbPolyline
90
28
70
1
43
0.0
10
-120.47198299999999
20
56.370058000000007
10
-120.65000000000001
20
56.350000000000009
10
-120.82801700000002
20
56.370058000000007
10
-120.99710700000001
20
56.42922500000001
10
-121.14879200000001
20
56.524535
10
-121.27546500000001
20
56.651208000000004
10
-121.37077500000001
20
56.802892999999997
10
-121.42994200000001
20
56.971983000000002
10
-121.45000000000002
20
57.149999999999999
10
-121.42994200000001
20
57.328017000000003
10
-121.37077500000001
20
57.497107000000007
10
-121.27546500000001
20
57.648792
10
-121.14879200000001
20
57.775464999999997
10
-120.99710700000001
20
57.870775000000009
10
-120.82801700000002
20
57.929941999999997
10
-120.65000000000001
20
57.95000000000001
10
-120.47198299999999
20
57.929941999999997
10
-120.302893
20
57.870775000000009
10
-120.151208
20
57.775464999999997
10
-120.02453500000001
20
57.648792
10
-119.929225
20
57.497107000000007
10
-119.870058
20
57.328017000000003
10
-119.84999999999999
20
57.149999999999999
10
-119.870058
20
56.971983000000002
10
-119.929225
20
56.802892999999997
10
-120.02453500000001
20
56.651208000000004
10
-120.151208
20
56.524535
10
-120.302893
20
56.42922500000001
0
LWPOLYLINE
5
154
100
AcDbEntity
8
0
100
AcDbPolyline
90
8
70
1
43
0.0
10
-103.825
20
51.150000000000006
10
-104.82500000000002
20
50.150000000000006
10
-117.425
20
50.150000000000006
10
-118.42500000000001
20
51.150000000000006
10
-118.42500000000001
20
63.150000000000006
10
-117.425
20
64.150000000000006
10
-104.82500000000002
20
64.150000000000006
10
-103.825
20
63.150000000000006
0
LWPOLYLINE
5
155
100
AcDbEntity
8
0
100
AcDbPolyline
90
8
70
1
43
0.0
10
-84.775000000000006
20
51.150000000000006
10
-85.775000000000006
20
50.150000000000006
10
-98.375
20
50.150000000000006
10
-99.375
20
51.150000000000006
10
-99.375
20
63.150000000000006
10
-98.375
20
64.150000000000006
10
-85.775000000000006
20
64.150000000000006
10
-84.775000000000006
20
63.150000000000006
0
LWPOLYLINE
5
156
100
AcDbEntity
8
0
100
AcDbPolyline
90
8
70
1
43
0.0
10
-65.724999999999994
20
51.150000000000006
10
-66.724999999999994
20
50.150000000000006
10
-79.325000000000017
20
50.150000000000006
10
-80.325000000000003
20
51.150000000000006
10
-80.325000000000003
20
63.150000000000006
10
-79.325000000000017
20
64.150000000000006
10
-66.724999999999994
20
64.150000000000006
10
-65.724999999999994
20
63.150000000000006
0
LWPOLYLINE
5
157
100
AcDbEntity
8
0
100
AcDbPolyline
90
28
70
1
43
0.0
10
-63.32198300000001
20
56.370058000000007
10
-63.500000000000007
20
56.350000000000009
10
-63.678017000000004
20
56.370058000000007
10
-63.847107000000001
20
56.42922500000001
10
-63.998792000000009
20
56.524535
10
-64.12546500000002
20
56.651208000000004
10
-64.220775000000003
20
56.802892999999997
10
-64.279942000000005
20
56.971983000000002
10
-64.299999999999997
20
57.149999999999999
10
-64.279942000000005
20
57.328017000000003
10
-64.220775000000003
20
57.497107000000007
10
-64.12546500000002
20
57.648792
10
-63.998792000000009
20
57.775464999999997
10
-63.847107000000001
20
57.870775000000009
10
-63.678017000000004
20
57.929941999999997
10
-63.500000000000007
20
57.95000000000001
10
-63.32198300000001
20
57.929941999999997
10
-63.152892999999999
20
57.870775000000009
10
-63.001208000000005
20
57.775464999999997
10
-62.874535000000009
20
57.648792
10
-62.779224999999997
20
57.497107000000007
10
-62.720058000000009
20
57.328017000000003
10
-62.700000000000003
20
57.149999999999999
10
-62.720058000000009
20
56.971983000000002
10
-62.779224999999997
20
56.802892999999997
10
-62.874535000000009
20
56.651208000000004
10
-63.001208000000005
20
56.524535
10
-63.152892999999999
20
56.42922500000001
0
LWPOLYLINE
5
158
100
AcDbEntity
8
0
100
AcDbPolyline
90
8
70
1
43
0.0
10
-46.674999999999997
20
51.150000000000006
10
-47.674999999999997
20
50.150000000000006
10
-60.274999999999999
20
50.150000000000006
10
-61.275000000000006
20
51.150000000000006
10
-61.275000000000006
20
63.150000000000006
10
-60.274999999999999
20
64.150000000000006
10
-47.674999999999997
20
64.150000000000006
10
-46.674999999999997
20
63.150000000000006
0
LWPOLYLINE
5
159
100
AcDbEntity
8
0
100
AcDbPolyline
90
34
70
1
43
0.0
10
-63.179614000000008
20
49.037472999999999
10
-63.388217000000004
20
48.998477999999999
10
-63.600434999999997
20
48.998477999999999
10
-63.809038000000001
20
49.037472999999999
10
-64.006924999999995
20
49.114134000000007
10
-64.187355999999994
20
49.225852000000003
10
-64.344185999999993
20
49.368822000000002
10
-64.472076000000001
20
49.538175000000003
10
-64.566669000000005
20
49.728144000000007
10
-64.624745000000004
20
49.932259999999999
10
-64.644326000000007
20
50.143571999999999
10
-64.624745000000004
20
50.354883999999998
10
-64.566669000000005
20
50.559000000000005
10
-64.472076000000001
20
50.748969000000002
10
-64.344185999999993
20
50.918322000000003
10
-64.187355999999994
20
51.061292000000009
10
-64.006924999999995
20
51.173010000000005
10
-63.809038000000001
20
51.249670999999999
10
-63.600434999999997
20
51.288666000000006
10
-63.388217000000004
20
51.288666000000006
10
-63.179614000000008
20
51.249670999999999
10
-62.981727000000006
20
51.173010000000005
10
-62.801296000000008
20
51.061292000000009
10
-62.644466000000001
20
50.918322000000003
10
-62.516576000000008
20
50.748969000000002
10
-62.421982999999997
20
50.559000000000005
10
-62.363907000000005
20
50.354883999999998
10
-62.344326000000009
20
50.143571999999999
10
-62.363907000000005
20
49.932259999999999
10
-62.421982999999997
20
49.728144000000007
10
-62.516576000000008
20
49.538175000000003
10
-62.644466000000001
20
49.368822000000002
10
-62.801296000000008
20
49.225852000000003
10
-62.981727000000006
20
49.114134000000007
0
ENDSEC
0
SECTION
2
OBJECTS
0
DICTIONARY
5
C
100
AcDbDictionary
3
ACAD_GROUP
350
D
3
ACAD_MLINESTYLE
350
17
0
DICTIONARY
5
D
100
AcDbDictionary
0
DICTIONARY
5
1A
330
C
100
AcDbDictionary
0
DICTIONARY
5
17
100
AcDbDictionary
0
ENDSEC
0
EOF
