0
SECTION
2
HEADER
9
$INSUNITS
70
4
9
$ACADVER
1
AC1014
9
$HANDSEED
5
FFFF
0
ENDSEC
0
SECTION
2
TABLES
0
TABLE
2
VPORT
5
8
100
AcDbSymbolTable
0
ENDTAB
0
TABLE
2
LTYPE
5
5
100
AcDbSymbolTable
0
LTYPE
5
14
100
AcDbSymbolTableRecord
100
AcDbLinetypeTableRecord
2
BYBLOCK
70
0
0
LTYPE
5
15
100
AcDbSymbolTableRecord
100
AcDbLinetypeTableRecord
2
BYLAYER
70
0
0
ENDTAB
0
TABLE
2
LAYER
5
2
100
AcDbSymbolTable
70
2
0
LAYER
5
50
100
AcDbSymbolTableRecord
100
AcDbLayerTableRecord
2
0
70
0
6
CONTINUOUS
0
ENDTAB
0
TABLE
2
STYLE
5
3
100
AcDbSymbolTable
70
1
0
STYLE
5
11
100
AcDbSymbolTableRecord
100
AcDbTextStyleTableRecord
2
STANDARD
70
0
0
ENDTAB
0
TABLE
2
VIEW
5
6
100
AcDbSymbolTable
70
0
0
ENDTAB
0
TABLE
2
UCS
5
7
100
AcDbSymbolTable
70
0
0
ENDTAB
0
TABLE
2
APPID
5
9
100
AcDbSymbolTable
70
2
0
APPID
5
12
100
AcDbSymbolTableRecord
100
AcDbRegAppTableRecord
2
ACAD
70
0
0
ENDTAB
0
TABLE
2
DIMSTYLE
5
A
100
AcDbSymbolTable
70
1
0
ENDTAB
0
TABLE
2
BLOCK_RECORD
5
1
100
AcDbSymbolTable
70
1
0
BLOCK_RECORD
5
1F
100
AcDbSymbolTableRecord
100
AcDbBlockTableRecord
2
*MODEL_SPACE
0
BLOCK_RECORD
5
1B
100
AcDbSymbolTableRecord
100
AcDbBlockTableRecord
2
*PAPER_SPACE
0
ENDTAB
0
ENDSEC
0
SECTION
2
BLOCKS
0
BLOCK
5
20
100
AcDbEntity
100
AcDbBlockBegin
2
*MODEL_SPACE
0
ENDBLK
5
21
100
AcDbEntity
100
AcDbBlockEnd
0
BLOCK
5
1C
100
AcDbEntity
100
AcDbBlockBegin
2
*PAPER_SPACE
0
ENDBLK
5
1D
100
AcDbEntity
100
AcDbBlockEnd
0
ENDSEC
0
SECTION
2
ENTITIES
0
LWPOLYLINE
5
100
100
AcDbEntity
8
0
100
AcDbPolyline
90
119
70
1
43
0.0
10
-37.895961999999997
20
15.522401000000002
10
-37.552779000000001
20
15.454136
10
-37.203622000000003
20
15.43125
10
-29.833877999999999
20
15.43125
10
-29.484721
20
15.454137000000001
10
-29.141538000000004
20
15.522402
10
-28.810202
20
15.634876000000002
10
-28.496380000000002
20
15.789636
10
-28.205442999999999
20
15.984031999999999
10
-27.942367000000004
20
16.214739000000002
10
-23.802239000000004
20
20.354866999999999
10
-23.571531
20
20.617941999999999
10
-23.377134999999999
20
20.908878999999999
10
-23.222375
20
21.222701000000001
10
-23.109901000000001
20
21.554037999999998
10
-23.041636000000004
20
21.897221000000002
10
-23.018750000000004
20
22.246378
10
-23.018750000000004
20
96.816122000000007
10
-23.041637000000001
20
97.165279000000012
10
-23.109902000000005
20
97.508461999999994
10
-23.222376000000004
20
97.839798000000002
10
-23.377136000000004
20
98.153620000000004
10
-23.571532000000005
20
98.444557000000003
10
-23.802239000000004
20
98.707633000000001
10
-27.942367000000004
20
102.84776100000002
10
-28.205442000000005
20
103.07846900000001
10
-28.496379000000005
20
103.272865
10
-28.810201000000003
20
103.42762500000001
10
-29.141538000000004
20
103.54009900000001
10
-29.484721
20
103.60836399999999
10
-29.833877999999999
20
103.63124999999999
10
-37.203622000000003
20
103.63124999999999
10
-37.552778000000004
20
103.60836200000001
10
-37.895959000000005
20
103.54009500000001
10
-38.227293000000003
20
103.427618
10
-38.541111000000001
20
103.27285400000001
10
-38.832042999999999
20
103.07845200000001
10
-39.095132999999997
20
102.84776100000002
10
-43.235261000000008
20
98.707633000000001
10
-43.50248100000001
20
98.465432000000007
10
-43.792153999999996
20
98.250590000000017
10
-44.10149100000001
20
98.065175999999994
10
-44.427513000000005
20
97.910976000000005
10
-44.767077999999998
20
97.789473000000001
10
-45.116918000000005
20
97.701840000000004
10
-45.473664000000007
20
97.648919000000021
10
-45.833877999999999
20
97.631250000000009
10
-243.09112200000001
20
97.631250000000009
10
-243.45133700000002
20
97.648939000000013
10
-243.80808300000001
20
97.701852000000002
10
-244.15792400000001
20
97.789479
10
-244.49749199999999
20
97.910976000000005
10
-244.82351499999999
20
98.065173000000016
10
-245.13285300000004
20
98.250584000000018
10
-245.42252700000003
20
98.465424999999996
10
-245.68973900000003
20
98.707633000000001
10
-249.82986700000001
20
102.84776100000002
10
-250.092938
20
103.07847500000001
10
-250.38387299999999
20
103.272875
10
-250.69769600000001
20
103.42763400000001
10
-251.02903400000002
20
103.54010500000001
10
-251.372219
20
103.60836300000001
10
-251.72137800000002
20
103.63124999999999
10
-259.09112199999998
20
103.63124999999999
10
-259.44027999999997
20
103.60836300000001
10
-259.78346499999998
20
103.54010000000001
10
-260.11480399999999
20
103.427629
10
-260.428629
20
103.27287400000002
10
-260.71957099999997
20
103.07848300000002
10
-260.98263300000002
20
102.84776100000002
10
-265.12276100000003
20
98.707633000000001
10
-265.353475
20
98.444562000000019
10
-265.54787499999998
20
98.153627000000014
10
-265.70263399999999
20
97.839804000000015
10
-265.81510500000002
20
97.508466000000013
10
-265.88336299999997
20
97.165280999999993
10
-265.90625
20
96.816122000000007
10
-265.90625
20
22.246378
10
-265.88336299999997
20
21.897220000000001
10
-265.81509999999997
20
21.554034999999999
10
-265.702629
20
21.222695999999999
10
-265.54787399999998
20
20.908871000000001
10
-265.35348299999998
20
20.617929
10
-265.12276100000003
20
20.354866999999999
10
-260.98263300000002
20
16.214739000000002
10
-260.719562
20
15.984025000000003
10
-260.42862700000001
20
15.789625000000001
10
-260.11480399999999
20
15.634866000000001
10
-259.78346599999998
20
15.522394999999999
10
-259.44028100000003
20
15.454137000000001
10
-259.09112199999998
20
15.43125
10
-251.72137800000002
20
15.43125
10
-251.37222000000003
20
15.454137000000001
10
-251.02903499999999
20
15.522400000000001
10
-250.69769600000001
20
15.634871
10
-250.383871
20
15.789626000000002
10
-250.09292900000003
20
15.984017000000001
10
-249.82986700000001
20
16.214739000000002
10
-245.65771100000003
20
20.386894999999999
10
-245.35211400000003
20
20.653686
10
-245.018978
20
20.885175
10
-244.66236100000003
20
21.078541999999999
10
-244.286607
20
21.231434
10
-243.89629299999999
20
21.341985999999999
10
-243.49617300000003
20
21.408853000000004
10
-243.09112200000001
20
21.431249999999999
10
-45.833878000000006
20
21.431249999999999
10
-45.473664999999997
20
21.413551999999999
10
-45.116922000000002
20
21.360633
10
-44.767083
20
21.273002000000002
10
-44.427517999999999
20
21.151503000000002
10
-44.101497000000009
20
20.997306999999999
10
-43.792158999999998
20
20.811898000000003
10
-43.50248400000001
20
20.597061
10
-43.235261000000008
20
20.354866999999999
10
-39.095132999999997
20
16.214739000000002
10
-38.832058000000004
20
15.984031000000002
10
-38.541121000000004
20
15.789635000000002
10
-38.227299000000002
20
15.634874999999999
0
LWPOLYLINE
5
101
100
AcDbEntity
8
0
100
AcDbPolyline
90
35
70
1
43
0.0
10
-255.12822700000001
20
99.662590000000009
10
-255.35029700000001
20
99.632508999999999
10
-255.57417000000001
20
99.64256300000001
10
-255.79264900000001
20
99.692429000000004
10
-255.99871400000001
20
99.780506000000017
10
-256.18574000000001
20
99.903960999999995
10
-256.34771699999999
20
100.05882700000001
10
-256.47943900000001
20
100.240126
10
-256.57667199999997
20
100.44203100000001
10
-256.63629000000003
20
100.65805400000002
10
-256.65637800000002
20
100.88124999999999
10
-256.63629000000003
20
101.10444600000001
10
-256.57667199999997
20
101.320469
10
-256.47943900000001
20
101.52237400000001
10
-256.34771699999999
20
101.70367300000001
10
-256.18574000000001
20
101.85853899999999
10
-255.99871400000001
20
101.981994
10
-255.79264900000001
20
102.070071
10
-255.57417000000001
20
102.11993700000001
10
-255.35029700000001
20
102.12999100000002
10
-255.12822700000001
20
102.09991000000001
10
-254.915097
20
102.03066
10
-254.71775700000001
20
101.92446700000002
10
-254.54255000000003
20
101.784744
10
-254.395107
20
101.615982
10
-254.28016700000001
20
101.42360500000001
10
-254.20142400000003
20
101.213796
10
-254.16140999999999
20
100.99329900000001
10
-254.16140999999999
20
100.76920100000001
10
-254.20142400000003
20
100.548704
10
-254.28016700000001
20
100.33889500000001
10
-254.395107
20
100.14651800000001
10
-254.54255000000003
20
99.977755999999999
10
-254.71775700000001
20
99.838032999999996
10
-254.915097
20
99.73184000000002
0
LWPOLYLINE
5
102
100
AcDbEntity
8
0
100
AcDbPolyline
90
8
70
1
43
0.0
10
-249.08125000000001
20
82.106250000000003
10
-250.08125000000004
20
81.106250000000003
10
-262.68124999999998
20
81.106250000000003
10
-263.68124999999998
20
82.106250000000003
10
-263.68124999999998
20
94.106250000000017
10
-262.68124999999998
20
95.106250000000017
10
-250.08125000000004
20
95.106250000000017
10
-249.08125000000001
20
94.106250000000017
0
LWPOLYLINE
5
103
100
AcDbEntity
8
0
100
AcDbPolyline
90
33
70
1
43
0.0
10
-246.69649700000002
20
86.995143999999996
10
-246.90966200000003
20
86.984989000000013
10
-247.12089700000004
20
87.015360000000015
10
-247.32256699999999
20
87.085159000000004
10
-247.50738200000001
20
87.191862000000015
10
-247.66866500000003
20
87.331614000000002
10
-247.80058400000001
20
87.499363000000002
10
-247.89837300000002
20
87.689047000000002
10
-247.958496
20
87.893809000000005
10
-247.978782
20
88.106250000000003
10
-247.958496
20
88.318691000000001
10
-247.89837300000002
20
88.523453000000018
10
-247.80058400000001
20
88.713137000000003
10
-247.66866500000003
20
88.880886000000018
10
-247.50738200000001
20
89.020638000000005
10
-247.32256699999999
20
89.127341000000001
10
-247.12089700000004
20
89.197140000000005
10
-246.90966200000003
20
89.227511000000007
10
-246.69649700000002
20
89.217355999999995
10
-246.48910599999999
20
89.167044000000004
10
-246.29498400000003
20
89.078391000000011
10
-246.12114800000001
20
88.95460300000002
10
-245.97388000000001
20
88.800152999999995
10
-245.85850400000001
20
88.620624000000007
10
-245.77918800000003
20
88.422504000000004
10
-245.738801
20
88.212953000000013
10
-245.738801
20
87.999547000000007
10
-245.77918800000003
20
87.789996000000002
10
-245.85850400000001
20
87.591876000000013
10
-245.97388000000001
20
87.412346999999997
10
-246.12114800000001
20
87.257897
10
-246.29498400000003
20
87.134108999999995
10
-246.48910599999999
20
87.045456000000016
0
LWPOLYLINE
5
104
100
AcDbEntity
8
0
100
AcDbPolyline
90
8
70
1
43
0.0
10
-230.03125
20
82.106250000000003
10
-231.03125000000003
20
81.106250000000003
10
-243.63124999999999
20
81.106250000000003
10
-244.63125000000002
20
82.106250000000003
10
-244.63125000000002
20
94.106250000000017
10
-243.63124999999999
20
95.106250000000017
10
-231.03125000000003
20
95.106250000000017
10
-230.03125
20
94.106250000000017
0
LWPOLYLINE
5
105
100
AcDbEntity
8
0
100
AcDbPolyline
90
8
70
1
43
0.0
10
-210.98124999999999
20
82.106250000000003
10
-211.98125000000002
20
81.106250000000003
10
-224.58125000000001
20
81.106250000000003
10
-225.58125000000004
20
82.106250000000003
10
-225.58125000000004
20
94.106250000000017
10
-224.58125000000001
20
95.106250000000017
10
-211.98125000000002
20
95.106250000000017
10
-210.98124999999999
20
94.106250000000017
0
LWPOLYLINE
5
106
100
AcDbEntity
8
0
100
AcDbPolyline
90
33
70
1
43
0.0
10
-208.59649700000003
20
86.995143999999996
10
-208.80966200000003
20
86.984989000000013
10
-209.02089700000002
20
87.015360000000015
10
-209.22256700000003
20
87.085159000000004
10
-209.40738200000001
20
87.191862000000015
10
-209.56866500000004
20
87.331614000000002
10
-209.70058399999999
20
87.499363000000002
10
-209.798373
20
87.689047000000002
10
-209.858496
20
87.893809000000005
10
-209.878782
20
88.106250000000003
10
-209.858496
20
88.318691000000001
10
-209.798373
20
88.523453000000018
10
-209.70058399999999
20
88.713137000000003
10
-209.56866500000004
20
88.880886000000018
10
-209.40738200000001
20
89.020638000000005
10
-209.22256700000003
20
89.127341000000001
10
-209.02089700000002
20
89.197140000000005
10
-208.80966200000003
20
89.227511000000007
10
-208.59649700000003
20
89.217355999999995
10
-208.38910600000003
20
89.167044000000004
10
-208.19498400000001
20
89.078391000000011
10
-208.02114800000001
20
88.95460300000002
10
-207.87388000000004
20
88.800152999999995
10
-207.75850399999999
20
88.620624000000007
10
-207.67918800000004
20
88.422504000000004
10
-207.638801
20
88.212953000000013
10
-207.638801
20
87.999547000000007
10
-207.67918800000004
20
87.789996000000002
10
-207.75850399999999
20
87.591876000000013
10
-207.87388000000004
20
87.412346999999997
10
-208.02114800000001
20
87.257897
10
-208.19498400000001
20
87.134108999999995
10
-208.38910600000003
20
87.045456000000016
0
LWPOLYLINE
5
107
100
AcDbEntity
8
0
100
AcDbPolyline
90
8
70
1
43
0.0
10
-189.55000000000001
20
82.106250000000003
10
-190.55000000000004
20
81.106250000000003
10
-203.15000000000001
20
81.106250000000003
10
-204.15000000000003
20
82.106250000000003
10
-204.15000000000003
20
94.106250000000017
10
-203.15000000000001
20
95.106250000000017
10
-190.55000000000004
20
95.106250000000017
10
-189.55000000000001
20
94.106250000000017
0
LWPOLYLINE
5
108
100
AcDbEntity
8
0
100
AcDbPolyline
90
8
70
1
43
0.0
10
-147.51249999999999
20
88.106250000000003
10
-147.51249999999999
20
81.106250000000003
10
-179.51249999999999
20
81.106250000000003
10
-179.51249999999999
20
88.106250000000003
10
-179.51249999999999
20
93.606250000000003
10
-176.51250000000002
20
95.106250000000017
10
-150.51249999999999
20
95.106250000000017
10
-147.51249999999999
20
93.606250000000003
0
LWPOLYLINE
5
109
100
AcDbEntity
8
0
100
AcDbPolyline
90
8
70
1
43
0.0
10
-249.08125000000001
20
63.056249999999999
10
-250.08125000000004
20
62.056250000000006
10
-262.68124999999998
20
62.056250000000006
10
-263.68124999999998
20
63.056249999999999
10
-263.68124999999998
20
75.056250000000006
10
-262.68124999999998
20
76.056250000000006
10
-250.08125000000004
20
76.056250000000006
10
-249.08125000000001
20
75.056250000000006
0
LWPOLYLINE
5
110
100
AcDbEntity
8
0
100
AcDbPolyline
90
33
70
1
43
0.0
10
-246.69649700000002
20
67.945143999999999
10
-246.90966200000003
20
67.934989000000002
10
-247.12089700000004
20
67.965360000000004
10
-247.32256699999999
20
68.035158999999993
10
-247.50738200000001
20
68.141862000000003
10
-247.66866500000003
20
68.281614000000005
10
-247.80058400000001
20
68.449363000000005
10
-247.89837300000002
20
68.639047000000005
10
-247.958496
20
68.843808999999993
10
-247.978782
20
69.056250000000006
10
-247.958496
20
69.268691000000018
10
-247.89837300000002
20
69.473453000000006
10
-247.80058400000001
20
69.663137000000006
10
-247.66866500000003
20
69.830886000000007
10
-247.50738200000001
20
69.970637999999994
10
-247.32256699999999
20
70.077341000000004
10
-247.12089700000004
20
70.147139999999993
10
-246.90966200000003
20
70.177510999999996
10
-246.69649700000002
20
70.167356000000012
10
-246.48910599999999
20
70.117044000000007
10
-246.29498400000003
20
70.028390999999999
10
-246.12114800000001
20
69.904602999999994
10
-245.97388000000001
20
69.750152999999997
10
-245.85850400000001
20
69.570623999999995
10
-245.77918800000003
20
69.372504000000006
10
-245.738801
20
69.162953000000002
10
-245.738801
20
68.949546999999995
10
-245.77918800000003
20
68.739996000000019
10
-245.85850400000001
20
68.541876000000002
10
-245.97388000000001
20
68.362347
10
-246.12114800000001
20
68.207897000000003
10
-246.29498400000003
20
68.084108999999998
10
-246.48910599999999
20
67.995456000000004
0
LWPOLYLINE
5
111
100
AcDbEntity
8
0
100
AcDbPolyline
90
8
70
1
43
0.0
10
-230.03125
20
63.056249999999999
10
-231.03125000000003
20
62.056250000000006
10
-243.63124999999999
20
62.056250000000006
10
-244.63125000000002
20
63.056249999999999
10
-244.63125000000002
20
75.056250000000006
10
-243.63124999999999
20
76.056250000000006
10
-231.03125000000003
20
76.056250000000006
10
-230.03125
20
75.056250000000006
0
LWPOLYLINE
5
112
100
AcDbEntity
8
0
100
AcDbPolyline
90
8
70
1
43
0.0
10
-210.98124999999999
20
63.056249999999999
10
-211.98125000000002
20
62.056250000000006
10
-224.58125000000001
20
62.056250000000006
10
-225.58125000000004
20
63.056249999999999
10
-225.58125000000004
20
75.056250000000006
10
-224.58125000000001
20
76.056250000000006
10
-211.98125000000002
20
76.056250000000006
10
-210.98124999999999
20
75.056250000000006
0
LWPOLYLINE
5
113
100
AcDbEntity
8
0
100
AcDbPolyline
90
33
70
1
43
0.0
10
-208.59649700000003
20
67.945143999999999
10
-208.80966200000003
20
67.934989000000002
10
-209.02089700000002
20
67.965360000000004
10
-209.22256700000003
20
68.035158999999993
10
-209.40738200000001
20
68.141862000000003
10
-209.56866500000004
20
68.281614000000005
10
-209.70058399999999
20
68.449363000000005
10
-209.798373
20
68.639047000000005
10
-209.858496
20
68.843808999999993
10
-209.878782
20
69.056250000000006
10
-209.858496
20
69.268691000000018
10
-209.798373
20
69.473453000000006
10
-209.70058399999999
20
69.663137000000006
10
-209.56866500000004
20
69.830886000000007
10
-209.40738200000001
20
69.970637999999994
10
-209.22256700000003
20
70.077341000000004
10
-209.02089700000002
20
70.147139999999993
10
-208.80966200000003
20
70.177510999999996
10
-208.59649700000003
20
70.167356000000012
10
-208.38910600000003
20
70.117044000000007
10
-208.19498400000001
20
70.028390999999999
10
-208.02114800000001
20
69.904602999999994
10
-207.87388000000004
20
69.750152999999997
10
-207.75850399999999
20
69.570623999999995
10
-207.67918800000004
20
69.372504000000006
10
-207.638801
20
69.162953000000002
10
-207.638801
20
68.949546999999995
10
-207.67918800000004
20
68.739996000000019
10
-207.75850399999999
20
68.541876000000002
10
-207.87388000000004
20
68.362347
10
-208.02114800000001
20
68.207897000000003
10
-208.19498400000001
20
68.084108999999998
10
-208.38910600000003
20
67.995456000000004
0
LWPOLYLINE
5
114
100
AcDbEntity
8
0
100
AcDbPolyline
90
8
70
1
43
0.0
10
-191.93125000000003
20
63.056249999999999
10
-192.93125000000003
20
62.056250000000006
10
-205.53125
20
62.056250000000006
10
-206.53125000000003
20
63.056249999999999
10
-206.53125000000003
20
75.056250000000006
10
-205.53125
20
76.056250000000006
10
-192.93125000000003
20
76.056250000000006
10
-191.93125000000003
20
75.056250000000006
0
LWPOLYLINE
5
115
100
AcDbEntity
8
0
100
AcDbPolyline
90
8
70
1
43
0.0
10
-172.88125000000002
20
63.056249999999999
10
-173.88124999999999
20
62.056250000000006
10
-186.48124999999999
20
62.056250000000006
10
-187.48124999999999
20
63.056249999999999
10
-187.48124999999999
20
75.056250000000006
10
-186.48124999999999
20
76.056250000000006
10
-173.88124999999999
20
76.056250000000006
10
-172.88125000000002
20
75.056250000000006
0
LWPOLYLINE
5
116
100
AcDbEntity
8
0
100
AcDbPolyline
90
8
70
1
43
0.0
10
-153.83125000000001
20
63.056249999999999
10
-154.83125000000001
20
62.056250000000006
10
-167.43125000000003
20
62.056250000000006
10
-168.43125000000001
20
63.056249999999999
10
-168.43125000000001
20
75.056250000000006
10
-167.43125000000003
20
76.056250000000006
10
-154.83125000000001
20
76.056250000000006
10
-153.83125000000001
20
75.056250000000006
0
LWPOLYLINE
5
117
100
AcDbEntity
8
0
100
AcDbPolyline
90
33
70
1
43
0.0
10
-151.44649699999999
20
67.945143999999999
10
-151.659662
20
67.934989000000002
10
-151.87089700000001
20
67.965360000000004
10
-152.07256699999999
20
68.035158999999993
10
-152.25738200000001
20
68.141862000000003
10
-152.418665
20
68.281614000000005
10
-152.55058399999999
20
68.449363000000005
10
-152.64837299999999
20
68.639047000000005
10
-152.708496
20
68.843808999999993
10
-152.72878200000002
20
69.056250000000006
10
-152.708496
20
69.268691000000018
10
-152.64837299999999
20
69.473453000000006
10
-152.55058399999999
20
69.663137000000006
10
-152.418665
20
69.830886000000007
10
-152.25738200000001
20
69.970637999999994
10
-152.07256699999999
20
70.077341000000004
10
-151.87089700000001
20
70.147139999999993
10
-151.659662
20
70.177510999999996
10
-151.44649699999999
20
70.167356000000012
10
-151.23910599999999
20
70.117044000000007
10
-151.044984
20
70.028390999999999
10
-150.87114800000001
20
69.904602999999994
10
-150.72388000000001
20
69.750152999999997
10
-150.60850400000001
20
69.570623999999995
10
-150.529188
20
69.372504000000006
10
-150.488801
20
69.162953000000002
10
-150.488801
20
68.949546999999995
10
-150.529188
20
68.739996000000019
10
-150.60850400000001
20
68.541876000000002
10
-150.72388000000001
20
68.362347
10
-150.87114800000001
20
68.207897000000003
10
-151.044984
20
68.084108999999998
10
-151.23910599999999
20
67.995456000000004
0
LWPOLYLINE
5
118
100
AcDbEntity
8
0
100
AcDbPolyline
90
8
70
1
43
0.0
10
-99.887500000000017
20
88.106250000000003
10
-99.887500000000017
20
81.106250000000003
10
-131.88749999999999
20
81.106250000000003
10
-131.88749999999999
20
88.106250000000003
10
-131.88749999999999
20
93.606250000000003
10
-128.88749999999999
20
95.106250000000017
10
-102.8875
20
95.106250000000017
10
-99.887500000000017
20
93.606250000000003
0
LWPOLYLINE
5
119
100
AcDbEntity
8
0
100
AcDbPolyline
90
33
70
1
43
0.0
10
-89.533996999999999
20
86.995143999999996
10
-89.747162000000017
20
86.984989000000013
10
-89.958397000000019
20
87.015360000000015
10
-90.160066999999998
20
87.085159000000004
10
-90.344881999999998
20
87.191862000000015
10
-90.50616500000001
20
87.331614000000002
10
-90.638084000000006
20
87.499363000000002
10
-90.735872999999998
20
87.689047000000002
10
-90.795996000000002
20
87.893809000000005
10
-90.816282000000001
20
88.106250000000003
10
-90.795996000000002
20
88.318691000000001
10
-90.735872999999998
20
88.523453000000018
10
-90.638084000000006
20
88.713137000000003
10
-90.50616500000001
20
88.880886000000018
10
-90.344881999999998
20
89.020638000000005
10
-90.160066999999998
20
89.127341000000001
10
-89.958397000000019
20
89.197140000000005
10
-89.747162000000017
20
89.227511000000007
10
-89.533996999999999
20
89.217355999999995
10
-89.326605999999998
20
89.167044000000004
10
-89.132484000000005
20
89.078391000000011
10
-88.958647999999997
20
88.95460300000002
10
-88.81138
20
88.800152999999995
10
-88.696004000000016
20
88.620624000000007
10
-88.616688000000011
20
88.422504000000004
10
-88.576301000000001
20
88.212953000000013
10
-88.576301000000001
20
87.999547000000007
10
-88.616688000000011
20
87.789996000000002
10
-88.696004000000016
20
87.591876000000013
10
-88.81138
20
87.412346999999997
10
-88.958647999999997
20
87.257897
10
-89.132484000000005
20
87.134108999999995
10
-89.326605999999998
20
87.045456000000016
0
LWPOLYLINE
5
120
100
AcDbEntity
8
0
100
AcDbPolyline
90
35
70
1
43
0.0
10
-33.240727000000007
20
99.662590000000009
10
-33.462797000000002
20
99.632508999999999
10
-33.686670000000007
20
99.64256300000001
10
-33.905149000000002
20
99.692429000000004
10
-34.111213999999997
20
99.780506000000017
10
-34.29824
20
99.903960999999995
10
-34.460217
20
100.05882700000001
10
-34.591939000000011
20
100.240126
10
-34.689171999999999
20
100.44203100000001
10
-34.74879
20
100.65805400000002
10
-34.768878000000001
20
100.88124999999999
10
-34.74879
20
101.10444600000001
10
-34.689171999999999
20
101.320469
10
-34.591939000000011
20
101.52237400000001
10
-34.460217
20
101.70367300000001
10
-34.29824
20
101.85853899999999
10
-34.111213999999997
20
101.981994
10
-33.905149000000002
20
102.070071
10
-33.686670000000007
20
102.11993700000001
10
-33.462797000000002
20
102.12999100000002
10
-33.240727000000007
20
102.09991000000001
10
-33.027597
20
102.03066
10
-32.830257000000003
20
101.92446700000002
10
-32.655050000000003
20
101.784744
10
-32.507607
20
101.615982
10
-32.392667000000003
20
101.42360500000001
10
-32.313924
20
101.213796
10
-32.273910000000001
20
100.99329900000001
10
-32.273910000000001
20
100.76920100000001
10
-32.313924
20
100.548704
10
-32.392667000000003
20
100.33889500000001
10
-32.507607
20
100.14651800000001
10
-32.655050000000003
20
99.977755999999999
10
-32.830257000000003
20
99.838032999999996
10
-33.027597
20
99.73184000000002
0
LWPOLYLINE
5
121
100
AcDbEntity
8
0
100
AcDbPolyline
90
8
70
1
43
0.0
10
-70.487499999999997
20
82.106250000000003
10
-71.487499999999997
20
81.106250000000003
10
-84.087500000000006
20
81.106250000000003
10
-85.087500000000006
20
82.106250000000003
10
-85.087500000000006
20
94.106250000000017
10
-84.087500000000006
20
95.106250000000017
10
-71.487499999999997
20
95.106250000000017
10
-70.487499999999997
20
94.106250000000017
0
LWPOLYLINE
5
122
100
AcDbEntity
8
0
100
AcDbPolyline
90
33
70
1
43
0.0
10
-68.102746999999994
20
86.995143999999996
10
-68.315911999999997
20
86.984989000000013
10
-68.527146999999999
20
87.015360000000015
10
-68.728817000000006
20
87.085159000000004
10
-68.913632000000007
20
87.191862000000015
10
-69.074915000000004
20
87.331614000000002
10
-69.206834000000001
20
87.499363000000002
10
-69.304623000000007
20
87.689047000000002
10
-69.364745999999997
20
87.893809000000005
10
-69.385031999999995
20
88.106250000000003
10
-69.364745999999997
20
88.318691000000001
10
-69.304623000000007
20
88.523453000000018
10
-69.206834000000001
20
88.713137000000003
10
-69.074915000000004
20
88.880886000000018
10
-68.913632000000007
20
89.020638000000005
10
-68.728817000000006
20
89.127341000000001
10
-68.527146999999999
20
89.197140000000005
10
-68.315911999999997
20
89.227511000000007
10
-68.102746999999994
20
89.217355999999995
10
-67.895356000000007
20
89.167044000000004
10
-67.701233999999999
20
89.078391000000011
10
-67.527398000000005
20
88.95460300000002
10
-67.380129999999994
20
88.800152999999995
10
-67.264753999999996
20
88.620624000000007
10
-67.185438000000005
20
88.422504000000004
10
-67.145050999999995
20
88.212953000000013
10
-67.145050999999995
20
87.999547000000007
10
-67.185438000000005
20
87.789996000000002
10
-67.264753999999996
20
87.591876000000013
10
-67.380129999999994
20
87.412346999999997
10
-67.527398000000005
20
87.257897
10
-67.701233999999999
20
87.134108999999995
10
-67.895356000000007
20
87.045456000000016
0
LWPOLYLINE
5
123
100
AcDbEntity
8
0
100
AcDbPolyline
90
8
70
1
43
0.0
10
-49.056250000000006
20
82.106250000000003
10
-50.056250000000006
20
81.106250000000003
10
-62.65625
20
81.106250000000003
10
-63.656250000000007
20
82.106250000000003
10
-63.656250000000007
20
94.106250000000017
10
-62.65625
20
95.106250000000017
10
-50.056250000000006
20
95.106250000000017
10
-49.056250000000006
20
94.106250000000017
0
LWPOLYLINE
5
124
100
AcDbEntity
8
0
100
AcDbPolyline
90
33
70
1
43
0.0
10
-44.290247000000001
20
86.995143999999996
10
-44.503411999999997
20
86.984989000000013
10
-44.714646999999999
20
87.015360000000015
10
-44.916316999999999
20
87.085159000000004
10
-45.101132
20
87.191862000000015
10
-45.262415000000004
20
87.331614000000002
10
-45.394334000000001
20
87.499363000000002
10
-45.492122999999999
20
87.689047000000002
10
-45.552245999999997
20
87.893809000000005
10
-45.57253200000001
20
88.106250000000003
10
-45.552245999999997
20
88.318691000000001
10
-45.492122999999999
20
88.523453000000018
10
-45.394334000000001
20
88.713137000000003
10
-45.262415000000004
20
88.880886000000018
10
-45.101132
20
89.020638000000005
10
-44.916316999999999
20
89.127341000000001
10
-44.714646999999999
20
89.197140000000005
10
-44.503411999999997
20
89.227511000000007
10
-44.290247000000001
20
89.217355999999995
10
-44.082856
20
89.167044000000004
10
-43.888734000000007
20
89.078391000000011
10
-43.714897999999998
20
88.95460300000002
10
-43.567630000000001
20
88.800152999999995
10
-43.452254000000003
20
88.620624000000007
10
-43.372938000000005
20
88.422504000000004
10
-43.332551000000009
20
88.212953000000013
10
-43.332551000000009
20
87.999547000000007
10
-43.372938000000005
20
87.789996000000002
10
-43.452254000000003
20
87.591876000000013
10
-43.567630000000001
20
87.412346999999997
10
-43.714897999999998
20
87.257897
10
-43.888734000000007
20
87.134108999999995
10
-44.082856
20
87.045456000000016
0
LWPOLYLINE
5
125
100
AcDbEntity
8
0
100
AcDbPolyline
90
8
70
1
43
0.0
10
-27.625
20
82.106250000000003
10
-28.625000000000004
20
81.106250000000003
10
-41.225000000000009
20
81.106250000000003
10
-42.225000000000001
20
82.106250000000003
10
-42.225000000000001
20
94.106250000000017
10
-41.225000000000009
20
95.106250000000017
10
-28.625000000000004
20
95.106250000000017
10
-27.625
20
94.106250000000017
0
LWPOLYLINE
5
126
100
AcDbEntity
8
0
100
AcDbPolyline
90
8
70
1
43
0.0
10
-134.78125
20
63.056249999999999
10
-135.78125
20
62.056250000000006
10
-148.38124999999999
20
62.056250000000006
10
-149.38124999999999
20
63.056249999999999
10
-149.38124999999999
20
75.056250000000006
10
-148.38124999999999
20
76.056250000000006
10
-135.78125
20
76.056250000000006
10
-134.78125
20
75.056250000000006
0
LWPOLYLINE
5
127
100
AcDbEntity
8
0
100
AcDbPolyline
90
8
70
1
43
0.0
10
-115.73125000000002
20
63.056249999999999
10
-116.73125
20
62.056250000000006
10
-129.33125000000001
20
62.056250000000006
10
-130.33125000000001
20
63.056249999999999
10
-130.33125000000001
20
75.056250000000006
10
-129.33125000000001
20
76.056250000000006
10
-116.73125
20
76.056250000000006
10
-115.73125000000002
20
75.056250000000006
0
LWPOLYLINE
5
128
100
AcDbEntity
8
0
100
AcDbPolyline
90
8
70
1
43
0.0
10
-96.68125000000002
20
63.056249999999999
10
-97.681250000000006
20
62.056250000000006
10
-110.28125000000001
20
62.056250000000006
10
-111.28125
20
63.056249999999999
10
-111.28125
20
75.056250000000006
10
-110.28125000000001
20
76.056250000000006
10
-97.681250000000006
20
76.056250000000006
10
-96.68125000000002
20
75.056250000000006
0
LWPOLYLINE
5
129
100
AcDbEntity
8
0
100
AcDbPolyline
90
33
70
1
43
0.0
10
-94.296497000000002
20
67.945143999999999
10
-94.50966200000002
20
67.934989000000002
10
-94.720896999999994
20
67.965360000000004
10
-94.922567000000001
20
68.035158999999993
10
-95.107382000000001
20
68.141862000000003
10
-95.268664999999999
20
68.281614000000005
10
-95.400583999999995
20
68.449363000000005
10
-95.498373000000001
20
68.639047000000005
10
-95.558496000000005
20
68.843808999999993
10
-95.578782000000018
20
69.056250000000006
10
-95.558496000000005
20
69.268691000000018
10
-95.498373000000001
20
69.473453000000006
10
-95.400583999999995
20
69.663137000000006
10
-95.268664999999999
20
69.830886000000007
10
-95.107382000000001
20
69.970637999999994
10
-94.922567000000001
20
70.077341000000004
10
-94.720896999999994
20
70.147139999999993
10
-94.50966200000002
20
70.177510999999996
10
-94.296497000000002
20
70.167356000000012
10
-94.089106000000001
20
70.117044000000007
10
-93.894983999999994
20
70.028390999999999
10
-93.721147999999999
20
69.904602999999994
10
-93.573880000000003
20
69.750152999999997
10
-93.458504000000019
20
69.570623999999995
10
-93.379187999999999
20
69.372504000000006
10
-93.338801000000004
20
69.162953000000002
10
-93.338801000000004
20
68.949546999999995
10
-93.379187999999999
20
68.739996000000019
10
-93.458504000000019
20
68.541876000000002
10
-93.573880000000003
20
68.362347
10
-93.721147999999999
20
68.207897000000003
10
-93.894983999999994
20
68.084108999999998
10
-94.089106000000001
20
67.995456000000004
0
LWPOLYLINE
5
130
100
AcDbEntity
8
0
100
AcDbPolyline
90
8
70
1
43
0.0
10
-77.631249999999994
20
63.056249999999999
10
-78.631249999999994
20
62.056250000000006
10
-91.231250000000003
20
62.056250000000006
10
-92.231250000000017
20
63.056249999999999
10
-92.231250000000017
20
75.056250000000006
10
-91.231250000000003
20
76.056250000000006
10
-78.631249999999994
20
76.056250000000006
10
-77.631249999999994
20
75.056250000000006
0
LWPOLYLINE
5
131
100
AcDbEntity
8
0
100
AcDbPolyline
90
8
70
1
43
0.0
10
-58.581250000000004
20
63.056249999999999
10
-59.581249999999997
20
62.056250000000006
10
-72.181250000000006
20
62.056250000000006
10
-73.181250000000006
20
63.056249999999999
10
-73.181250000000006
20
75.056250000000006
10
-72.181250000000006
20
76.056250000000006
10
-59.581249999999997
20
76.056250000000006
10
-58.581250000000004
20
75.056250000000006
0
LWPOLYLINE
5
132
100
AcDbEntity
8
0
100
AcDbPolyline
90
8
70
1
43
0.0
10
-32.387500000000003
20
63.056249999999999
10
-33.387500000000003
20
62.056250000000006
10
-45.987499999999997
20
62.056250000000006
10
-46.987499999999997
20
63.056249999999999
10
-46.987499999999997
20
75.056250000000006
10
-45.987499999999997
20
76.056250000000006
10
-33.387500000000003
20
76.056250000000006
10
-32.387500000000003
20
75.056250000000006
0
LWPOLYLINE
5
133
100
AcDbEntity
8
0
100
AcDbPolyline
90
33
70
1
43
0.0
10
-30.002747000000003
20
67.945143999999999
10
-30.215911999999999
20
67.934989000000002
10
-30.427147000000005
20
67.965360000000004
10
-30.628817000000002
20
68.035158999999993
10
-30.813632000000002
20
68.141862000000003
10
-30.974915000000003
20
68.281614000000005
10
-31.106833999999999
20
68.449363000000005
10
-31.204623000000002
20
68.639047000000005
10
-31.264745999999999
20
68.843808999999993
10
-31.285032000000005
20
69.056250000000006
10
-31.264745999999999
20
69.268691000000018
10
-31.204623000000002
20
69.473453000000006
10
-31.106833999999999
20
69.663137000000006
10
-30.974915000000003
20
69.830886000000007
10
-30.813632000000002
20
69.970637999999994
10
-30.628817000000002
20
70.077341000000004
10
-30.427147000000005
20
70.147139999999993
10
-30.215911999999999
20
70.177510999999996
10
-30.002747000000003
20
70.167356000000012
10
-29.795356000000002
20
70.117044000000007
10
-29.601234000000005
20
70.028390999999999
10
-29.427398
20
69.904602999999994
10
-29.28013
20
69.750152999999997
10
-29.164753999999999
20
69.570623999999995
10
-29.085438000000003
20
69.372504000000006
10
-29.045051000000001
20
69.162953000000002
10
-29.045051000000001
20
68.949546999999995
10
-29.085438000000003
20
68.739996000000019
10
-29.164753999999999
20
68.541876000000002
10
-29.28013
20
68.362347
10
-29.427398
20
68.207897000000003
10
-29.601234000000005
20
68.084108999999998
10
-29.795356000000002
20
67.995456000000004
0
LWPOLYLINE
5
134
100
AcDbEntity
8
0
100
AcDbPolyline
90
8
70
1
43
0.0
10
-244.31875000000002
20
44.006250000000009
10
-245.31874999999999
20
43.006250000000001
10
-257.91874999999999
20
43.006250000000001
10
-258.91874999999999
20
44.006250000000009
10
-258.91874999999999
20
56.006250000000009
10
-257.91874999999999
20
57.006250000000009
10
-245.31874999999999
20
57.006250000000009
10
-244.31875000000002
20
56.006250000000009
0
LWPOLYLINE
5
135
100
AcDbEntity
8
0
100
AcDbPolyline
90
33
70
1
43
0.0
10
-241.93399700000001
20
48.895144000000002
10
-242.14716200000001
20
48.884989000000004
10
-242.358397
20
48.915360000000007
10
-242.560067
20
48.985159000000003
10
-242.74488200000002
20
49.091862000000006
10
-242.90616499999999
20
49.231614000000008
10
-243.03808400000003
20
49.399363000000001
10
-243.135873
20
49.589047000000008
10
-243.19599600000004
20
49.79380900000001
10
-243.21628200000004
20
50.006250000000001
10
-243.19599600000004
20
50.218691
10
-243.135873
20
50.423453000000009
10
-243.03808400000003
20
50.613137000000002
10
-242.90616499999999
20
50.78088600000001
10
-242.74488200000002
20
50.920637999999997
10
-242.560067
20
51.027341
10
-242.358397
20
51.097140000000003
10
-242.14716200000001
20
51.127511000000005
10
-241.93399700000001
20
51.117356000000001
10
-241.726606
20
51.06704400000001
10
-241.53248400000001
20
50.978391000000009
10
-241.35864800000002
20
50.854603000000004
10
-241.21138000000002
20
50.700153000000007
10
-241.09600400000002
20
50.520624000000005
10
-241.01668799999999
20
50.322504000000009
10
-240.97630100000003
20
50.112953000000005
10
-240.97630100000003
20
49.899546999999998
10
-241.01668799999999
20
49.689996000000001
10
-241.09600400000002
20
49.491876000000005
10
-241.21138000000002
20
49.31234700000001
10
-241.35864800000002
20
49.157897000000006
10
-241.53248400000001
20
49.034109000000008
10
-241.726606
20
48.945456000000007
0
LWPOLYLINE
5
136
100
AcDbEntity
8
0
100
AcDbPolyline
90
8
70
1
43
0.0
10
-220.50624999999999
20
44.006250000000009
10
-221.50625000000002
20
43.006250000000001
10
-234.10624999999999
20
43.006250000000001
10
-235.10625000000002
20
44.006250000000009
10
-235.10625000000002
20
56.006250000000009
10
-234.10624999999999
20
57.006250000000009
10
-221.50625000000002
20
57.006250000000009
10
-220.50624999999999
20
56.006250000000009
0
LWPOLYLINE
5
137
100
AcDbEntity
8
0
100
AcDbPolyline
90
8
70
1
43
0.0
10
-201.45625000000001
20
44.006250000000009
10
-202.45625000000004
20
43.006250000000001
10
-215.05625000000003
20
43.006250000000001
10
-216.05625000000003
20
44.006250000000009
10
-216.05625000000003
20
56.006250000000009
10
-215.05625000000003
20
57.006250000000009
10
-202.45625000000004
20
57.006250000000009
10
-201.45625000000001
20
56.006250000000009
0
LWPOLYLINE
5
138
100
AcDbEntity
8
0
100
AcDbPolyline
90
33
70
1
43
0.0
10
-199.07149700000002
20
48.895144000000002
10
-199.28466200000003
20
48.884989000000004
10
-199.49589700000004
20
48.915360000000007
10
-199.69756700000002
20
48.985159000000003
10
-199.88238200000001
20
49.091862000000006
10
-200.04366500000003
20
49.231614000000008
10
-200.17558399999999
20
49.399363000000001
10
-200.27337299999999
20
49.589047000000008
10
-200.33349600000003
20
49.79380900000001
10
-200.353782
20
50.006250000000001
10
-200.33349600000003
20
50.218691
10
-200.27337299999999
20
50.423453000000009
10
-200.17558399999999
20
50.613137000000002
10
-200.04366500000003
20
50.78088600000001
10
-199.88238200000001
20
50.920637999999997
10
-199.69756700000002
20
51.027341
10
-199.49589700000004
20
51.097140000000003
10
-199.28466200000003
20
51.127511000000005
10
-199.07149700000002
20
51.117356000000001
10
-198.86410600000002
20
51.06704400000001
10
-198.669984
20
50.978391000000009
10
-198.49614800000001
20
50.854603000000004
10
-198.34888000000004
20
50.700153000000007
10
-198.23350400000004
20
50.520624000000005
10
-198.15418800000003
20
50.322504000000009
10
-198.11380100000002
20
50.112953000000005
10
-198.11380100000002
20
49.899546999999998
10
-198.15418800000003
20
49.689996000000001
10
-198.23350400000004
20
49.491876000000005
10
-198.34888000000004
20
49.31234700000001
10
-198.49614800000001
20
49.157897000000006
10
-198.669984
20
49.034109000000008
10
-198.86410600000002
20
48.945456000000007
0
LWPOLYLINE
5
139
100
AcDbEntity
8
0
100
AcDbPolyline
90
8
70
1
43
0.0
10
-182.40625
20
44.006250000000009
10
-183.40625
20
43.006250000000001
10
-196.00625000000002
20
43.006250000000001
10
-197.00625000000002
20
44.006250000000009
10
-197.00625000000002
20
56.006250000000009
10
-196.00625000000002
20
57.006250000000009
10
-183.40625
20
57.006250000000009
10
-182.40625
20
56.006250000000009
0
LWPOLYLINE
5
140
100
AcDbEntity
8
0
100
AcDbPolyline
90
8
70
1
43
0.0
10
-163.35624999999999
20
44.006250000000009
10
-164.35624999999999
20
43.006250000000001
10
-176.95625000000004
20
43.006250000000001
10
-177.95625000000001
20
44.006250000000009
10
-177.95625000000001
20
56.006250000000009
10
-176.95625000000004
20
57.006250000000009
10
-164.35624999999999
20
57.006250000000009
10
-163.35624999999999
20
56.006250000000009
0
LWPOLYLINE
5
141
100
AcDbEntity
8
0
100
AcDbPolyline
90
8
70
1
43
0.0
10
-144.30625000000001
20
44.006250000000009
10
-145.30625000000001
20
43.006250000000001
10
-157.90625
20
43.006250000000001
10
-158.90625
20
44.006250000000009
10
-158.90625
20
56.006250000000009
10
-157.90625
20
57.006250000000009
10
-145.30625000000001
20
57.006250000000009
10
-144.30625000000001
20
56.006250000000009
0
LWPOLYLINE
5
142
100
AcDbEntity
8
0
100
AcDbPolyline
90
33
70
1
43
0.0
10
-258.60274700000002
20
29.845144000000001
10
-258.81591200000003
20
29.834989000000004
10
-259.02714700000001
20
29.865360000000003
10
-259.22881699999999
20
29.935159000000002
10
-259.41363200000001
20
30.041861999999998
10
-259.57491499999998
20
30.181614000000003
10
-259.70683400000001
20
30.349363
10
-259.80462299999999
20
30.539047000000004
10
-259.86474600000003
20
30.743808999999999
10
-259.88503200000002
20
30.956250000000001
10
-259.86474600000003
20
31.168691000000003
10
-259.80462299999999
20
31.373453000000001
10
-259.70683400000001
20
31.563137000000001
10
-259.57491499999998
20
31.730886000000002
10
-259.41363200000001
20
31.870638000000003
10
-259.22881699999999
20
31.977340999999999
10
-259.02714700000001
20
32.047139999999999
10
-258.81591200000003
20
32.077511000000001
10
-258.60274700000002
20
32.067356000000004
10
-258.39535599999999
20
32.017043999999999
10
-258.201234
20
31.928391000000005
10
-258.02739800000001
20
31.804603
10
-257.88013000000001
20
31.650153000000003
10
-257.76475399999998
20
31.470624000000001
10
-257.68543799999998
20
31.272504000000005
10
-257.64505100000002
20
31.062953
10
-257.64505100000002
20
30.849547000000005
10
-257.68543799999998
20
30.639996000000004
10
-257.76475399999998
20
30.441876000000004
10
-257.88013000000001
20
30.262346999999998
10
-258.02739800000001
20
30.107897000000001
10
-258.201234
20
29.984109
10
-258.39535599999999
20
29.895455999999999
0
LWPOLYLINE
5
143
100
AcDbEntity
8
0
100
AcDbPolyline
90
8
70
1
43
0.0
10
-241.9375
20
24.956250000000004
10
-242.93750000000003
20
23.956250000000004
10
-255.53750000000002
20
23.956250000000004
10
-256.53750000000002
20
24.956250000000004
10
-256.53750000000002
20
36.956249999999997
10
-255.53750000000002
20
37.956249999999997
10
-242.93750000000003
20
37.956249999999997
10
-241.9375
20
36.956249999999997
0
LWPOLYLINE
5
144
100
AcDbEntity
8
0
100
AcDbPolyline
90
8
70
1
43
0.0
10
-215.74375000000003
20
24.956250000000004
10
-216.74375000000001
20
23.956250000000004
10
-229.34375000000003
20
23.956250000000004
10
-230.34375
20
24.956250000000004
10
-230.34375
20
36.956249999999997
10
-229.34375000000003
20
37.956249999999997
10
-216.74375000000001
20
37.956249999999997
10
-215.74375000000003
20
36.956249999999997
0
LWPOLYLINE
5
145
100
AcDbEntity
8
0
100
AcDbPolyline
90
33
70
1
43
0.0
10
-213.35899699999999
20
29.845144000000001
10
-213.57216199999999
20
29.834989000000004
10
-213.78339700000001
20
29.865360000000003
10
-213.98506699999999
20
29.935159000000002
10
-214.16988200000003
20
30.041861999999998
10
-214.331165
20
30.181614000000003
10
-214.46308400000004
20
30.349363
10
-214.56087300000002
20
30.539047000000004
10
-214.62099600000002
20
30.743808999999999
10
-214.64128200000002
20
30.956250000000001
10
-214.62099600000002
20
31.168691000000003
10
-214.56087300000002
20
31.373453000000001
10
-214.46308400000004
20
31.563137000000001
10
-214.331165
20
31.730886000000002
10
-214.16988200000003
20
31.870638000000003
10
-213.98506699999999
20
31.977340999999999
10
-213.78339700000001
20
32.047139999999999
10
-213.57216199999999
20
32.077511000000001
10
-213.35899699999999
20
32.067356000000004
10
-213.15160599999999
20
32.017043999999999
10
-212.95748400000002
20
31.928391000000005
10
-212.78364800000003
20
31.804603
10
-212.63638
20
31.650153000000003
10
-212.52100400000003
20
31.470624000000001
10
-212.441688
20
31.272504000000005
10
-212.40130100000002
20
31.062953
10
-212.40130100000002
20
30.849547000000005
10
-212.441688
20
30.639996000000004
10
-212.52100400000003
20
30.441876000000004
10
-212.63638
20
30.262346999999998
10
-212.78364800000003
20
30.107897000000001
10
-212.95748400000002
20
29.984109
10
-213.15160599999999
20
29.895455999999999
0
LWPOLYLINE
5
146
100
AcDbEntity
8
0
100
AcDbPolyline
90
8
70
1
43
0.0
10
-196.69375000000002
20
24.956250000000004
10
-197.69374999999999
20
23.956250000000004
10
-210.29375000000002
20
23.956250000000004
10
-211.29374999999999
20
24.956250000000004
10
-211.29374999999999
20
36.956249999999997
10
-210.29375000000002
20
37.956249999999997
10
-197.69374999999999
20
37.956249999999997
10
-196.69375000000002
20
36.956249999999997
0
LWPOLYLINE
5
147
100
AcDbEntity
8
0
100
AcDbPolyline
90
35
70
1
43
0.0
10
-255.127971
20
16.962589999999999
10
-255.35004100000003
20
16.932509
10
-255.573914
20
16.942563
10
-255.792393
20
16.992429000000001
10
-255.998458
20
17.080506
10
-256.18548399999997
20
17.203961
10
-256.34746100000001
20
17.358827000000005
10
-256.47918300000003
20
17.540126000000001
10
-256.57641599999999
20
17.742031000000004
10
-256.636034
20
17.958054000000001
10
-256.65612199999998
20
18.181249999999999
10
-256.636034
20
18.404446
10
-256.57641599999999
20
18.620469
10
-256.47918300000003
20
18.822374000000003
10
-256.34746100000001
20
19.003672999999999
10
-256.18548399999997
20
19.158539000000001
10
-255.998458
20
19.281994000000001
10
-255.792393
20
19.370070999999999
10
-255.573914
20
19.419937000000004
10
-255.35004100000003
20
19.429991000000001
10
-255.127971
20
19.399909999999998
10
-254.91484100000002
20
19.330660000000002
10
-254.71750100000003
20
19.224467000000001
10
-254.54229400000003
20
19.084744000000001
10
-254.39485099999999
20
18.915982
10
-254.279911
20
18.723604999999999
10
-254.20116800000002
20
18.513795999999999
10
-254.16115400000001
20
18.293299000000005
10
-254.16115400000001
20
18.069201
10
-254.20116800000002
20
17.848704000000001
10
-254.279911
20
17.638895000000005
10
-254.39485099999999
20
17.446518000000001
10
-254.54229400000003
20
17.277756000000004
10
-254.71750100000003
20
17.138033
10
-254.91484100000002
20
17.031839999999999
0
LWPOLYLINE
5
148
100
AcDbEntity
8
0
100
AcDbPolyline
90
8
70
1
43
0.0
10
-177.64375000000001
20
24.956250000000004
10
-178.64375000000001
20
23.956250000000004
10
-191.24375000000001
20
23.956250000000004
10
-192.24375000000003
20
24.956250000000004
10
-192.24375000000003
20
36.956249999999997
10
-191.24375000000001
20
37.956249999999997
10
-178.64375000000001
20
37.956249999999997
10
-177.64375000000001
20
36.956249999999997
0
LWPOLYLINE
5
149
100
AcDbEntity
8
0
100
AcDbPolyline
90
8
70
1
43
0.0
10
-158.59375
20
24.956250000000004
10
-159.59375
20
23.956250000000004
10
-172.19374999999999
20
23.956250000000004
10
-173.19375000000002
20
24.956250000000004
10
-173.19375000000002
20
36.956249999999997
10
-172.19374999999999
20
37.956249999999997
10
-159.59375
20
37.956249999999997
10
-158.59375
20
36.956249999999997
0
LWPOLYLINE
5
150
100
AcDbEntity
8
0
100
AcDbPolyline
90
33
70
1
43
0.0
10
-156.20899700000001
20
29.845144000000001
10
-156.42216200000001
20
29.834989000000004
10
-156.633397
20
29.865360000000003
10
-156.83506700000004
20
29.935159000000002
10
-157.019882
20
30.041861999999998
10
-157.18116500000002
20
30.181614000000003
10
-157.313084
20
30.349363
10
-157.41087300000001
20
30.539047000000004
10
-157.47099600000001
20
30.743808999999999
10
-157.49128200000001
20
30.956250000000001
10
-157.47099600000001
20
31.168691000000003
10
-157.41087300000001
20
31.373453000000001
10
-157.313084
20
31.563137000000001
10
-157.18116500000002
20
31.730886000000002
10
-157.019882
20
31.870638000000003
10
-156.83506700000004
20
31.977340999999999
10
-156.633397
20
32.047139999999999
10
-156.42216200000001
20
32.077511000000001
10
-156.20899700000001
20
32.067356000000004
10
-156.00160600000004
20
32.017043999999999
10
-155.80748399999999
20
31.928391000000005
10
-155.63364799999999
20
31.804603
10
-155.48638
20
31.650153000000003
10
-155.371004
20
31.470624000000001
10
-155.29168800000002
20
31.272504000000005
10
-155.25130100000001
20
31.062953
10
-155.25130100000001
20
30.849547000000005
10
-155.29168800000002
20
30.639996000000004
10
-155.371004
20
30.441876000000004
10
-155.48638
20
30.262346999999998
10
-155.63364799999999
20
30.107897000000001
10
-155.80748399999999
20
29.984109
10
-156.00160600000004
20
29.895455999999999
0
LWPOLYLINE
5
151
100
AcDbEntity
8
0
100
AcDbPolyline
90
8
70
1
43
0.0
10
-139.54374999999999
20
24.956250000000004
10
-140.54374999999999
20
23.956250000000004
10
-153.14375000000001
20
23.956250000000004
10
-154.14375000000001
20
24.956250000000004
10
-154.14375000000001
20
36.956249999999997
10
-153.14375000000001
20
37.956249999999997
10
-140.54374999999999
20
37.956249999999997
10
-139.54374999999999
20
36.956249999999997
0
LWPOLYLINE
5
152
100
AcDbEntity
8
0
100
AcDbPolyline
90
33
70
1
43
0.0
10
-141.92149699999999
20
48.895144000000002
10
-142.13466199999999
20
48.884989000000004
10
-142.34589700000001
20
48.915360000000007
10
-142.54756699999999
20
48.985159000000003
10
-142.73238200000003
20
49.091862000000006
10
-142.893665
20
49.231614000000008
10
-143.02558400000004
20
49.399363000000001
10
-143.12337299999999
20
49.589047000000008
10
-143.18349599999999
20
49.79380900000001
10
-143.20378199999999
20
50.006250000000001
10
-143.18349599999999
20
50.218691
10
-143.12337299999999
20
50.423453000000009
10
-143.02558400000004
20
50.613137000000002
10
-142.893665
20
50.78088600000001
10
-142.73238200000003
20
50.920637999999997
10
-142.54756699999999
20
51.027341
10
-142.34589700000001
20
51.097140000000003
10
-142.13466199999999
20
51.127511000000005
10
-141.92149699999999
20
51.117356000000001
10
-141.71410599999999
20
51.06704400000001
10
-141.51998399999999
20
50.978391000000009
10
-141.34614800000003
20
50.854603000000004
10
-141.19888
20
50.700153000000007
10
-141.083504
20
50.520624000000005
10
-141.004188
20
50.322504000000009
10
-140.96380099999999
20
50.112953000000005
10
-140.96380099999999
20
49.899546999999998
10
-141.004188
20
49.689996000000001
10
-141.083504
20
49.491876000000005
10
-141.19888
20
49.31234700000001
10
-141.34614800000003
20
49.157897000000006
10
-141.51998399999999
20
49.034109000000008
10
-141.71410599999999
20
48.945456000000007
0
LWPOLYLINE
5
153
100
AcDbEntity
8
0
100
AcDbPolyline
90
8
70
1
43
0.0
10
-125.25624999999999
20
44.006250000000009
10
-126.25624999999999
20
43.006250000000001
10
-138.85624999999999
20
43.006250000000001
10
-139.85624999999999
20
44.006250000000009
10
-139.85624999999999
20
56.006250000000009
10
-138.85624999999999
20
57.006250000000009
10
-126.25624999999999
20
57.006250000000009
10
-125.25624999999999
20
56.006250000000009
0
LWPOLYLINE
5
154
100
AcDbEntity
8
0
100
AcDbPolyline
90
8
70
1
43
0.0
10
-106.20625000000001
20
44.006250000000009
10
-107.20625
20
43.006250000000001
10
-119.80625000000002
20
43.006250000000001
10
-120.80625000000001
20
44.006250000000009
10
-120.80625000000001
20
56.006250000000009
10
-119.80625000000002
20
57.006250000000009
10
-107.20625
20
57.006250000000009
10
-106.20625000000001
20
56.006250000000009
0
LWPOLYLINE
5
155
100
AcDbEntity
8
0
100
AcDbPolyline
90
33
70
1
43
0.0
10
-103.82149699999999
20
48.895144000000002
10
-104.034662
20
48.884989000000004
10
-104.245897
20
48.915360000000007
10
-104.44756700000001
20
48.985159000000003
10
-104.63238200000001
20
49.091862000000006
10
-104.793665
20
49.231614000000008
10
-104.925584
20
49.399363000000001
10
-105.02337300000001
20
49.589047000000008
10
-105.08349600000001
20
49.79380900000001
10
-105.103782
20
50.006250000000001
10
-105.08349600000001
20
50.218691
10
-105.02337300000001
20
50.423453000000009
10
-104.925584
20
50.613137000000002
10
-104.793665
20
50.78088600000001
10
-104.63238200000001
20
50.920637999999997
10
-104.44756700000001
20
51.027341
10
-104.245897
20
51.097140000000003
10
-104.034662
20
51.127511000000005
10
-103.82149699999999
20
51.117356000000001
10
-103.61410600000001
20
51.06704400000001
10
-103.41998400000001
20
50.978391000000009
10
-103.24614800000001
20
50.854603000000004
10
-103.09888000000001
20
50.700153000000007
10
-102.98350400000001
20
50.520624000000005
10
-102.904188
20
50.322504000000009
10
-102.86380100000001
20
50.112953000000005
10
-102.86380100000001
20
49.899546999999998
10
-102.904188
20
49.689996000000001
10
-102.98350400000001
20
49.491876000000005
10
-103.09888000000001
20
49.31234700000001
10
-103.24614800000001
20
49.157897000000006
10
-103.41998400000001
20
49.034109000000008
10
-103.61410600000001
20
48.945456000000007
0
LWPOLYLINE
5
156
100
AcDbEntity
8
0
100
AcDbPolyline
90
8
70
1
43
0.0
10
-87.156250000000014
20
44.006250000000009
10
-88.15625
20
43.006250000000001
10
-100.75625000000001
20
43.006250000000001
10
-101.75624999999999
20
44.006250000000009
10
-101.75624999999999
20
56.006250000000009
10
-100.75625000000001
20
57.006250000000009
10
-88.15625
20
57.006250000000009
10
-87.156250000000014
20
56.006250000000009
0
LWPOLYLINE
5
157
100
AcDbEntity
8
0
100
AcDbPolyline
90
8
70
1
43
0.0
10
-68.106250000000003
20
44.006250000000009
10
-69.106250000000003
20
43.006250000000001
10
-81.706249999999997
20
43.006250000000001
10
-82.706250000000011
20
44.006250000000009
10
-82.706250000000011
20
56.006250000000009
10
-81.706249999999997
20
57.006250000000009
10
-69.106250000000003
20
57.006250000000009
10
-68.106250000000003
20
56.006250000000009
0
LWPOLYLINE
5
158
100
AcDbEntity
8
0
100
AcDbPolyline
90
33
70
1
43
0.0
10
-65.721496999999999
20
48.895144000000002
10
-65.934662000000003
20
48.884989000000004
10
-66.145897000000005
20
48.915360000000007
10
-66.347566999999998
20
48.985159000000003
10
-66.532382000000013
20
49.091862000000006
10
-66.693664999999996
20
49.231614000000008
10
-66.825584000000021
20
49.399363000000001
10
-66.923372999999998
20
49.589047000000008
10
-66.983496000000002
20
49.79380900000001
10
-67.003782000000001
20
50.006250000000001
10
-66.983496000000002
20
50.218691
10
-66.923372999999998
20
50.423453000000009
10
-66.825584000000021
20
50.613137000000002
10
-66.693664999999996
20
50.78088600000001
10
-66.532382000000013
20
50.920637999999997
10
-66.347566999999998
20
51.027341
10
-66.145897000000005
20
51.097140000000003
10
-65.934662000000003
20
51.127511000000005
10
-65.721496999999999
20
51.117356000000001
10
-65.514105999999998
20
51.06704400000001
10
-65.319984000000005
20
50.978391000000009
10
-65.146148000000011
20
50.854603000000004
10
-64.99888
20
50.700153000000007
10
-64.883504000000002
20
50.520624000000005
10
-64.804187999999996
20
50.322504000000009
10
-64.763801000000001
20
50.112953000000005
10
-64.763801000000001
20
49.899546999999998
10
-64.804187999999996
20
49.689996000000001
10
-64.883504000000002
20
49.491876000000005
10
-64.99888
20
49.31234700000001
10
-65.146148000000011
20
49.157897000000006
10
-65.319984000000005
20
49.034109000000008
10
-65.514105999999998
20
48.945456000000007
0
LWPOLYLINE
5
159
100
AcDbEntity
8
0
100
AcDbPolyline
90
8
70
1
43
0.0
10
-49.056250000000006
20
44.006250000000009
10
-50.056250000000006
20
43.006250000000001
10
-62.65625
20
43.006250000000001
10
-63.656250000000007
20
44.006250000000009
10
-63.656250000000007
20
56.006250000000009
10
-62.65625
20
57.006250000000009
10
-50.056250000000006
20
57.006250000000009
10
-49.056250000000006
20
56.006250000000009
0
LWPOLYLINE
5
160
100
AcDbEntity
8
0
100
AcDbPolyline
90
8
70
1
43
0.0
10
-27.625
20
44.006250000000009
10
-28.625000000000004
20
43.006250000000001
10
-41.225000000000009
20
43.006250000000001
10
-42.225000000000001
20
44.006250000000009
10
-42.225000000000001
20
56.006250000000009
10
-41.225000000000009
20
57.006250000000009
10
-28.625000000000004
20
57.006250000000009
10
-27.625
20
56.006250000000009
0
LWPOLYLINE
5
161
100
AcDbEntity
8
0
100
AcDbPolyline
90
33
70
1
43
0.0
10
-25.240247
20
48.895144000000002
10
-25.453412
20
48.884989000000004
10
-25.664647000000002
20
48.915360000000007
10
-25.866316999999999
20
48.985159000000003
10
-26.051131999999999
20
49.091862000000006
10
-26.212415
20
49.231614000000008
10
-26.344334000000003
20
49.399363000000001
10
-26.442122999999999
20
49.589047000000008
10
-26.502246
20
49.79380900000001
10
-26.522532000000005
20
50.006250000000001
10
-26.502246
20
50.218691
10
-26.442122999999999
20
50.423453000000009
10
-26.344334000000003
20
50.613137000000002
10
-26.212415
20
50.78088600000001
10
-26.051131999999999
20
50.920637999999997
10
-25.866316999999999
20
51.027341
10
-25.664647000000002
20
51.097140000000003
10
-25.453412
20
51.127511000000005
10
-25.240247
20
51.117356000000001
10
-25.032855999999999
20
51.06704400000001
10
-24.838734000000002
20
50.978391000000009
10
-24.664898000000001
20
50.854603000000004
10
-24.51763
20
50.700153000000007
10
-24.402253999999999
20
50.520624000000005
10
-24.322938000000001
20
50.322504000000009
10
-24.282551000000005
20
50.112953000000005
10
-24.282551000000005
20
49.899546999999998
10
-24.322938000000001
20
49.689996000000001
10
-24.402253999999999
20
49.491876000000005
10
-24.51763
20
49.31234700000001
10
-24.664898000000001
20
49.157897000000006
10
-24.838734000000002
20
49.034109000000008
10
-25.032855999999999
20
48.945456000000007
0
LWPOLYLINE
5
162
100
AcDbEntity
8
0
100
AcDbPolyline
90
8
70
1
43
0.0
10
-120.49375000000001
20
24.956250000000004
10
-121.49375000000001
20
23.956250000000004
10
-134.09375
20
23.956250000000004
10
-135.09375
20
24.956250000000004
10
-135.09375
20
36.956249999999997
10
-134.09375
20
37.956249999999997
10
-121.49375000000001
20
37.956249999999997
10
-120.49375000000001
20
36.956249999999997
0
LWPOLYLINE
5
163
100
AcDbEntity
8
0
100
AcDbPolyline
90
8
70
1
43
0.0
10
-101.44374999999999
20
24.956250000000004
10
-102.44374999999999
20
23.956250000000004
10
-115.04375000000002
20
23.956250000000004
10
-116.04375000000002
20
24.956250000000004
10
-116.04375000000002
20
36.956249999999997
10
-115.04375000000002
20
37.956249999999997
10
-102.44374999999999
20
37.956249999999997
10
-101.44374999999999
20
36.956249999999997
0
LWPOLYLINE
5
164
100
AcDbEntity
8
0
100
AcDbPolyline
90
33
70
1
43
0.0
10
-99.058997000000005
20
29.845144000000001
10
-99.272162000000009
20
29.834989000000004
10
-99.483396999999997
20
29.865360000000003
10
-99.685067000000004
20
29.935159000000002
10
-99.869882000000004
20
30.041861999999998
10
-100.03116500000002
20
30.181614000000003
10
-100.163084
20
30.349363
10
-100.260873
20
30.539047000000004
10
-100.32099600000001
20
30.743808999999999
10
-100.34128200000001
20
30.956250000000001
10
-100.32099600000001
20
31.168691000000003
10
-100.260873
20
31.373453000000001
10
-100.163084
20
31.563137000000001
10
-100.03116500000002
20
31.730886000000002
10
-99.869882000000004
20
31.870638000000003
10
-99.685067000000004
20
31.977340999999999
10
-99.483396999999997
20
32.047139999999999
10
-99.272162000000009
20
32.077511000000001
10
-99.058997000000005
20
32.067356000000004
10
-98.851606000000004
20
32.017043999999999
10
-98.657484000000011
20
31.928391000000005
10
-98.483648000000002
20
31.804603
10
-98.336380000000005
20
31.650153000000003
10
-98.221003999999994
20
31.470624000000001
10
-98.141688000000016
20
31.272504000000005
10
-98.101301000000021
20
31.062953
10
-98.101301000000021
20
30.849547000000005
10
-98.141688000000016
20
30.639996000000004
10
-98.221003999999994
20
30.441876000000004
10
-98.336380000000005
20
30.262346999999998
10
-98.483648000000002
20
30.107897000000001
10
-98.657484000000011
20
29.984109
10
-98.851606000000004
20
29.895455999999999
0
LWPOLYLINE
5
165
100
AcDbEntity
8
0
100
AcDbPolyline
90
8
70
1
43
0.0
10
-82.393750000000011
20
24.956250000000004
10
-83.393750000000011
20
23.956250000000004
10
-95.993750000000006
20
23.956250000000004
10
-96.99375000000002
20
24.956250000000004
10
-96.99375000000002
20
36.956249999999997
10
-95.993750000000006
20
37.956249999999997
10
-83.393750000000011
20
37.956249999999997
10
-82.393750000000011
20
36.956249999999997
0
LWPOLYLINE
5
166
100
AcDbEntity
8
0
100
AcDbPolyline
90
8
70
1
43
0.0
10
-63.343750000000007
20
24.956250000000004
10
-64.34375
20
23.956250000000004
10
-76.943749999999994
20
23.956250000000004
10
-77.943749999999994
20
24.956250000000004
10
-77.943749999999994
20
36.956249999999997
10
-76.943749999999994
20
37.956249999999997
10
-64.34375
20
37.956249999999997
10
-63.343750000000007
20
36.956249999999997
0
LWPOLYLINE
5
167
100
AcDbEntity
8
0
100
AcDbPolyline
90
8
70
1
43
0.0
10
-44.293750000000003
20
24.956250000000004
10
-45.29375000000001
20
23.956250000000004
10
-57.893749999999997
20
23.956250000000004
10
-58.893750000000004
20
24.956250000000004
10
-58.893750000000004
20
36.956249999999997
10
-57.893749999999997
20
37.956249999999997
10
-45.29375000000001
20
37.956249999999997
10
-44.293750000000003
20
36.956249999999997
0
LWPOLYLINE
5
168
100
AcDbEntity
8
0
100
AcDbPolyline
90
33
70
1
43
0.0
10
-41.908996999999999
20
29.845144000000001
10
-42.122162000000003
20
29.834989000000004
10
-42.333397000000005
20
29.865360000000003
10
-42.535066999999998
20
29.935159000000002
10
-42.719881999999998
20
30.041861999999998
10
-42.881165000000003
20
30.181614000000003
10
-43.013083999999999
20
30.349363
10
-43.110872999999998
20
30.539047000000004
10
-43.170996000000002
20
30.743808999999999
10
-43.191282000000008
20
30.956250000000001
10
-43.170996000000002
20
31.168691000000003
10
-43.110872999999998
20
31.373453000000001
10
-43.013083999999999
20
31.563137000000001
10
-42.881165000000003
20
31.730886000000002
10
-42.719881999999998
20
31.870638000000003
10
-42.535066999999998
20
31.977340999999999
10
-42.333397000000005
20
32.047139999999999
10
-42.122162000000003
20
32.077511000000001
10
-41.908996999999999
20
32.067356000000004
10
-41.701605999999998
20
32.017043999999999
10
-41.507484000000005
20
31.928391000000005
10
-41.333647999999997
20
31.804603
10
-41.18638
20
31.650153000000003
10
-41.071004000000002
20
31.470624000000001
10
-40.991688000000003
20
31.272504000000005
10
-40.951301000000001
20
31.062953
10
-40.951301000000001
20
30.849547000000005
10
-40.991688000000003
20
30.639996000000004
10
-41.071004000000002
20
30.441876000000004
10
-41.18638
20
30.262346999999998
10
-41.333647999999997
20
30.107897000000001
10
-41.507484000000005
20
29.984109
10
-41.701605999999998
20
29.895455999999999
0
LWPOLYLINE
5
169
100
AcDbEntity
8
0
100
AcDbPolyline
90
8
70
1
43
0.0
10
-25.243749999999999
20
24.956250000000004
10
-26.243750000000002
20
23.956250000000004
10
-38.84375
20
23.956250000000004
10
-39.84375
20
24.956250000000004
10
-39.84375
20
36.956249999999997
10
-38.84375
20
37.956249999999997
10
-26.243750000000002
20
37.956249999999997
10
-25.243749999999999
20
36.956249999999997
0
LWPOLYLINE
5
170
100
AcDbEntity
8
0
100
AcDbPolyline
90
35
70
1
43
0.0
10
-33.240470999999999
20
16.962589999999999
10
-33.462541000000002
20
16.932509
10
-33.686413999999999
20
16.942563
10
-33.904893000000001
20
16.992429000000001
10
-34.110957999999997
20
17.080506
10
-34.297984
20
17.203961
10
-34.459961000000007
20
17.358827000000005
10
-34.591683000000003
20
17.540126000000001
10
-34.688915999999999
20
17.742031000000004
10
-34.748533999999999
20
17.958054000000001
10
-34.768622000000001
20
18.181249999999999
10
-34.748533999999999
20
18.404446
10
-34.688915999999999
20
18.620469
10
-34.591683000000003
20
18.822374000000003
10
-34.459961000000007
20
19.003672999999999
10
-34.297984
20
19.158539000000001
10
-34.110957999999997
20
19.281994000000001
10
-33.904893000000001
20
19.370070999999999
10
-33.686413999999999
20
19.419937000000004
10
-33.462541000000002
20
19.429991000000001
10
-33.240470999999999
20
19.399909999999998
10
-33.027341000000007
20
19.330660000000002
10
-32.83000100000001
20
19.224467000000001
10
-32.654794000000003
20
19.084744000000001
10
-32.507351
20
18.915982
10
-32.392411000000003
20
18.723604999999999
10
-32.313668
20
18.513795999999999
10
-32.273654000000001
20
18.293299000000005
10
-32.273654000000001
20
18.069201
10
-32.313668
20
17.848704000000001
10
-32.392411000000003
20
17.638895000000005
10
-32.507351
20
17.446518000000001
10
-32.654794000000003
20
17.277756000000004
10
-32.83000100000001
20
17.138033
10
-33.027341000000007
20
17.031839999999999
0
ENDSEC
0
SECTION
2
OBJECTS
0
DICTIONARY
5
C
100
AcDbDictionary
3
ACAD_GROUP
350
D
3
ACAD_MLINESTYLE
350
17
0
DICTIONARY
5
D
100
AcDbDictionary
0
DICTIONARY
5
1A
330
C
100
AcDbDictionary
0
DICTIONARY
5
17
100
AcDbDictionary
0
ENDSEC
0
EOF
