0
SECTION
2
HEADER
9
$INSUNITS
70
4
9
$ACADVER
1
AC1014
9
$HANDSEED
5
FFFF
0
ENDSEC
0
SECTION
2
TABLES
0
TABLE
2
VPORT
5
8
100
AcDbSymbolTable
0
ENDTAB
0
TABLE
2
LTYPE
5
5
100
AcDbSymbolTable
0
LTYPE
5
14
100
AcDbSymbolTableRecord
100
AcDbLinetypeTableRecord
2
BYBLOCK
70
0
0
LTYPE
5
15
100
AcDbSymbolTableRecord
100
AcDbLinetypeTableRecord
2
BYLAYER
70
0
0
ENDTAB
0
TABLE
2
LAYER
5
2
100
AcDbSymbolTable
70
2
0
LAYER
5
50
100
AcDbSymbolTableRecord
100
AcDbLayerTableRecord
2
0
70
0
6
CONTINUOUS
0
ENDTAB
0
TABLE
2
STYLE
5
3
100
AcDbSymbolTable
70
1
0
STYLE
5
11
100
AcDbSymbolTableRecord
100
AcDbTextStyleTableRecord
2
STANDARD
70
0
0
ENDTAB
0
TABLE
2
VIEW
5
6
100
AcDbSymbolTable
70
0
0
ENDTAB
0
TABLE
2
UCS
5
7
100
AcDbSymbolTable
70
0
0
ENDTAB
0
TABLE
2
APPID
5
9
100
AcDbSymbolTable
70
2
0
APPID
5
12
100
AcDbSymbolTableRecord
100
AcDbRegAppTableRecord
2
ACAD
70
0
0
ENDTAB
0
TABLE
2
DIMSTYLE
5
A
100
AcDbSymbolTable
70
1
0
ENDTAB
0
TABLE
2
BLOCK_RECORD
5
1
100
AcDbSymbolTable
70
1
0
BLOCK_RECORD
5
1F
100
AcDbSymbolTableRecord
100
AcDbBlockTableRecord
2
*MODEL_SPACE
0
BLOCK_RECORD
5
1B
100
AcDbSymbolTableRecord
100
AcDbBlockTableRecord
2
*PAPER_SPACE
0
ENDTAB
0
ENDSEC
0
SECTION
2
BLOCKS
0
BLOCK
5
20
100
AcDbEntity
100
AcDbBlockBegin
2
*MODEL_SPACE
0
ENDBLK
5
21
100
AcDbEntity
100
AcDbBlockEnd
0
BLOCK
5
1C
100
AcDbEntity
100
AcDbBlockBegin
2
*PAPER_SPACE
0
ENDBLK
5
1D
100
AcDbEntity
100
AcDbBlockEnd
0
ENDSEC
0
SECTION
2
ENTITIES
0
LWPOLYLINE
5
100
100
AcDbEntity
8
0
100
AcDbPolyline
90
150
70
1
43
0.0
10
-252.10351000000003
20
47.570582999999999
10
-251.788747
20
47.512898000000007
10
-251.469326
20
47.493572
10
-46.969326000000002
20
47.493572
10
-46.649903999999999
20
47.512894000000003
10
-46.33514000000001
20
47.570577
10
-46.029623999999998
20
47.665779999999998
10
-45.737811999999998
20
47.797115000000005
10
-45.463957000000008
20
47.962665999999999
10
-45.212054000000002
20
48.16002000000001
10
-44.985776000000001
20
48.386297999999996
10
-44.788423000000002
20
48.638202
10
-44.622872000000001
20
48.912057000000004
10
-44.491538000000006
20
49.203870000000009
10
-44.396335999999998
20
49.509386000000006
10
-44.338653000000001
20
49.824150000000003
10
-44.319325999999997
20
50.143571999999999
10
-44.319325999999997
20
121.693572
10
-44.338571999999999
20
121.987257
10
-44.395987000000005
20
122.275918
10
-44.490589999999997
20
122.55461400000002
10
-44.620759999999997
20
122.818578
10
-44.784272000000001
20
123.06329300000002
10
-44.978327
20
123.28457100000001
10
-45.199604999999998
20
123.478627
10
-45.444319999999998
20
123.64213900000001
10
-45.708283999999999
20
123.77231000000002
10
-45.986980000000003
20
123.86691200000001
10
-46.275641
20
123.92432800000002
10
-46.569326000000004
20
123.94357200000002
10
-70.894326000000007
20
123.94357200000002
10
-71.188006000000001
20
123.92431999999999
10
-71.476660999999993
20
123.866899
10
-71.755351000000019
20
123.77229300000002
10
-72.019309000000007
20
123.64212000000002
10
-72.264016999999996
20
123.47860600000001
10
-72.48529000000002
20
123.28455099999999
10
-72.679338999999999
20
123.06327500000002
10
-72.842847000000006
20
122.818562
10
-72.973014000000006
20
122.55460200000002
10
-73.067612999999994
20
122.27590900000001
10
-73.125027000000003
20
121.987253
10
-73.144326000000007
20
121.693572
10
-73.144326000000007
20
106.64357200000001
10
-73.165862000000004
20
106.369811
10
-73.229961000000003
20
106.10279
10
-73.335045000000008
20
105.849085
10
-73.478526000000002
20
105.61494400000001
10
-73.656870999999995
20
105.40613300000001
10
-73.865688000000006
20
105.227795
10
-74.099833000000004
20
105.084321
10
-74.353541000000007
20
104.97924400000001
10
-74.620564000000002
20
104.91515300000002
10
-74.894326000000007
20
104.89357200000001
10
-90.194326000000004
20
104.89357200000001
10
-90.468085000000002
20
104.91512100000001
10
-90.735103000000009
20
104.979229
10
-90.988804999999999
20
105.084318
10
-91.222943999999998
20
105.2278
10
-91.431755999999993
20
105.40614300000001
10
-91.610099000000019
20
105.614954
10
-91.753580999999997
20
105.849093
10
-91.858670000000004
20
106.10279500000001
10
-91.922779000000006
20
106.36981300000001
10
-91.944326000000004
20
106.64357200000001
10
-91.944326000000004
20
121.693572
10
-91.963571999999999
20
121.987257
10
-92.020987000000005
20
122.275918
10
-92.115589999999997
20
122.55461400000002
10
-92.245760000000004
20
122.818578
10
-92.409272000000001
20
123.06329300000002
10
-92.603326999999993
20
123.28457100000001
10
-92.824605000000005
20
123.478627
10
-93.069320000000019
20
123.64213900000001
10
-93.333284000000006
20
123.77231000000002
10
-93.611980000000003
20
123.86691200000001
10
-93.900641000000007
20
123.92432800000002
10
-94.194326000000004
20
123.94357200000002
10
-204.24432600000003
20
123.94357200000002
10
-204.53800200000003
20
123.924308
10
-204.82665100000003
20
123.866879
10
-205.10533600000002
20
123.772266
10
-205.36928800000001
20
123.64209000000001
10
-205.613992
20
123.478576
10
-205.83526000000003
20
123.28452200000001
10
-206.02930900000004
20
123.063249
10
-206.19281700000002
20
122.81854100000001
10
-206.32298700000004
20
122.554586
10
-206.41759300000004
20
122.275899
10
-206.47501500000004
20
121.98724800000001
10
-206.494326
20
121.693572
10
-206.494326
20
106.64357200000001
10
-206.515862
20
106.369811
10
-206.57996100000003
20
106.10279
10
-206.685045
20
105.849085
10
-206.82852600000004
20
105.61494400000001
10
-207.00687099999999
20
105.40613300000001
10
-207.215688
20
105.227795
10
-207.44983300000001
20
105.084321
10
-207.70354100000003
20
104.97924400000001
10
-207.97056400000002
20
104.91515300000002
10
-208.244326
20
104.89357200000001
10
-223.54432600000001
20
104.89357200000001
10
-223.81808500000002
20
104.91512100000001
10
-224.08510300000003
20
104.979229
10
-224.33880500000001
20
105.084318
10
-224.57294400000001
20
105.2278
10
-224.781756
20
105.40614300000001
10
-224.96009900000004
20
105.614954
10
-225.10358100000002
20
105.849093
10
-225.20867000000004
20
106.10279500000001
10
-225.27277900000001
20
106.36981300000001
10
-225.29432600000004
20
106.64357200000001
10
-225.29432600000004
20
121.693572
10
-225.31357200000002
20
121.987257
10
-225.37098700000001
20
122.275918
10
-225.46559000000002
20
122.55461400000002
10
-225.59576000000004
20
122.818578
10
-225.75927200000001
20
123.06329300000002
10
-225.953327
20
123.28457100000001
10
-226.17460500000004
20
123.478627
10
-226.41932
20
123.64213900000001
10
-226.68328400000001
20
123.77231000000002
10
-226.96198000000004
20
123.86691200000001
10
-227.250641
20
123.92432800000002
10
-227.54432600000001
20
123.94357200000002
10
-251.86932600000003
20
123.94357200000002
10
-252.16300200000003
20
123.924308
10
-252.45165100000003
20
123.866879
10
-252.73033600000002
20
123.772266
10
-252.99428800000001
20
123.64209000000001
10
-253.238992
20
123.478576
10
-253.46026000000001
20
123.28452200000001
10
-253.65430900000004
20
123.063249
10
-253.81781700000002
20
122.81854100000001
10
-253.94798700000001
20
122.554586
10
-254.04259300000004
20
122.275899
10
-254.10001500000004
20
121.98724800000001
10
-254.119326
20
121.693572
10
-254.119326
20
50.143571999999999
10
-254.10000100000002
20
49.824151000000008
10
-254.04231600000003
20
49.509388000000001
10
-253.94711200000003
20
49.203873000000009
10
-253.815776
20
48.912061000000008
10
-253.65022500000003
20
48.638207999999999
10
-253.45287100000002
20
48.386305000000007
10
-253.22659300000001
20
48.160027999999997
10
-252.97469100000001
20
47.962674000000007
10
-252.70083700000001
20
47.797122999999999
10
-252.40902500000004
20
47.665787000000002
0
LWPOLYLINE
5
101
100
AcDbEntity
8
0
100
AcDbPolyline
90
34
70
1
43
0.0
10
-251.41398899999999
20
112.896473
10
-251.622592
20
112.85747800000001
10
-251.83481
20
112.85747800000001
10
-252.04341299999999
20
112.896473
10
-252.24130000000002
20
112.973134
10
-252.42173100000002
20
113.084852
10
-252.57856100000001
20
113.227822
10
-252.70645099999999
20
113.397175
10
-252.80104399999999
20
113.587144
10
-252.85911999999999
20
113.79125999999999
10
-252.87870100000004
20
114.002572
10
-252.85911999999999
20
114.21388399999999
10
-252.80104399999999
20
114.41800000000001
10
-252.70645099999999
20
114.607969
10
-252.57856100000001
20
114.777322
10
-252.42173100000002
20
114.92029200000002
10
-252.24130000000002
20
115.03201000000001
10
-252.04341299999999
20
115.108671
10
-251.83481
20
115.14766600000002
10
-251.622592
20
115.14766600000002
10
-251.41398899999999
20
115.108671
10
-251.21610200000003
20
115.03201000000001
10
-251.03567100000004
20
114.92029200000002
10
-250.87884099999999
20
114.777322
10
-250.75095099999999
20
114.607969
10
-250.65635800000001
20
114.41800000000001
10
-250.59828200000001
20
114.21388399999999
10
-250.57870100000002
20
114.002572
10
-250.59828200000001
20
113.79125999999999
10
-250.65635800000001
20
113.587144
10
-250.75095099999999
20
113.397175
10
-250.87884099999999
20
113.227822
10
-251.03567100000004
20
113.084852
10
-251.21610200000003
20
112.973134
0
LWPOLYLINE
5
102
100
AcDbEntity
8
0
100
AcDbPolyline
90
8
70
1
43
0.0
10
-232.41250000000002
20
108.3
10
-233.41250000000002
20
107.30000000000001
10
-246.01249999999999
20
107.30000000000001
10
-247.01250000000002
20
108.3
10
-247.01250000000002
20
120.30000000000001
10
-246.01249999999999
20
121.30000000000001
10
-233.41250000000002
20
121.30000000000001
10
-232.41250000000002
20
120.30000000000001
0
LWPOLYLINE
5
103
100
AcDbEntity
8
0
100
AcDbPolyline
90
34
70
1
43
0.0
10
-229.87278800000001
20
113.193901
10
-230.081391
20
113.15490600000001
10
-230.293609
20
113.15490600000001
10
-230.50221199999999
20
113.193901
10
-230.70009900000002
20
113.27056200000001
10
-230.88053000000002
20
113.38228000000001
10
-231.03736000000001
20
113.52525
10
-231.16524999999999
20
113.694603
10
-231.25984299999999
20
113.88457200000002
10
-231.31791899999999
20
114.088688
10
-231.33750000000003
20
114.3
10
-231.31791899999999
20
114.511312
10
-231.25984299999999
20
114.71542800000002
10
-231.16524999999999
20
114.90539699999999
10
-231.03736000000001
20
115.07474999999999
10
-230.88053000000002
20
115.21772
10
-230.70009900000002
20
115.329438
10
-230.50221199999999
20
115.406099
10
-230.293609
20
115.44509400000001
10
-230.081391
20
115.44509400000001
10
-229.87278800000001
20
115.406099
10
-229.67490100000003
20
115.329438
10
-229.49447000000004
20
115.21772
10
-229.33763999999999
20
115.07474999999999
10
-229.20975000000001
20
114.90539699999999
10
-229.11515700000001
20
114.71542800000002
10
-229.05708100000001
20
114.511312
10
-229.03750000000002
20
114.3
10
-229.05708100000001
20
114.088688
10
-229.11515700000001
20
113.88457200000002
10
-229.20975000000001
20
113.694603
10
-229.33763999999999
20
113.52525
10
-229.49447000000004
20
113.38228000000001
10
-229.67490100000003
20
113.27056200000001
0
LWPOLYLINE
5
104
100
AcDbEntity
8
0
100
AcDbPolyline
90
8
70
1
43
0.0
10
-187.16999999999999
20
108.3
10
-188.17000000000002
20
107.30000000000001
10
-200.77000000000001
20
107.30000000000001
10
-201.77000000000004
20
108.3
10
-201.77000000000004
20
120.30000000000001
10
-200.77000000000001
20
121.30000000000001
10
-188.17000000000002
20
121.30000000000001
10
-187.16999999999999
20
120.30000000000001
0
LWPOLYLINE
5
105
100
AcDbEntity
8
0
100
AcDbPolyline
90
4
70
1
43
0.0
10
-178.396424
20
117.33388600000001
10
-178.396424
20
111.19899700000002
10
-182.01096100000001
20
111.19899700000002
10
-182.01096100000001
20
117.33388600000001
0
LWPOLYLINE
5
106
100
AcDbEntity
8
0
100
AcDbPolyline
90
34
70
1
43
0.0
10
-175.10403800000003
20
113.193901
10
-175.31264100000001
20
113.15490600000001
10
-175.52485899999999
20
113.15490600000001
10
-175.733462
20
113.193901
10
-175.93134900000001
20
113.27056200000001
10
-176.11178000000001
20
113.38228000000001
10
-176.26861000000002
20
113.52525
10
-176.3965
20
113.694603
10
-176.49109300000003
20
113.88457200000002
10
-176.54916900000001
20
114.088688
10
-176.56874999999999
20
114.3
10
-176.54916900000001
20
114.511312
10
-176.49109300000003
20
114.71542800000002
10
-176.3965
20
114.90539699999999
10
-176.26861000000002
20
115.07474999999999
10
-176.11178000000001
20
115.21772
10
-175.93134900000001
20
115.329438
10
-175.733462
20
115.406099
10
-175.52485899999999
20
115.44509400000001
10
-175.31264100000001
20
115.44509400000001
10
-175.10403800000003
20
115.406099
10
-174.90615099999999
20
115.329438
10
-174.72572
20
115.21772
10
-174.56889000000001
20
115.07474999999999
10
-174.44100000000003
20
114.90539699999999
10
-174.346407
20
114.71542800000002
10
-174.28833100000003
20
114.511312
10
-174.26875000000001
20
114.3
10
-174.28833100000003
20
114.088688
10
-174.346407
20
113.88457200000002
10
-174.44100000000003
20
113.694603
10
-174.56889000000001
20
113.52525
10
-174.72572
20
113.38228000000001
10
-174.90615099999999
20
113.27056200000001
0
LWPOLYLINE
5
107
100
AcDbEntity
8
0
100
AcDbPolyline
90
8
70
1
43
0.0
10
-158.59200000000001
20
108.3
10
-159.59200000000004
20
107.30000000000001
10
-172.19200000000001
20
107.30000000000001
10
-173.19200000000001
20
108.3
10
-173.19200000000001
20
120.30000000000001
10
-172.19200000000001
20
121.30000000000001
10
-159.59200000000004
20
121.30000000000001
10
-158.59200000000001
20
120.30000000000001
0
LWPOLYLINE
5
108
100
AcDbEntity
8
0
100
AcDbPolyline
90
8
70
1
43
0.0
10
-234.79500000000002
20
89.25
10
-235.79499999999999
20
88.250000000000014
10
-248.39500000000001
20
88.250000000000014
10
-249.39500000000004
20
89.25
10
-249.39500000000004
20
101.25
10
-248.39500000000001
20
102.25000000000001
10
-235.79499999999999
20
102.25000000000001
10
-234.79500000000002
20
101.25
0
LWPOLYLINE
5
109
100
AcDbEntity
8
0
100
AcDbPolyline
90
34
70
1
43
0.0
10
-232.25403800000004
20
94.143901
10
-232.46264100000002
20
94.104906000000014
10
-232.674859
20
94.104906000000014
10
-232.88346200000004
20
94.143901
10
-233.08134899999999
20
94.220562000000001
10
-233.26177999999999
20
94.332279999999997
10
-233.41861
20
94.475250000000003
10
-233.54650000000004
20
94.644603000000004
10
-233.64109300000001
20
94.834572000000009
10
-233.69916900000004
20
95.038687999999993
10
-233.71875000000003
20
95.25
10
-233.69916900000004
20
95.461312000000021
10
-233.64109300000001
20
95.665428000000006
10
-233.54650000000004
20
95.855396999999996
10
-233.41861
20
96.024749999999997
10
-233.26177999999999
20
96.167720000000003
10
-233.08134899999999
20
96.279437999999999
10
-232.88346200000004
20
96.356099
10
-232.674859
20
96.395094000000014
10
-232.46264100000002
20
96.395094000000014
10
-232.25403800000004
20
96.356099
10
-232.05615100000003
20
96.279437999999999
10
-231.87572000000003
20
96.167720000000003
10
-231.71888999999999
20
96.024749999999997
10
-231.59100000000001
20
95.855396999999996
10
-231.49640700000003
20
95.665428000000006
10
-231.43833100000001
20
95.461312000000021
10
-231.41874999999999
20
95.25
10
-231.43833100000001
20
95.038687999999993
10
-231.49640700000003
20
94.834572000000009
10
-231.59100000000001
20
94.644603000000004
10
-231.71888999999999
20
94.475250000000003
10
-231.87572000000003
20
94.332279999999997
10
-232.05615100000003
20
94.220562000000001
0
LWPOLYLINE
5
110
100
AcDbEntity
8
0
100
AcDbPolyline
90
8
70
1
43
0.0
10
-213.36250000000004
20
89.25
10
-214.36250000000001
20
88.250000000000014
10
-226.96250000000003
20
88.250000000000014
10
-227.96250000000001
20
89.25
10
-227.96250000000001
20
101.25
10
-226.96250000000003
20
102.25000000000001
10
-214.36250000000001
20
102.25000000000001
10
-213.36250000000004
20
101.25
0
LWPOLYLINE
5
111
100
AcDbEntity
8
0
100
AcDbPolyline
90
8
70
1
43
0.0
10
-194.31250000000003
20
89.25
10
-195.3125
20
88.250000000000014
10
-207.91250000000002
20
88.250000000000014
10
-208.91249999999999
20
89.25
10
-208.91249999999999
20
101.25
10
-207.91250000000002
20
102.25000000000001
10
-195.3125
20
102.25000000000001
10
-194.31250000000003
20
101.25
0
LWPOLYLINE
5
112
100
AcDbEntity
8
0
100
AcDbPolyline
90
34
70
1
43
0.0
10
-191.77278799999999
20
94.143901
10
-191.98139100000003
20
94.104906000000014
10
-192.19360900000001
20
94.104906000000014
10
-192.40221200000002
20
94.143901
10
-192.600099
20
94.220562000000001
10
-192.78053
20
94.332279999999997
10
-192.93736000000001
20
94.475250000000003
10
-193.06524999999999
20
94.644603000000004
10
-193.159843
20
94.834572000000009
10
-193.21791899999999
20
95.038687999999993
10
-193.23750000000004
20
95.25
10
-193.21791899999999
20
95.461312000000021
10
-193.159843
20
95.665428000000006
10
-193.06524999999999
20
95.855396999999996
10
-192.93736000000001
20
96.024749999999997
10
-192.78053
20
96.167720000000003
10
-192.600099
20
96.279437999999999
10
-192.40221200000002
20
96.356099
10
-192.19360900000001
20
96.395094000000014
10
-191.98139100000003
20
96.395094000000014
10
-191.77278799999999
20
96.356099
10
-191.57490100000001
20
96.279437999999999
10
-191.39447000000001
20
96.167720000000003
10
-191.23764
20
96.024749999999997
10
-191.10974999999999
20
95.855396999999996
10
-191.01515699999999
20
95.665428000000006
10
-190.95708099999999
20
95.461312000000021
10
-190.9375
20
95.25
10
-190.95708099999999
20
95.038687999999993
10
-191.01515699999999
20
94.834572000000009
10
-191.10974999999999
20
94.644603000000004
10
-191.23764
20
94.475250000000003
10
-191.39447000000001
20
94.332279999999997
10
-191.57490100000001
20
94.220562000000001
0
LWPOLYLINE
5
113
100
AcDbEntity
8
0
100
AcDbPolyline
90
8
70
1
43
0.0
10
-175.26250000000002
20
89.25
10
-176.26249999999999
20
88.250000000000014
10
-188.86250000000001
20
88.250000000000014
10
-189.86250000000001
20
89.25
10
-189.86250000000001
20
101.25
10
-188.86250000000001
20
102.25000000000001
10
-176.26249999999999
20
102.25000000000001
10
-175.26250000000002
20
101.25
0
LWPOLYLINE
5
114
100
AcDbEntity
8
0
100
AcDbPolyline
90
8
70
1
43
0.0
10
-156.21250000000001
20
89.25
10
-157.21250000000001
20
88.250000000000014
10
-169.8125
20
88.250000000000014
10
-170.8125
20
89.25
10
-170.8125
20
101.25
10
-169.8125
20
102.25000000000001
10
-157.21250000000001
20
102.25000000000001
10
-156.21250000000001
20
101.25
0
LWPOLYLINE
5
115
100
AcDbEntity
8
0
100
AcDbPolyline
90
34
70
1
43
0.0
10
-153.67278800000003
20
94.143901
10
-153.88139100000001
20
94.104906000000014
10
-154.09360899999999
20
94.104906000000014
10
-154.302212
20
94.143901
10
-154.50009900000001
20
94.220562000000001
10
-154.68053
20
94.332279999999997
10
-154.83735999999999
20
94.475250000000003
10
-154.96525
20
94.644603000000004
10
-155.059843
20
94.834572000000009
10
-155.117919
20
95.038687999999993
10
-155.13749999999999
20
95.25
10
-155.117919
20
95.461312000000021
10
-155.059843
20
95.665428000000006
10
-154.96525
20
95.855396999999996
10
-154.83735999999999
20
96.024749999999997
10
-154.68053
20
96.167720000000003
10
-154.50009900000001
20
96.279437999999999
10
-154.302212
20
96.356099
10
-154.09360899999999
20
96.395094000000014
10
-153.88139100000001
20
96.395094000000014
10
-153.67278800000003
20
96.356099
10
-153.47490099999999
20
96.279437999999999
10
-153.29446999999999
20
96.167720000000003
10
-153.13764
20
96.024749999999997
10
-153.00975
20
95.855396999999996
10
-152.91515699999999
20
95.665428000000006
10
-152.85708099999999
20
95.461312000000021
10
-152.83750000000001
20
95.25
10
-152.85708099999999
20
95.038687999999993
10
-152.91515699999999
20
94.834572000000009
10
-153.00975
20
94.644603000000004
10
-153.13764
20
94.475250000000003
10
-153.29446999999999
20
94.332279999999997
10
-153.47490099999999
20
94.220562000000001
0
LWPOLYLINE
5
116
100
AcDbEntity
8
0
100
AcDbPolyline
90
8
70
1
43
0.0
10
-125.25500000000001
20
108.3
10
-126.25500000000001
20
107.30000000000001
10
-138.85500000000002
20
107.30000000000001
10
-139.85499999999999
20
108.3
10
-139.85499999999999
20
120.30000000000001
10
-138.85500000000002
20
121.30000000000001
10
-126.25500000000001
20
121.30000000000001
10
-125.25500000000001
20
120.30000000000001
0
LWPOLYLINE
5
117
100
AcDbEntity
8
0
100
AcDbPolyline
90
34
70
1
43
0.0
10
-122.71653800000001
20
113.193901
10
-122.925141
20
113.15490600000001
10
-123.137359
20
113.15490600000001
10
-123.345962
20
113.193901
10
-123.54384899999999
20
113.27056200000001
10
-123.72427999999999
20
113.38228000000001
10
-123.88111000000002
20
113.52525
10
-124.009
20
113.694603
10
-124.10359300000002
20
113.88457200000002
10
-124.161669
20
114.088688
10
-124.18125000000002
20
114.3
10
-124.161669
20
114.511312
10
-124.10359300000002
20
114.71542800000002
10
-124.009
20
114.90539699999999
10
-123.88111000000002
20
115.07474999999999
10
-123.72427999999999
20
115.21772
10
-123.54384899999999
20
115.329438
10
-123.345962
20
115.406099
10
-123.137359
20
115.44509400000001
10
-122.925141
20
115.44509400000001
10
-122.71653800000001
20
115.406099
10
-122.51865100000002
20
115.329438
10
-122.33822000000002
20
115.21772
10
-122.18139000000001
20
115.07474999999999
10
-122.05350000000001
20
114.90539699999999
10
-121.958907
20
114.71542800000002
10
-121.90083100000001
20
114.511312
10
-121.88124999999999
20
114.3
10
-121.90083100000001
20
114.088688
10
-121.958907
20
113.88457200000002
10
-122.05350000000001
20
113.694603
10
-122.18139000000001
20
113.52525
10
-122.33822000000002
20
113.38228000000001
10
-122.51865100000002
20
113.27056200000001
0
LWPOLYLINE
5
118
100
AcDbEntity
8
0
100
AcDbPolyline
90
8
70
1
43
0.0
10
-96.680000000000007
20
108.3
10
-97.680000000000007
20
107.30000000000001
10
-110.28
20
107.30000000000001
10
-111.28
20
108.3
10
-111.28
20
120.30000000000001
10
-110.28
20
121.30000000000001
10
-97.680000000000007
20
121.30000000000001
10
-96.680000000000007
20
120.30000000000001
0
LWPOLYLINE
5
119
100
AcDbEntity
8
0
100
AcDbPolyline
90
34
70
1
43
0.0
10
-67.947788000000003
20
113.193901
10
-68.156390999999999
20
113.15490600000001
10
-68.368609000000021
20
113.15490600000001
10
-68.577212000000003
20
113.193901
10
-68.775098999999997
20
113.27056200000001
10
-68.955529999999996
20
113.38228000000001
10
-69.112359999999995
20
113.52525
10
-69.240250000000003
20
113.694603
10
-69.334843000000006
20
113.88457200000002
10
-69.392919000000006
20
114.088688
10
-69.412499999999994
20
114.3
10
-69.392919000000006
20
114.511312
10
-69.334843000000006
20
114.71542800000002
10
-69.240250000000003
20
114.90539699999999
10
-69.112359999999995
20
115.07474999999999
10
-68.955529999999996
20
115.21772
10
-68.775098999999997
20
115.329438
10
-68.577212000000003
20
115.406099
10
-68.368609000000021
20
115.44509400000001
10
-68.156390999999999
20
115.44509400000001
10
-67.947788000000003
20
115.406099
10
-67.749900999999994
20
115.329438
10
-67.569469999999995
20
115.21772
10
-67.412639999999996
20
115.07474999999999
10
-67.284750000000003
20
114.90539699999999
10
-67.190156999999999
20
114.71542800000002
10
-67.132080999999999
20
114.511312
10
-67.112499999999997
20
114.3
10
-67.132080999999999
20
114.088688
10
-67.190156999999999
20
113.88457200000002
10
-67.284750000000003
20
113.694603
10
-67.412639999999996
20
113.52525
10
-67.569469999999995
20
113.38228000000001
10
-67.749900999999994
20
113.27056200000001
0
LWPOLYLINE
5
120
100
AcDbEntity
8
0
100
AcDbPolyline
90
8
70
1
43
0.0
10
-51.23125000000001
20
108.3
10
-52.231250000000003
20
107.30000000000001
10
-64.831249999999997
20
107.30000000000001
10
-65.831249999999997
20
108.3
10
-65.831249999999997
20
120.30000000000001
10
-64.831249999999997
20
121.30000000000001
10
-52.231250000000003
20
121.30000000000001
10
-51.23125000000001
20
120.30000000000001
0
LWPOLYLINE
5
121
100
AcDbEntity
8
0
100
AcDbPolyline
90
34
70
1
43
0.0
10
-46.395614000000009
20
112.896473
10
-46.604216999999998
20
112.85747800000001
10
-46.816434999999998
20
112.85747800000001
10
-47.025038000000009
20
112.896473
10
-47.222925000000004
20
112.973134
10
-47.403356000000009
20
113.084852
10
-47.560186000000002
20
113.227822
10
-47.688076000000009
20
113.397175
10
-47.782668999999999
20
113.587144
10
-47.840744999999998
20
113.79125999999999
10
-47.860326000000001
20
114.002572
10
-47.840744999999998
20
114.21388399999999
10
-47.782668999999999
20
114.41800000000001
10
-47.688076000000009
20
114.607969
10
-47.560186000000002
20
114.777322
10
-47.403356000000009
20
114.92029200000002
10
-47.222925000000004
20
115.03201000000001
10
-47.025038000000009
20
115.108671
10
-46.816434999999998
20
115.14766600000002
10
-46.604216999999998
20
115.14766600000002
10
-46.395614000000009
20
115.108671
10
-46.197727
20
115.03201000000001
10
-46.017296000000002
20
114.92029200000002
10
-45.860466000000002
20
114.777322
10
-45.732576000000009
20
114.607969
10
-45.637983000000006
20
114.41800000000001
10
-45.579907000000006
20
114.21388399999999
10
-45.560326000000011
20
114.002572
10
-45.579907000000006
20
113.79125999999999
10
-45.637983000000006
20
113.587144
10
-45.732576000000009
20
113.397175
10
-45.860466000000002
20
113.227822
10
-46.017296000000002
20
113.084852
10
-46.197727
20
112.973134
0
LWPOLYLINE
5
122
100
AcDbEntity
8
0
100
AcDbPolyline
90
8
70
1
43
0.0
10
-137.16249999999999
20
89.25
10
-138.16249999999999
20
88.250000000000014
10
-150.76249999999999
20
88.250000000000014
10
-151.76249999999999
20
89.25
10
-151.76249999999999
20
101.25
10
-150.76249999999999
20
102.25000000000001
10
-138.16249999999999
20
102.25000000000001
10
-137.16249999999999
20
101.25
0
LWPOLYLINE
5
123
100
AcDbEntity
8
0
100
AcDbPolyline
90
8
70
1
43
0.0
10
-118.11250000000001
20
89.25
10
-119.11250000000001
20
88.250000000000014
10
-131.71250000000001
20
88.250000000000014
10
-132.71250000000003
20
89.25
10
-132.71250000000003
20
101.25
10
-131.71250000000001
20
102.25000000000001
10
-119.11250000000001
20
102.25000000000001
10
-118.11250000000001
20
101.25
0
LWPOLYLINE
5
124
100
AcDbEntity
8
0
100
AcDbPolyline
90
34
70
1
43
0.0
10
-115.572788
20
94.143901
10
-115.78139100000001
20
94.104906000000014
10
-115.99360900000001
20
94.104906000000014
10
-116.20221200000002
20
94.143901
10
-116.40009900000001
20
94.220562000000001
10
-116.58053000000001
20
94.332279999999997
10
-116.73736
20
94.475250000000003
10
-116.86525000000002
20
94.644603000000004
10
-116.95984300000001
20
94.834572000000009
10
-117.01791900000002
20
95.038687999999993
10
-117.03749999999999
20
95.25
10
-117.01791900000002
20
95.461312000000021
10
-116.95984300000001
20
95.665428000000006
10
-116.86525000000002
20
95.855396999999996
10
-116.73736
20
96.024749999999997
10
-116.58053000000001
20
96.167720000000003
10
-116.40009900000001
20
96.279437999999999
10
-116.20221200000002
20
96.356099
10
-115.99360900000001
20
96.395094000000014
10
-115.78139100000001
20
96.395094000000014
10
-115.572788
20
96.356099
10
-115.37490099999999
20
96.279437999999999
10
-115.19447
20
96.167720000000003
10
-115.03764000000001
20
96.024749999999997
10
-114.90975
20
95.855396999999996
10
-114.81515700000001
20
95.665428000000006
10
-114.757081
20
95.461312000000021
10
-114.73750000000001
20
95.25
10
-114.757081
20
95.038687999999993
10
-114.81515700000001
20
94.834572000000009
10
-114.90975
20
94.644603000000004
10
-115.03764000000001
20
94.475250000000003
10
-115.19447
20
94.332279999999997
10
-115.37490099999999
20
94.220562000000001
0
LWPOLYLINE
5
125
100
AcDbEntity
8
0
100
AcDbPolyline
90
8
70
1
43
0.0
10
-99.0625
20
89.25
10
-100.06250000000001
20
88.250000000000014
10
-112.66249999999999
20
88.250000000000014
10
-113.66250000000001
20
89.25
10
-113.66250000000001
20
101.25
10
-112.66249999999999
20
102.25000000000001
10
-100.06250000000001
20
102.25000000000001
10
-99.0625
20
101.25
0
LWPOLYLINE
5
126
100
AcDbEntity
8
0
100
AcDbPolyline
90
8
70
1
43
0.0
10
-80.012500000000003
20
89.25
10
-81.012500000000003
20
88.250000000000014
10
-93.612499999999997
20
88.250000000000014
10
-94.612499999999997
20
89.25
10
-94.612499999999997
20
101.25
10
-93.612499999999997
20
102.25000000000001
10
-81.012500000000003
20
102.25000000000001
10
-80.012500000000003
20
101.25
0
LWPOLYLINE
5
127
100
AcDbEntity
8
0
100
AcDbPolyline
90
34
70
1
43
0.0
10
-70.329037999999997
20
94.143901
10
-70.537640999999994
20
94.104906000000014
10
-70.749859000000001
20
94.104906000000014
10
-70.958461999999997
20
94.143901
10
-71.156349000000006
20
94.220562000000001
10
-71.336780000000005
20
94.332279999999997
10
-71.493610000000004
20
94.475250000000003
10
-71.621499999999997
20
94.644603000000004
10
-71.716093000000001
20
94.834572000000009
10
-71.774169000000001
20
95.038687999999993
10
-71.793750000000003
20
95.25
10
-71.774169000000001
20
95.461312000000021
10
-71.716093000000001
20
95.665428000000006
10
-71.621499999999997
20
95.855396999999996
10
-71.493610000000004
20
96.024749999999997
10
-71.336780000000005
20
96.167720000000003
10
-71.156349000000006
20
96.279437999999999
10
-70.958461999999997
20
96.356099
10
-70.749859000000001
20
96.395094000000014
10
-70.537640999999994
20
96.395094000000014
10
-70.329037999999997
20
96.356099
10
-70.131151000000003
20
96.279437999999999
10
-69.950720000000004
20
96.167720000000003
10
-69.793890000000005
20
96.024749999999997
10
-69.665999999999997
20
95.855396999999996
10
-69.571406999999994
20
95.665428000000006
10
-69.513330999999994
20
95.461312000000021
10
-69.493750000000006
20
95.25
10
-69.513330999999994
20
95.038687999999993
10
-69.571406999999994
20
94.834572000000009
10
-69.665999999999997
20
94.644603000000004
10
-69.793890000000005
20
94.475250000000003
10
-69.950720000000004
20
94.332279999999997
10
-70.131151000000003
20
94.220562000000001
0
LWPOLYLINE
5
128
100
AcDbEntity
8
0
100
AcDbPolyline
90
8
70
1
43
0.0
10
-53.820000000000007
20
89.25
10
-54.82
20
88.250000000000014
10
-67.420000000000016
20
88.250000000000014
10
-68.420000000000002
20
89.25
10
-68.420000000000002
20
101.25
10
-67.420000000000016
20
102.25000000000001
10
-54.82
20
102.25000000000001
10
-53.820000000000007
20
101.25
0
LWPOLYLINE
5
129
100
AcDbEntity
8
0
100
AcDbPolyline
90
8
70
1
43
0.0
10
-230.03
20
70.200000000000003
10
-231.03000000000003
20
69.200000000000003
10
-243.63
20
69.200000000000003
10
-244.63
20
70.200000000000003
10
-244.63
20
82.200000000000003
10
-243.63
20
83.200000000000003
10
-231.03000000000003
20
83.200000000000003
10
-230.03
20
82.200000000000003
0
LWPOLYLINE
5
130
100
AcDbEntity
8
0
100
AcDbPolyline
90
34
70
1
43
0.0
10
-220.34778800000001
20
75.093901000000017
10
-220.55639100000002
20
75.054906000000003
10
-220.768609
20
75.054906000000003
10
-220.97721200000001
20
75.093901000000017
10
-221.17509900000002
20
75.170562000000004
10
-221.35553000000002
20
75.28228
10
-221.51236
20
75.425250000000005
10
-221.64025000000004
20
75.594603000000006
10
-221.73484300000001
20
75.784571999999997
10
-221.79291900000004
20
75.988687999999996
10
-221.81250000000003
20
76.200000000000017
10
-221.79291900000004
20
76.411312000000009
10
-221.73484300000001
20
76.615427999999994
10
-221.64025000000004
20
76.805396999999999
10
-221.51236
20
76.97475
10
-221.35553000000002
20
77.117720000000006
10
-221.17509900000002
20
77.229438000000002
10
-220.97721200000001
20
77.306099000000017
10
-220.768609
20
77.345094000000003
10
-220.55639100000002
20
77.345094000000003
10
-220.34778800000001
20
77.306099000000017
10
-220.14990100000003
20
77.229438000000002
10
-219.96947000000003
20
77.117720000000006
10
-219.81263999999999
20
76.97475
10
-219.68475000000001
20
76.805396999999999
10
-219.59015700000003
20
76.615427999999994
10
-219.53208100000001
20
76.411312000000009
10
-219.51250000000002
20
76.200000000000017
10
-219.53208100000001
20
75.988687999999996
10
-219.59015700000003
20
75.784571999999997
10
-219.68475000000001
20
75.594603000000006
10
-219.81263999999999
20
75.425250000000005
10
-219.96947000000003
20
75.28228
10
-220.14990100000003
20
75.170562000000004
0
LWPOLYLINE
5
131
100
AcDbEntity
8
0
100
AcDbPolyline
90
8
70
1
43
0.0
10
-203.83750000000003
20
70.200000000000003
10
-204.83750000000001
20
69.200000000000003
10
-217.43750000000003
20
69.200000000000003
10
-218.4375
20
70.200000000000003
10
-218.4375
20
82.200000000000003
10
-217.43750000000003
20
83.200000000000003
10
-204.83750000000001
20
83.200000000000003
10
-203.83750000000003
20
82.200000000000003
0
LWPOLYLINE
5
132
100
AcDbEntity
8
0
100
AcDbPolyline
90
8
70
1
43
0.0
10
-184.78750000000002
20
70.200000000000003
10
-185.78749999999999
20
69.200000000000003
10
-198.38750000000002
20
69.200000000000003
10
-199.38749999999999
20
70.200000000000003
10
-199.38749999999999
20
82.200000000000003
10
-198.38750000000002
20
83.200000000000003
10
-185.78749999999999
20
83.200000000000003
10
-184.78750000000002
20
82.200000000000003
0
LWPOLYLINE
5
133
100
AcDbEntity
8
0
100
AcDbPolyline
90
34
70
1
43
0.0
10
-182.24778800000001
20
75.093901000000017
10
-182.45639100000002
20
75.054906000000003
10
-182.668609
20
75.054906000000003
10
-182.87721199999999
20
75.093901000000017
10
-183.07509899999999
20
75.170562000000004
10
-183.25552999999999
20
75.28228
10
-183.41236000000004
20
75.425250000000005
10
-183.54025000000001
20
75.594603000000006
10
-183.63484299999999
20
75.784571999999997
10
-183.69291900000002
20
75.988687999999996
10
-183.71250000000001
20
76.200000000000017
10
-183.69291900000002
20
76.411312000000009
10
-183.63484299999999
20
76.615427999999994
10
-183.54025000000001
20
76.805396999999999
10
-183.41236000000004
20
76.97475
10
-183.25552999999999
20
77.117720000000006
10
-183.07509899999999
20
77.229438000000002
10
-182.87721199999999
20
77.306099000000017
10
-182.668609
20
77.345094000000003
10
-182.45639100000002
20
77.345094000000003
10
-182.24778800000001
20
77.306099000000017
10
-182.04990100000001
20
77.229438000000002
10
-181.86947000000001
20
77.117720000000006
10
-181.71264000000002
20
76.97475
10
-181.58475000000004
20
76.805396999999999
10
-181.49015700000004
20
76.615427999999994
10
-181.43208100000004
20
76.411312000000009
10
-181.41249999999999
20
76.200000000000017
10
-181.43208100000004
20
75.988687999999996
10
-181.49015700000004
20
75.784571999999997
10
-181.58475000000004
20
75.594603000000006
10
-181.71264000000002
20
75.425250000000005
10
-181.86947000000001
20
75.28228
10
-182.04990100000001
20
75.170562000000004
0
LWPOLYLINE
5
134
100
AcDbEntity
8
0
100
AcDbPolyline
90
8
70
1
43
0.0
10
-165.73750000000001
20
70.200000000000003
10
-166.73750000000001
20
69.200000000000003
10
-179.33750000000001
20
69.200000000000003
10
-180.33750000000001
20
70.200000000000003
10
-180.33750000000001
20
82.200000000000003
10
-179.33750000000001
20
83.200000000000003
10
-166.73750000000001
20
83.200000000000003
10
-165.73750000000001
20
82.200000000000003
0
LWPOLYLINE
5
135
100
AcDbEntity
8
0
100
AcDbPolyline
90
8
70
1
43
0.0
10
-146.6875
20
70.200000000000003
10
-147.6875
20
69.200000000000003
10
-160.28749999999999
20
69.200000000000003
10
-161.28749999999999
20
70.200000000000003
10
-161.28749999999999
20
82.200000000000003
10
-160.28749999999999
20
83.200000000000003
10
-147.6875
20
83.200000000000003
10
-146.6875
20
82.200000000000003
0
LWPOLYLINE
5
136
100
AcDbEntity
8
0
100
AcDbPolyline
90
8
70
1
43
0.0
10
-237.17500000000001
20
51.150000000000006
10
-238.17500000000001
20
50.150000000000006
10
-250.77500000000001
20
50.150000000000006
10
-251.77500000000003
20
51.150000000000006
10
-251.77500000000003
20
63.150000000000006
10
-250.77500000000001
20
64.150000000000006
10
-238.17500000000001
20
64.150000000000006
10
-237.17500000000001
20
63.150000000000006
0
LWPOLYLINE
5
137
100
AcDbEntity
8
0
100
AcDbPolyline
90
34
70
1
43
0.0
10
-234.63528800000003
20
56.043900999999998
10
-234.84389100000001
20
56.004906000000005
10
-235.05610899999999
20
56.004906000000005
10
-235.26471200000003
20
56.043900999999998
10
-235.46259900000001
20
56.120562000000007
10
-235.64303000000001
20
56.23228000000001
10
-235.79986000000002
20
56.375250000000001
10
-235.92775000000003
20
56.544603000000002
10
-236.02234300000003
20
56.734572000000007
10
-236.08041900000003
20
56.938688000000006
10
-236.09999999999999
20
57.149999999999999
10
-236.08041900000003
20
57.361311999999998
10
-236.02234300000003
20
57.565427999999997
10
-235.92775000000003
20
57.755397000000002
10
-235.79986000000002
20
57.924750000000003
10
-235.64303000000001
20
58.067720000000008
10
-235.46259900000001
20
58.179438000000005
10
-235.26471200000003
20
58.256098999999999
10
-235.05610899999999
20
58.295093999999999
10
-234.84389100000001
20
58.295093999999999
10
-234.63528800000003
20
58.256098999999999
10
-234.43740099999999
20
58.179438000000005
10
-234.25697
20
58.067720000000008
10
-234.10014000000004
20
57.924750000000003
10
-233.97225000000003
20
57.755397000000002
10
-233.87765700000003
20
57.565427999999997
10
-233.81958100000003
20
57.361311999999998
10
-233.80000000000001
20
57.149999999999999
10
-233.81958100000003
20
56.938688000000006
10
-233.87765700000003
20
56.734572000000007
10
-233.97225000000003
20
56.544603000000002
10
-234.10014000000004
20
56.375250000000001
10
-234.25697
20
56.23228000000001
10
-234.43740099999999
20
56.120562000000007
0
LWPOLYLINE
5
138
100
AcDbEntity
8
0
100
AcDbPolyline
90
34
70
1
43
0.0
10
-234.629614
20
49.037472999999999
10
-234.83821699999999
20
48.998477999999999
10
-235.05043499999999
20
48.998477999999999
10
-235.25903800000003
20
49.037472999999999
10
-235.45692500000001
20
49.114134000000007
10
-235.63735600000001
20
49.225852000000003
10
-235.794186
20
49.368822000000002
10
-235.922076
20
49.538175000000003
10
-236.01666900000001
20
49.728144000000007
10
-236.07474500000001
20
49.932259999999999
10
-236.09432600000002
20
50.143571999999999
10
-236.07474500000001
20
50.354883999999998
10
-236.01666900000001
20
50.559000000000005
10
-235.922076
20
50.748969000000002
10
-235.794186
20
50.918322000000003
10
-235.63735600000001
20
51.061292000000009
10
-235.45692500000001
20
51.173010000000005
10
-235.25903800000003
20
51.249670999999999
10
-235.05043499999999
20
51.288666000000006
10
-234.83821699999999
20
51.288666000000006
10
-234.629614
20
51.249670999999999
10
-234.43172700000002
20
51.173010000000005
10
-234.25129600000002
20
51.061292000000009
10
-234.09446600000001
20
50.918322000000003
10
-233.966576
20
50.748969000000002
10
-233.871983
20
50.559000000000005
10
-233.813907
20
50.354883999999998
10
-233.79432600000001
20
50.143571999999999
10
-233.813907
20
49.932259999999999
10
-233.871983
20
49.728144000000007
10
-233.966576
20
49.538175000000003
10
-234.09446600000001
20
49.368822000000002
10
-234.25129600000002
20
49.225852000000003
10
-234.43172700000002
20
49.114134000000007
0
LWPOLYLINE
5
139
100
AcDbEntity
8
0
100
AcDbPolyline
90
8
70
1
43
0.0
10
-218.125
20
51.150000000000006
10
-219.125
20
50.150000000000006
10
-231.72499999999999
20
50.150000000000006
10
-232.72500000000002
20
51.150000000000006
10
-232.72500000000002
20
63.150000000000006
10
-231.72499999999999
20
64.150000000000006
10
-219.125
20
64.150000000000006
10
-218.125
20
63.150000000000006
0
LWPOLYLINE
5
140
100
AcDbEntity
8
0
100
AcDbPolyline
90
8
70
1
43
0.0
10
-199.07499999999999
20
51.150000000000006
10
-200.07499999999999
20
50.150000000000006
10
-212.67500000000001
20
50.150000000000006
10
-213.67500000000004
20
51.150000000000006
10
-213.67500000000004
20
63.150000000000006
10
-212.67500000000001
20
64.150000000000006
10
-200.07499999999999
20
64.150000000000006
10
-199.07499999999999
20
63.150000000000006
0
LWPOLYLINE
5
141
100
AcDbEntity
8
0
100
AcDbPolyline
90
8
70
1
43
0.0
10
-180.02500000000001
20
51.150000000000006
10
-181.02500000000003
20
50.150000000000006
10
-193.625
20
50.150000000000006
10
-194.62500000000003
20
51.150000000000006
10
-194.62500000000003
20
63.150000000000006
10
-193.625
20
64.150000000000006
10
-181.02500000000003
20
64.150000000000006
10
-180.02500000000001
20
63.150000000000006
0
LWPOLYLINE
5
142
100
AcDbEntity
8
0
100
AcDbPolyline
90
34
70
1
43
0.0
10
-177.485288
20
56.043900999999998
10
-177.69389100000001
20
56.004906000000005
10
-177.90610900000001
20
56.004906000000005
10
-178.114712
20
56.043900999999998
10
-178.31259900000003
20
56.120562000000007
10
-178.49303000000003
20
56.23228000000001
10
-178.64985999999999
20
56.375250000000001
10
-178.77775
20
56.544603000000002
10
-178.872343
20
56.734572000000007
10
-178.930419
20
56.938688000000006
10
-178.94999999999999
20
57.149999999999999
10
-178.930419
20
57.361311999999998
10
-178.872343
20
57.565427999999997
10
-178.77775
20
57.755397000000002
10
-178.64985999999999
20
57.924750000000003
10
-178.49303000000003
20
58.067720000000008
10
-178.31259900000003
20
58.179438000000005
10
-178.114712
20
58.256098999999999
10
-177.90610900000001
20
58.295093999999999
10
-177.69389100000001
20
58.295093999999999
10
-177.485288
20
58.256098999999999
10
-177.28740099999999
20
58.179438000000005
10
-177.10696999999999
20
58.067720000000008
10
-176.95014
20
57.924750000000003
10
-176.82225
20
57.755397000000002
10
-176.72765699999999
20
57.565427999999997
10
-176.66958099999999
20
57.361311999999998
10
-176.65000000000003
20
57.149999999999999
10
-176.66958099999999
20
56.938688000000006
10
-176.72765699999999
20
56.734572000000007
10
-176.82225
20
56.544603000000002
10
-176.95014
20
56.375250000000001
10
-177.10696999999999
20
56.23228000000001
10
-177.28740099999999
20
56.120562000000007
0
LWPOLYLINE
5
143
100
AcDbEntity
8
0
100
AcDbPolyline
90
8
70
1
43
0.0
10
-160.97499999999999
20
51.150000000000006
10
-161.97500000000002
20
50.150000000000006
10
-174.57499999999999
20
50.150000000000006
10
-175.57500000000002
20
51.150000000000006
10
-175.57500000000002
20
63.150000000000006
10
-174.57499999999999
20
64.150000000000006
10
-161.97500000000002
20
64.150000000000006
10
-160.97499999999999
20
63.150000000000006
0
LWPOLYLINE
5
144
100
AcDbEntity
8
0
100
AcDbPolyline
90
8
70
1
43
0.0
10
-141.92500000000001
20
51.150000000000006
10
-142.92500000000001
20
50.150000000000006
10
-155.52500000000003
20
50.150000000000006
10
-156.52500000000001
20
51.150000000000006
10
-156.52500000000001
20
63.150000000000006
10
-155.52500000000003
20
64.150000000000006
10
-142.92500000000001
20
64.150000000000006
10
-141.92500000000001
20
63.150000000000006
0
LWPOLYLINE
5
145
100
AcDbEntity
8
0
100
AcDbPolyline
90
8
70
1
43
0.0
10
-127.63750000000002
20
70.200000000000003
10
-128.63749999999999
20
69.200000000000003
10
-141.23750000000001
20
69.200000000000003
10
-142.23750000000001
20
70.200000000000003
10
-142.23750000000001
20
82.200000000000003
10
-141.23750000000001
20
83.200000000000003
10
-128.63749999999999
20
83.200000000000003
10
-127.63750000000002
20
82.200000000000003
0
LWPOLYLINE
5
146
100
AcDbEntity
8
0
100
AcDbPolyline
90
34
70
1
43
0.0
10
-125.09778799999999
20
75.093901000000017
10
-125.30639100000002
20
75.054906000000003
10
-125.51860900000001
20
75.054906000000003
10
-125.72721200000001
20
75.093901000000017
10
-125.92509900000002
20
75.170562000000004
10
-126.10553000000002
20
75.28228
10
-126.26236
20
75.425250000000005
10
-126.39025000000001
20
75.594603000000006
10
-126.484843
20
75.784571999999997
10
-126.54291900000001
20
75.988687999999996
10
-126.5625
20
76.200000000000017
10
-126.54291900000001
20
76.411312000000009
10
-126.484843
20
76.615427999999994
10
-126.39025000000001
20
76.805396999999999
10
-126.26236
20
76.97475
10
-126.10553000000002
20
77.117720000000006
10
-125.92509900000002
20
77.229438000000002
10
-125.72721200000001
20
77.306099000000017
10
-125.51860900000001
20
77.345094000000003
10
-125.30639100000002
20
77.345094000000003
10
-125.09778799999999
20
77.306099000000017
10
-124.899901
20
77.229438000000002
10
-124.71947
20
77.117720000000006
10
-124.56264000000002
20
76.97475
10
-124.43474999999999
20
76.805396999999999
10
-124.34015700000002
20
76.615427999999994
10
-124.28208100000001
20
76.411312000000009
10
-124.26250000000002
20
76.200000000000017
10
-124.28208100000001
20
75.988687999999996
10
-124.34015700000002
20
75.784571999999997
10
-124.43474999999999
20
75.594603000000006
10
-124.56264000000002
20
75.425250000000005
10
-124.71947
20
75.28228
10
-124.899901
20
75.170562000000004
0
LWPOLYLINE
5
147
100
AcDbEntity
8
0
100
AcDbPolyline
90
8
70
1
43
0.0
10
-108.58750000000001
20
70.200000000000003
10
-109.58750000000002
20
69.200000000000003
10
-122.1875
20
69.200000000000003
10
-123.18750000000001
20
70.200000000000003
10
-123.18750000000001
20
82.200000000000003
10
-122.1875
20
83.200000000000003
10
-109.58750000000002
20
83.200000000000003
10
-108.58750000000001
20
82.200000000000003
0
LWPOLYLINE
5
148
100
AcDbEntity
8
0
100
AcDbPolyline
90
8
70
1
43
0.0
10
-89.537499999999994
20
70.200000000000003
10
-90.537499999999994
20
69.200000000000003
10
-103.1375
20
69.200000000000003
10
-104.1375
20
70.200000000000003
10
-104.1375
20
82.200000000000003
10
-103.1375
20
83.200000000000003
10
-90.537499999999994
20
83.200000000000003
10
-89.537499999999994
20
82.200000000000003
0
LWPOLYLINE
5
149
100
AcDbEntity
8
0
100
AcDbPolyline
90
34
70
1
43
0.0
10
-86.997788000000014
20
75.093901000000017
10
-87.206390999999996
20
75.054906000000003
10
-87.418609000000004
20
75.054906000000003
10
-87.627212
20
75.093901000000017
10
-87.825098999999994
20
75.170562000000004
10
-88.005529999999993
20
75.28228
10
-88.162360000000021
20
75.425250000000005
10
-88.29025
20
75.594603000000006
10
-88.384843000000018
20
75.784571999999997
10
-88.442919000000003
20
75.988687999999996
10
-88.462500000000006
20
76.200000000000017
10
-88.442919000000003
20
76.411312000000009
10
-88.384843000000018
20
76.615427999999994
10
-88.29025
20
76.805396999999999
10
-88.162360000000021
20
76.97475
10
-88.005529999999993
20
77.117720000000006
10
-87.825098999999994
20
77.229438000000002
10
-87.627212
20
77.306099000000017
10
-87.418609000000004
20
77.345094000000003
10
-87.206390999999996
20
77.345094000000003
10
-86.997788000000014
20
77.306099000000017
10
-86.799901000000006
20
77.229438000000002
10
-86.619470000000007
20
77.117720000000006
10
-86.462640000000007
20
76.97475
10
-86.334750000000014
20
76.805396999999999
10
-86.240156999999996
20
76.615427999999994
10
-86.182081000000011
20
76.411312000000009
10
-86.162499999999994
20
76.200000000000017
10
-86.182081000000011
20
75.988687999999996
10
-86.240156999999996
20
75.784571999999997
10
-86.334750000000014
20
75.594603000000006
10
-86.462640000000007
20
75.425250000000005
10
-86.619470000000007
20
75.28228
10
-86.799901000000006
20
75.170562000000004
0
LWPOLYLINE
5
150
100
AcDbEntity
8
0
100
AcDbPolyline
90
8
70
1
43
0.0
10
-70.487499999999997
20
70.200000000000003
10
-71.487499999999997
20
69.200000000000003
10
-84.087500000000006
20
69.200000000000003
10
-85.087500000000006
20
70.200000000000003
10
-85.087500000000006
20
82.200000000000003
10
-84.087500000000006
20
83.200000000000003
10
-71.487499999999997
20
83.200000000000003
10
-70.487499999999997
20
82.200000000000003
0
LWPOLYLINE
5
151
100
AcDbEntity
8
0
100
AcDbPolyline
90
8
70
1
43
0.0
10
-49.058
20
70.200000000000003
10
-50.058000000000007
20
69.200000000000003
10
-62.658000000000001
20
69.200000000000003
10
-63.658000000000001
20
70.200000000000003
10
-63.658000000000001
20
82.200000000000003
10
-62.658000000000001
20
83.200000000000003
10
-50.058000000000007
20
83.200000000000003
10
-49.058
20
82.200000000000003
0
LWPOLYLINE
5
152
100
AcDbEntity
8
0
100
AcDbPolyline
90
8
70
1
43
0.0
10
-122.87500000000001
20
51.150000000000006
10
-123.87500000000001
20
50.150000000000006
10
-136.47500000000002
20
50.150000000000006
10
-137.47499999999999
20
51.150000000000006
10
-137.47499999999999
20
63.150000000000006
10
-136.47500000000002
20
64.150000000000006
10
-123.87500000000001
20
64.150000000000006
10
-122.87500000000001
20
63.150000000000006
0
LWPOLYLINE
5
153
100
AcDbEntity
8
0
100
AcDbPolyline
90
34
70
1
43
0.0
10
-120.33528800000001
20
56.043900999999998
10
-120.54389100000002
20
56.004906000000005
10
-120.75610900000001
20
56.004906000000005
10
-120.96471200000002
20
56.043900999999998
10
-121.16259900000001
20
56.120562000000007
10
-121.34303000000001
20
56.23228000000001
10
-121.49986
20
56.375250000000001
10
-121.62775000000002
20
56.544603000000002
10
-121.722343
20
56.734572000000007
10
-121.78041899999999
20
56.938688000000006
10
-121.8
20
57.149999999999999
10
-121.78041899999999
20
57.361311999999998
10
-121.722343
20
57.565427999999997
10
-121.62775000000002
20
57.755397000000002
10
-121.49986
20
57.924750000000003
10
-121.34303000000001
20
58.067720000000008
10
-121.16259900000001
20
58.179438000000005
10
-120.96471200000002
20
58.256098999999999
10
-120.75610900000001
20
58.295093999999999
10
-120.54389100000002
20
58.295093999999999
10
-120.33528800000001
20
58.256098999999999
10
-120.137401
20
58.179438000000005
10
-119.95697
20
58.067720000000008
10
-119.80014
20
57.924750000000003
10
-119.67225000000001
20
57.755397000000002
10
-119.57765700000002
20
57.565427999999997
10
-119.519581
20
57.361311999999998
10
-119.50000000000001
20
57.149999999999999
10
-119.519581
20
56.938688000000006
10
-119.57765700000002
20
56.734572000000007
10
-119.67225000000001
20
56.544603000000002
10
-119.80014
20
56.375250000000001
10
-119.95697
20
56.23228000000001
10
-120.137401
20
56.120562000000007
0
LWPOLYLINE
5
154
100
AcDbEntity
8
0
100
AcDbPolyline
90
8
70
1
43
0.0
10
-103.825
20
51.150000000000006
10
-104.82500000000002
20
50.150000000000006
10
-117.425
20
50.150000000000006
10
-118.42500000000001
20
51.150000000000006
10
-118.42500000000001
20
63.150000000000006
10
-117.425
20
64.150000000000006
10
-104.82500000000002
20
64.150000000000006
10
-103.825
20
63.150000000000006
0
LWPOLYLINE
5
155
100
AcDbEntity
8
0
100
AcDbPolyline
90
8
70
1
43
0.0
10
-84.775000000000006
20
51.150000000000006
10
-85.775000000000006
20
50.150000000000006
10
-98.375
20
50.150000000000006
10
-99.375
20
51.150000000000006
10
-99.375
20
63.150000000000006
10
-98.375
20
64.150000000000006
10
-85.775000000000006
20
64.150000000000006
10
-84.775000000000006
20
63.150000000000006
0
LWPOLYLINE
5
156
100
AcDbEntity
8
0
100
AcDbPolyline
90
8
70
1
43
0.0
10
-65.724999999999994
20
51.150000000000006
10
-66.724999999999994
20
50.150000000000006
10
-79.325000000000017
20
50.150000000000006
10
-80.325000000000003
20
51.150000000000006
10
-80.325000000000003
20
63.150000000000006
10
-79.325000000000017
20
64.150000000000006
10
-66.724999999999994
20
64.150000000000006
10
-65.724999999999994
20
63.150000000000006
0
LWPOLYLINE
5
157
100
AcDbEntity
8
0
100
AcDbPolyline
90
34
70
1
43
0.0
10
-63.185288
20
56.043900999999998
10
-63.393891000000011
20
56.004906000000005
10
-63.606109000000004
20
56.004906000000005
10
-63.814712
20
56.043900999999998
10
-64.012598999999994
20
56.120562000000007
10
-64.193029999999993
20
56.23228000000001
10
-64.349860000000007
20
56.375250000000001
10
-64.47775
20
56.544603000000002
10
-64.572343000000004
20
56.734572000000007
10
-64.630419000000003
20
56.938688000000006
10
-64.650000000000006
20
57.149999999999999
10
-64.630419000000003
20
57.361311999999998
10
-64.572343000000004
20
57.565427999999997
10
-64.47775
20
57.755397000000002
10
-64.349860000000007
20
57.924750000000003
10
-64.193029999999993
20
58.067720000000008
10
-64.012598999999994
20
58.179438000000005
10
-63.814712
20
58.256098999999999
10
-63.606109000000004
20
58.295093999999999
10
-63.393891000000011
20
58.295093999999999
10
-63.185288
20
58.256098999999999
10
-62.987400999999998
20
58.179438000000005
10
-62.80697
20
58.067720000000008
10
-62.650140000000007
20
57.924750000000003
10
-62.52225
20
57.755397000000002
10
-62.427657000000004
20
57.565427999999997
10
-62.369580999999997
20
57.361311999999998
10
-62.350000000000001
20
57.149999999999999
10
-62.369580999999997
20
56.938688000000006
10
-62.427657000000004
20
56.734572000000007
10
-62.52225
20
56.544603000000002
10
-62.650140000000007
20
56.375250000000001
10
-62.80697
20
56.23228000000001
10
-62.987400999999998
20
56.120562000000007
0
LWPOLYLINE
5
158
100
AcDbEntity
8
0
100
AcDbPolyline
90
8
70
1
43
0.0
10
-46.674999999999997
20
51.150000000000006
10
-47.674999999999997
20
50.150000000000006
10
-60.274999999999999
20
50.150000000000006
10
-61.275000000000006
20
51.150000000000006
10
-61.275000000000006
20
63.150000000000006
10
-60.274999999999999
20
64.150000000000006
10
-47.674999999999997
20
64.150000000000006
10
-46.674999999999997
20
63.150000000000006
0
LWPOLYLINE
5
159
100
AcDbEntity
8
0
100
AcDbPolyline
90
34
70
1
43
0.0
10
-63.179614000000008
20
49.037472999999999
10
-63.388217000000004
20
48.998477999999999
10
-63.600434999999997
20
48.998477999999999
10
-63.809038000000001
20
49.037472999999999
10
-64.006924999999995
20
49.114134000000007
10
-64.187355999999994
20
49.225852000000003
10
-64.344185999999993
20
49.368822000000002
10
-64.472076000000001
20
49.538175000000003
10
-64.566669000000005
20
49.728144000000007
10
-64.624745000000004
20
49.932259999999999
10
-64.644326000000007
20
50.143571999999999
10
-64.624745000000004
20
50.354883999999998
10
-64.566669000000005
20
50.559000000000005
10
-64.472076000000001
20
50.748969000000002
10
-64.344185999999993
20
50.918322000000003
10
-64.187355999999994
20
51.061292000000009
10
-64.006924999999995
20
51.173010000000005
10
-63.809038000000001
20
51.249670999999999
10
-63.600434999999997
20
51.288666000000006
10
-63.388217000000004
20
51.288666000000006
10
-63.179614000000008
20
51.249670999999999
10
-62.981727000000006
20
51.173010000000005
10
-62.801296000000008
20
51.061292000000009
10
-62.644466000000001
20
50.918322000000003
10
-62.516576000000008
20
50.748969000000002
10
-62.421982999999997
20
50.559000000000005
10
-62.363907000000005
20
50.354883999999998
10
-62.344326000000009
20
50.143571999999999
10
-62.363907000000005
20
49.932259999999999
10
-62.421982999999997
20
49.728144000000007
10
-62.516576000000008
20
49.538175000000003
10
-62.644466000000001
20
49.368822000000002
10
-62.801296000000008
20
49.225852000000003
10
-62.981727000000006
20
49.114134000000007
0
ENDSEC
0
SECTION
2
OBJECTS
0
DICTIONARY
5
C
100
AcDbDictionary
3
ACAD_GROUP
350
D
3
ACAD_MLINESTYLE
350
17
0
DICTIONARY
5
D
100
AcDbDictionary
0
DICTIONARY
5
1A
330
C
100
AcDbDictionary
0
DICTIONARY
5
17
100
AcDbDictionary
0
ENDSEC
0
EOF
